<svg id="Layer_1" data-name="Layer 1" xmlns="http://www.w3.org/2000/svg" viewBox="0 0 783.63 303.44"><defs><style>.cls-1{fill:#f0532a;}.cls-2{fill:#33404f;}</style></defs><title>PRINT JMK Security Logo LB</title><path class="cls-1" d="M127.09,128.12c0,36.95-18.94,55.65-57.73,55.65-43.65,0-57.73-25.17-57.73-61.89v-7.15H52V130c0,10.85,6,16.86,16.63,16.86,9.93,0,15.47-5.55,15.47-21.48V15.43h43Z"/><path class="cls-1" d="M145.8,15.43h63.27l28.4,109.92h.47l28.4-109.92h63.28V180.31H289.2V55.15h-.46L254.1,180.31H221.31L186.67,55.15h-.46V180.31H145.8Z"/><path class="cls-1" d="M348.09,15.43h43V78.7l54.27-63.27h53.35l-61,64.89,68.59,100H452.94L408.6,111,391,129.51v50.8h-43Z"/><path class="cls-2" d="M772,91.42h-.18C748.29,38.6,700,5.2,647.22,5.2s-101,33.4-124.59,86.22h-.19a1.31,1.31,0,0,1,.09.17l-.09.19h.19C546.18,144.58,594.41,178,647.22,178s101.07-33.39,124.61-86.19H772l-.09-.19A1.31,1.31,0,0,1,772,91.42ZM647.22,149.36a57.6,57.6,0,1,1,57.59-57.6A57.66,57.66,0,0,1,647.22,149.36ZM543.84,91.59C555,70,570.92,52.67,589.62,41.05A76.59,76.59,0,0,0,589,141.73C570.56,130.11,554.9,113,543.84,91.59Zm161.62,50.14a76.56,76.56,0,0,0-.64-100.68c18.71,11.62,34.61,28.9,45.81,50.54C739.56,113,723.89,130.12,705.46,141.73Z"/><path class="cls-1" d="M614.39,115.93l18.87-32.72-25.84.06a41.49,41.49,0,0,0,7,32.66Z"/><path class="cls-1" d="M622.31,118.72l-2.11,3.66A40.91,40.91,0,0,0,647.75,133a40.41,40.41,0,0,0,4.4-.24l-19-32.74Z"/><path class="cls-1" d="M685.4,108.54l-37.74,0c3.74,6.42,7.51,12.9,11.27,19.38l1.72,3A41.37,41.37,0,0,0,685.4,108.54Z"/><path class="cls-1" d="M662.25,100.3l25.82,0a41.23,41.23,0,0,0-7-32.72Z"/><path class="cls-1" d="M673.29,64.61l2-3.51a41.4,41.4,0,0,0-31.87-10.33l19,32.71Z"/><path class="cls-1" d="M610.1,75l37.81-.07Q641.43,63.79,635,52.59A41.73,41.73,0,0,0,610.1,75Z"/><path class="cls-2" d="M66.59,216.4A16.83,16.83,0,0,0,59,209.66,24.41,24.41,0,0,0,49,207.55a29.53,29.53,0,0,0-7.49,1,22.08,22.08,0,0,0-6.6,2.86,14.28,14.28,0,0,0-4.7,5,14.71,14.71,0,0,0-1.77,7.36,15.29,15.29,0,0,0,1,5.78,12.3,12.3,0,0,0,3.33,4.57,24.88,24.88,0,0,0,6.27,3.81,85.91,85.91,0,0,0,9.67,3.54q5.58,1.77,10.82,3.81a36.34,36.34,0,0,1,9.26,5.18,22.84,22.84,0,0,1,6.4,7.82,26.73,26.73,0,0,1-8,33.09,32.75,32.75,0,0,1-10.83,5.18,47.21,47.21,0,0,1-12.66,1.7,48.06,48.06,0,0,1-8.44-.75,40.81,40.81,0,0,1-8.11-2.31,33.28,33.28,0,0,1-7.28-4.09A24.72,24.72,0,0,1,14,284.9l9.81-8a20.16,20.16,0,0,0,8.71,8,26.74,26.74,0,0,0,11.85,2.72,26.35,26.35,0,0,0,7.42-1.09,22.54,22.54,0,0,0,6.74-3.2,17.38,17.38,0,0,0,4.9-5.24,13.64,13.64,0,0,0,1.91-7.22,15.35,15.35,0,0,0-1.5-7.28,13.38,13.38,0,0,0-4.63-4.84,35.4,35.4,0,0,0-7.9-3.67l-11.16-3.82a70.07,70.07,0,0,1-9.53-3.74,29.06,29.06,0,0,1-7.56-5.18,22,22,0,0,1-5-7.35,26.09,26.09,0,0,1-1.84-10.28,24.87,24.87,0,0,1,10.08-20.77,33.47,33.47,0,0,1,10.48-5.24A42.17,42.17,0,0,1,49,196.93a42.26,42.26,0,0,1,14.91,2.52,29.26,29.26,0,0,1,12,8.78Z"/><path class="cls-2" d="M115.75,199.38h60.6V210H127.19v30.23h45.89v10.62H127.19v34.32H178.8v10.62H115.75Z"/><path class="cls-2" d="M283.24,219.26a27.63,27.63,0,0,0-10.76-8.78,31.79,31.79,0,0,0-13.35-2.93,33.38,33.38,0,0,0-14.77,3.27,37.19,37.19,0,0,0-11.64,8.78,40.47,40.47,0,0,0-7.63,12.8,43.16,43.16,0,0,0-2.72,15.19,44.61,44.61,0,0,0,2.72,15.72A39.49,39.49,0,0,0,232.65,276a35.58,35.58,0,0,0,11.57,8.51,37.4,37.4,0,0,0,30.71-.34,35.86,35.86,0,0,0,12.12-10l8.58,7.22a39.74,39.74,0,0,1-15.73,12.8,50.68,50.68,0,0,1-20.77,4.08,49,49,0,0,1-19.33-3.81,47.47,47.47,0,0,1-15.59-10.56,48.36,48.36,0,0,1-10.35-16,53.6,53.6,0,0,1-3.75-20.29,54.37,54.37,0,0,1,3.61-19.88,47.88,47.88,0,0,1,45.41-30.78A51.35,51.35,0,0,1,278,200.47a34.75,34.75,0,0,1,15.19,11.58Z"/><path class="cls-2" d="M403.06,259a55.76,55.76,0,0,1-2,15,34.69,34.69,0,0,1-6.27,12.46A30.11,30.11,0,0,1,383.59,295q-6.94,3.19-16.88,3.2T349.82,295a30.19,30.19,0,0,1-11.23-8.58A34.69,34.69,0,0,1,332.32,274a55.76,55.76,0,0,1-2-15V199.38h11.44v58a51.76,51.76,0,0,0,1.22,11.3,28,28,0,0,0,4.09,9.67,20.58,20.58,0,0,0,7.62,6.74,29.76,29.76,0,0,0,24,0,20.58,20.58,0,0,0,7.62-6.74,28,28,0,0,0,4.09-9.67,51.15,51.15,0,0,0,1.22-11.3v-58h11.44Z"/><path class="cls-2" d="M445.82,199.38h24.64a116.14,116.14,0,0,1,13.83.82,37.17,37.17,0,0,1,12.32,3.54,22.31,22.31,0,0,1,8.85,8q3.41,5.23,3.4,14.23,0,10.62-6.4,17.15t-17.7,8.31l27.37,44.39h-14L472,252.49h-14.7v43.3H445.82Zm11.44,42.49h10.21c3.17,0,6.47-.09,9.87-.28a33.74,33.74,0,0,0,9.4-1.77,16.28,16.28,0,0,0,7.08-4.69q2.79-3.21,2.79-9.19a15,15,0,0,0-2-8.31,13.83,13.83,0,0,0-5.38-4.83,22.74,22.74,0,0,0-7.49-2.25,64.92,64.92,0,0,0-8.38-.55H457.26Z"/><path class="cls-2" d="M548.22,199.38h11.43v96.41H548.22Z"/><path class="cls-2" d="M667.5,210H635.63v85.79H624.2V210H592.33V199.38H667.5Z"/><path class="cls-2" d="M722.92,254.26,687,199.38h14.57L728.64,243l27.91-43.58H770.3l-35.95,54.88v41.53H722.92Z"/></svg>