<svg id="Layer_1" data-name="Layer 1" xmlns="http://www.w3.org/2000/svg" viewBox="0 0 681.05 153.38"><defs><style>.cls-1,.cls-2{fill:#00aec7;}.cls-2{fill-rule:evenodd;}.cls-3{fill:#8031a7;}</style></defs><title>Constructionline_RGB_VerticalLockup</title><rect class="cls-1" x="5.25" y="18.23" width="145.5" height="5.37"/><rect class="cls-1" width="156.98" height="13.69"/><path class="cls-2" d="M207.42,372.72a26.41,26.41,0,0,0,4.79-1.61V277.34h-4.79Z" transform="translate(-80.42 -220.95)"/><path class="cls-2" d="M188,374.21c1.55.1,3.12.15,4.75.1,1.13,0,2.21-.06,3.24-.11V277.34h-8Z" transform="translate(-80.42 -220.95)"/><path class="cls-2" d="M104.33,359.24c9.58.39,17.88,1.19,25.17,2.21V277.34H104.33Z" transform="translate(-80.42 -220.95)"/><path class="cls-2" d="M165.46,369.51c4,1.13,7.62,2.16,11.18,3V277.34H165.46Z" transform="translate(-80.42 -220.95)"/><path class="cls-2" d="M138.09,362.84c6.66,1.2,12.43,2.58,17.58,4V277.34H138.09Z" transform="translate(-80.42 -220.95)"/><path class="cls-2" d="M105.23,271.62H212.11s-2.4-3.53-2.4-10.2,6-10.21,6-10.21H101s6.63,3.53,6.63,10.21-2.4,10.2-2.4,10.2" transform="translate(-80.42 -220.95)"/><path class="cls-3" d="M285.33,293.87h-8.69c-1.52-7-5.32-12.35-11.62-12.35-7.28,0-12.49,7.78-12.49,15.84,0,12,6.54,17.92,14,17.92,6,0,8.67-6.25,10.08-12.75h8.69v13.12c-4.56,5.41-11.4,8.3-19.88,8.3-15.42,0-24.74-12.4-24.74-26,0-13.41,11.21-26.11,23-26.11,5.65,0,9.67,1.57,12.93,5.18l3.37-4.21h5.32Z" transform="translate(-80.42 -220.95)"/><path class="cls-3" d="M306.06,323.35c-11.29,0-17.53-7-17.53-18.65S294.77,286,306.06,286,323.6,293,323.6,304.7,317.36,323.35,306.06,323.35Zm0-30.61c-4.6,0-7.5,3.19-7.5,12s2.9,11.89,7.5,11.89,7.51-3.12,7.51-11.89S310.67,292.74,306.06,292.74Z" transform="translate(-80.42 -220.95)"/><path class="cls-3" d="M360.68,322.68H350.8v-22c0-2.38-.23-3.94-1.19-5.28a5.6,5.6,0,0,0-4.68-2,6.1,6.1,0,0,0-5.06,2.31c-1.19,1.56-1.48,3.56-1.48,6.31v20.66H328.5V293.63h-4.31v-7h10.18l1.79,4.61c2.38-3.2,6.31-5.28,11.52-5.28,4.23,0,7.65,1.19,9.88,3.5s3.12,5.57,3.12,9.66Z" transform="translate(-80.42 -220.95)"/><path class="cls-3" d="M378.07,323.35A33.69,33.69,0,0,1,365,320.9l.59-7.43a26.16,26.16,0,0,0,11.82,3.12c3.86,0,6.09-1.19,6.09-3.57,0-6.31-18.65-2.38-18.65-15.68,0-7.13,6.09-11.37,14.86-11.37a32.61,32.61,0,0,1,10.11,1.56v7a25.39,25.39,0,0,0-9.44-1.86c-3.71,0-6.39,1.34-6.39,3.72,0,5.79,18.65,2.52,18.65,15.6C392.63,319.56,386.32,323.35,378.07,323.35Z" transform="translate(-80.42 -220.95)"/><path class="cls-3" d="M418.64,321a17.25,17.25,0,0,1-9,2.38c-3.5,0-6.47-1.11-8.18-2.9-1.86-2-2.52-4.6-2.52-9.29V293.63H393.3v-7H399v-8.92l9.88-2.45v11.37h8.32v7h-8.32V311c0,3.41.89,5.27,3.94,5.27a12.54,12.54,0,0,0,6.09-1.93Z" transform="translate(-80.42 -220.95)"/><path class="cls-3" d="M444.72,294a17.53,17.53,0,0,0-2.9-.22,6.38,6.38,0,0,0-5.13,2c-1.41,1.71-1.78,3.94-1.78,7.06v19.84H425V293.63h-4.31v-7h10.33l1.78,5.06a10.5,10.5,0,0,1,9.59-5.73,10.39,10.39,0,0,1,2.3.23Z" transform="translate(-80.42 -220.95)"/><path class="cls-3" d="M485.22,321.2a12.08,12.08,0,0,1-6.62,1.93c-2.82,0-5.42-1.19-6.39-3.72-2.38,2.46-5.94,3.94-10.4,3.94-4.24,0-7.65-1.19-9.88-3.49s-3.12-5.57-3.12-9.66V286.64h9.88v22c0,2.38.22,3.94,1.19,5.27a5.54,5.54,0,0,0,4.68,2,6.1,6.1,0,0,0,5.05-2.3c1.19-1.56,1.49-3.57,1.49-6.32V286.64H481v27.72c0,1.56.6,2.23,1.78,2.23a5.8,5.8,0,0,0,2.83-1Z" transform="translate(-80.42 -220.95)"/><path class="cls-3" d="M523,301.75h-6.92c-1.21-5-4.24-8.44-9.26-8.44-5.79,0-9.95,5.15-9.95,10.95,0,6.14,4.42,12.72,10.38,12.72,4.76,0,7.7-4.33,8.83-9H523v8.43a21.58,21.58,0,0,1-15.83,7c-12.29,0-20.5-7.53-20.5-18.69,0-10.9,8-18.77,19.11-18.77,4.5,0,7.7,1.12,10.3,3.72l2.68-3H523Z" transform="translate(-80.42 -220.95)"/><path class="cls-3" d="M551.18,321a17.22,17.22,0,0,1-9,2.38c-3.49,0-6.46-1.11-8.17-2.9-1.86-2-2.53-4.6-2.53-9.29V293.63h-5.65v-7h5.65v-8.92l9.89-2.45v11.37h8.32v7h-8.32V311c0,3.41.89,5.27,3.93,5.27a12.58,12.58,0,0,0,6.1-1.93Z" transform="translate(-80.42 -220.95)"/><path class="cls-3" d="M572.21,321.27a12.15,12.15,0,0,1-6.54,1.86c-3,0-5.12-.89-6.31-2.53a10.13,10.13,0,0,1-1.34-5.79V293.63h-4.31v-7H567.9v27.72c0,1.56.6,2.23,1.79,2.23a5.76,5.76,0,0,0,2.82-1Zm-9.43-38.94a5.55,5.55,0,0,1-5.58-5.5,5.5,5.5,0,0,1,5.5-5.5,5.43,5.43,0,0,1,5.43,5.5A5.36,5.36,0,0,1,562.78,282.33Z" transform="translate(-80.42 -220.95)"/><path class="cls-3" d="M592.8,323.35c-11.3,0-17.54-7-17.54-18.65S581.5,286,592.8,286s17.53,7.06,17.53,18.73S604.09,323.35,592.8,323.35Zm0-30.61c-4.61,0-7.51,3.19-7.51,12s2.9,11.89,7.51,11.89,7.5-3.12,7.5-11.89S597.4,292.74,592.8,292.74Z" transform="translate(-80.42 -220.95)"/><path class="cls-3" d="M647.41,322.68h-9.88v-22c0-2.38-.22-3.94-1.19-5.28a5.6,5.6,0,0,0-4.68-2,6.08,6.08,0,0,0-5,2.31c-1.19,1.56-1.49,3.56-1.49,6.31v20.66h-9.88V293.63h-4.31v-7h10.18l1.78,4.61c2.38-3.2,6.32-5.28,11.52-5.28,4.23,0,7.65,1.19,9.88,3.5s3.12,5.57,3.12,9.66Z" transform="translate(-80.42 -220.95)"/><path class="cls-3" d="M667.4,321.27a12.17,12.17,0,0,1-6.54,1.86c-3.05,0-5.13-.89-6.32-2.53a10.21,10.21,0,0,1-1.33-5.79v-36H648.9v-7h14.19v42.51c0,1.56.59,2.23,1.78,2.23a5.83,5.83,0,0,0,2.83-1Z" transform="translate(-80.42 -220.95)"/><path class="cls-3" d="M687.69,321.27a12.2,12.2,0,0,1-6.54,1.86c-3,0-5.13-.89-6.32-2.53a10.13,10.13,0,0,1-1.34-5.79V293.63h-4.31v-7h14.19v27.72c0,1.56.6,2.23,1.79,2.23a5.76,5.76,0,0,0,2.82-1Zm-9.44-38.94a5.55,5.55,0,0,1-5.58-5.5,5.5,5.5,0,0,1,5.5-5.5,5.43,5.43,0,0,1,5.43,5.5A5.36,5.36,0,0,1,678.25,282.33Z" transform="translate(-80.42 -220.95)"/><path class="cls-3" d="M725.06,322.68h-9.88v-22c0-2.38-.23-3.94-1.19-5.28a5.6,5.6,0,0,0-4.68-2,6.1,6.1,0,0,0-5.06,2.31c-1.18,1.56-1.48,3.56-1.48,6.31v20.66h-9.89V293.63h-4.31v-7h10.19l1.78,4.61c2.38-3.2,6.32-5.28,11.52-5.28,4.23,0,7.65,1.19,9.88,3.5s3.12,5.57,3.12,9.66Z" transform="translate(-80.42 -220.95)"/><path class="cls-3" d="M757,307.89H738.29c.66,5.8,4.23,8.62,9.73,8.62a22,22,0,0,0,11.82-3.64l-.38,6.77c-3.41,2.45-8.62,3.71-13.45,3.71-11.51,0-17.9-7.28-17.9-18.5,0-11.89,6.91-18.88,17-18.88,9.81,0,16.35,6.54,16.35,16.57C761.47,306.41,760.36,307.89,757,307.89Zm-11.89-15.23c-3.79,0-6.69,2.9-7,9.59h13.15c.52,0,.67-.23.67-.75C752,295.86,749.36,292.66,745.12,292.66Z" transform="translate(-80.42 -220.95)"/></svg>