<svg id="svg" version="1.1" xmlns="http://www.w3.org/2000/svg" xmlns:xlink="http://www.w3.org/1999/xlink" width="400" height="63.362289218191115" viewBox="0, 0, 400,63.362289218191115"><g id="svgg"><path id="path0" d="M149.681 14.933 C 143.284 15.815,140.590 17.958,139.566 22.976 C 138.775 26.855,139.001 38.533,139.929 41.750 C 140.971 45.359,144.155 47.533,149.372 48.199 C 152.161 48.554,172.486 48.500,174.929 48.130 C 180.859 47.234,183.703 44.494,184.333 39.072 C 184.628 36.532,184.469 23.939,184.123 22.483 C 183.123 18.279,180.285 15.931,175.152 15.062 C 172.746 14.655,152.443 14.552,149.681 14.933 M9.833 31.583 L 9.833 48.000 28.167 48.000 L 46.500 48.000 46.500 44.084 L 46.500 40.169 33.208 40.126 L 19.917 40.083 19.917 37.500 L 19.917 34.917 32.208 34.874 L 44.500 34.831 44.500 31.417 L 44.500 28.002 32.208 27.959 L 19.917 27.917 19.917 25.333 L 19.917 22.750 32.958 22.707 L 46.000 22.665 46.000 18.916 L 46.000 15.167 27.917 15.167 L 9.833 15.167 9.833 31.583 M49.210 27.292 C 49.279 40.734,49.243 40.280,50.409 42.710 C 51.825 45.661,54.531 47.459,58.566 48.129 C 61.103 48.550,78.975 48.544,81.369 48.121 C 85.333 47.420,87.940 45.696,89.410 42.801 C 90.594 40.472,90.557 40.940,90.623 27.375 L 90.683 15.167 85.684 15.167 L 80.685 15.167 80.625 25.708 C 80.538 40.900,81.209 40.003,69.950 39.997 C 62.143 39.992,61.277 39.836,60.181 38.237 C 59.261 36.895,59.264 36.931,59.205 25.625 L 59.150 15.167 54.150 15.167 L 49.149 15.167 49.210 27.292 M95.000 31.583 L 95.000 48.000 100.080 48.000 L 105.161 48.000 105.205 43.792 L 105.250 39.583 113.583 39.539 C 125.568 39.476,125.202 39.307,125.305 44.958 L 125.360 48.000 130.359 48.000 L 135.359 48.000 135.301 43.792 C 135.219 37.864,134.165 35.972,130.625 35.393 C 129.739 35.248,129.839 35.117,131.162 34.691 C 134.448 33.633,135.373 31.921,135.468 26.729 C 135.577 20.756,134.834 18.421,132.274 16.692 C 130.017 15.167,130.044 15.169,111.292 15.168 L 95.000 15.167 95.000 31.583 M170.924 23.546 C 172.119 23.944,173.021 24.782,173.598 26.031 L 174.083 27.083 174.083 31.667 C 174.083 40.046,174.325 39.872,162.588 39.958 C 151.902 40.036,151.311 39.929,150.229 37.725 L 149.750 36.750 149.750 31.750 C 149.750 23.133,149.691 23.173,162.333 23.231 C 169.081 23.262,170.192 23.302,170.924 23.546 M124.316 23.750 C 125.433 24.408,125.578 24.782,125.629 27.137 C 125.722 31.397,126.124 31.250,114.417 31.250 L 105.250 31.250 105.205 27.286 L 105.161 23.323 114.455 23.370 C 123.405 23.415,123.771 23.429,124.316 23.750 " stroke="none" fill="#e42414" fill-rule="evenodd"></path><path id="path1" d="M375.963 3.792 L 375.917 6.417 267.458 6.458 L 159.000 6.500 159.000 7.833 L 159.000 9.167 267.399 9.167 C 366.091 9.167,375.807 9.190,375.899 9.430 C 376.031 9.775,376.031 53.392,375.899 53.736 C 375.807 53.977,361.684 54.000,217.399 54.000 L 59.000 54.000 59.000 55.500 L 59.000 57.000 217.399 57.000 C 361.684 57.000,375.807 57.023,375.899 57.264 C 375.954 57.409,376.000 58.571,376.000 59.847 L 376.000 62.167 377.333 62.167 L 378.667 62.167 378.667 59.583 L 378.667 57.000 384.417 57.000 L 390.167 57.000 390.167 55.502 L 390.167 54.004 384.458 53.961 L 378.750 53.917 378.750 31.583 L 378.750 9.250 384.458 9.206 L 390.167 9.162 390.167 7.831 L 390.167 6.500 384.417 6.500 L 378.667 6.500 378.667 3.833 L 378.667 1.167 377.338 1.167 L 376.008 1.167 375.963 3.792 M240.986 22.736 C 240.947 22.775,240.287 22.892,239.518 22.998 C 236.736 23.378,235.322 24.254,234.472 26.121 L 234.000 27.159 234.000 31.825 C 234.000 39.723,235.242 41.000,242.917 40.996 C 250.659 40.991,252.333 39.951,252.333 35.144 L 252.333 33.833 250.521 33.833 L 248.708 33.833 248.629 35.208 C 248.475 37.855,248.353 37.917,243.250 37.917 C 237.573 37.917,237.584 37.930,237.696 30.803 C 237.771 25.990,237.876 25.893,243.169 25.714 C 247.554 25.565,248.084 25.810,248.276 28.075 L 248.382 29.333 250.211 29.333 L 252.039 29.333 251.972 27.708 C 251.811 23.830,249.937 22.667,243.851 22.667 C 242.313 22.667,241.024 22.698,240.986 22.736 M284.333 22.862 C 279.451 23.874,278.956 24.737,279.034 32.102 C 279.118 40.035,280.097 40.997,288.083 40.997 C 296.075 40.997,297.083 39.979,297.083 31.917 C 297.083 25.870,296.825 24.957,294.770 23.753 C 293.195 22.830,287.029 22.304,284.333 22.862 M326.500 22.847 C 326.087 22.933,325.315 23.089,324.783 23.193 C 322.430 23.654,321.333 25.210,321.333 28.091 C 321.333 31.749,322.484 32.642,327.667 33.011 C 335.328 33.556,334.750 33.346,334.750 35.584 C 334.750 37.788,334.293 38.006,329.686 37.993 C 325.326 37.981,325.113 37.878,325.025 35.744 L 324.966 34.333 323.066 34.333 L 321.167 34.333 321.171 35.625 C 321.184 39.826,323.084 40.992,329.917 40.991 C 336.682 40.990,338.500 39.816,338.500 35.443 C 338.500 31.226,337.385 30.554,329.765 30.173 C 325.245 29.948,325.058 29.853,325.017 27.745 C 324.982 26.004,325.588 25.753,329.833 25.751 C 333.947 25.750,334.500 26.059,334.500 28.364 L 334.500 28.833 336.242 28.833 L 337.985 28.833 338.098 28.233 C 338.583 25.644,336.961 23.524,334.083 22.985 C 332.781 22.741,327.466 22.644,326.500 22.847 M198.967 23.542 C 198.816 23.840,198.468 24.571,198.194 25.167 C 197.920 25.762,197.324 27.037,196.870 28.000 C 196.416 28.962,195.801 30.275,195.504 30.917 C 195.207 31.558,194.717 32.608,194.415 33.250 C 192.361 37.617,191.000 40.597,191.000 40.726 C 191.000 40.785,191.881 40.833,192.958 40.833 L 194.917 40.833 195.689 39.125 L 196.462 37.417 201.468 37.373 L 206.473 37.328 207.317 39.081 L 208.160 40.833 210.167 40.833 L 212.173 40.833 211.858 40.208 C 211.417 39.334,209.353 35.065,208.454 33.167 C 208.041 32.296,207.199 30.533,206.582 29.250 C 205.965 27.967,205.163 26.279,204.799 25.500 C 204.435 24.721,204.022 23.840,203.883 23.542 L 203.629 23.000 201.436 23.000 L 199.242 23.000 198.967 23.542 M213.167 29.827 C 213.167 40.314,213.716 40.996,222.167 40.990 C 227.665 40.986,229.834 40.277,230.902 38.134 L 231.333 37.268 231.333 30.134 L 231.333 23.000 229.500 23.000 L 227.667 23.000 227.667 29.683 C 227.667 38.455,227.990 37.826,223.415 37.960 C 219.830 38.065,217.933 37.842,217.335 37.245 L 216.917 36.826 216.862 29.913 L 216.807 23.000 214.987 23.000 L 213.167 23.000 213.167 29.827 M253.500 24.413 L 253.500 25.826 256.875 25.872 L 260.250 25.917 260.293 33.375 L 260.337 40.833 262.250 40.833 L 264.163 40.833 264.207 33.375 L 264.250 25.917 267.625 25.872 L 271.000 25.826 271.000 24.413 L 271.000 23.000 262.250 23.000 L 253.500 23.000 253.500 24.413 M272.833 31.917 L 272.833 40.833 274.667 40.833 L 276.500 40.833 276.500 31.917 L 276.500 23.000 274.667 23.000 L 272.833 23.000 272.833 31.917 M299.333 31.917 L 299.333 40.833 301.167 40.833 L 303.000 40.833 303.000 34.177 C 303.000 27.128,303.037 26.806,303.734 27.763 C 304.031 28.172,307.191 32.161,311.069 37.022 C 311.627 37.722,312.533 38.865,313.083 39.563 L 314.083 40.831 316.542 40.832 L 319.000 40.833 319.000 31.917 L 319.000 23.000 317.167 23.000 L 315.333 23.000 315.333 29.750 C 315.333 33.877,315.272 36.500,315.176 36.500 C 315.021 36.500,314.523 35.911,312.625 33.478 C 312.099 32.803,310.861 31.229,309.875 29.980 C 308.890 28.732,307.258 26.655,306.250 25.365 L 304.417 23.020 301.875 23.010 L 299.333 23.000 299.333 31.917 M292.273 26.123 C 293.285 26.658,293.333 26.922,293.333 31.900 C 293.333 38.067,293.483 37.868,288.750 37.969 C 285.266 38.044,283.960 37.869,283.335 37.245 L 282.917 36.826 282.868 32.086 C 282.815 27.005,282.872 26.592,283.676 26.162 C 284.843 25.537,291.114 25.509,292.273 26.123 M201.993 27.727 C 202.479 28.847,203.976 32.023,204.401 32.833 C 204.617 33.246,204.845 33.752,204.908 33.958 L 205.022 34.333 201.511 34.333 C 199.486 34.333,198.000 34.268,198.000 34.180 C 198.000 34.096,198.415 33.139,198.922 32.055 C 201.609 26.312,201.467 26.513,201.993 27.727 " stroke="none" fill="#040404" fill-rule="evenodd"></path><path id="path2" d="M0.000 31.667 L 0.000 63.333 200.000 63.333 L 400.000 63.333 400.000 31.667 L 400.000 0.000 200.000 0.000 L 0.000 0.000 0.000 31.667 M378.833 3.664 L 378.833 6.329 384.542 6.373 L 390.250 6.417 390.300 7.580 C 390.328 8.220,390.308 8.913,390.255 9.122 L 390.160 9.500 384.497 9.500 L 378.833 9.500 378.833 31.583 L 378.833 53.667 384.497 53.667 L 390.160 53.667 390.255 54.042 C 390.306 54.249,390.327 55.018,390.299 55.751 L 390.250 57.083 384.542 57.127 L 378.833 57.171 378.833 59.758 L 378.833 62.346 377.292 62.298 L 375.750 62.250 375.704 59.708 L 375.658 57.167 217.240 57.167 L 58.822 57.167 58.869 55.458 L 58.917 53.750 217.292 53.708 L 375.667 53.666 375.667 31.583 L 375.667 9.500 267.292 9.458 L 158.917 9.417 158.869 7.875 L 158.821 6.333 267.244 6.333 L 375.667 6.333 375.667 3.778 C 375.667 0.765,375.524 1.000,377.361 1.000 L 378.833 1.000 378.833 3.664 M174.278 14.845 C 180.004 15.483,183.225 18.033,184.263 22.750 C 184.625 24.396,184.816 36.157,184.519 38.580 C 183.840 44.131,181.491 46.815,176.250 48.027 C 174.293 48.480,152.245 48.731,149.417 48.333 C 143.896 47.556,141.204 45.690,139.802 41.667 L 139.250 40.083 139.250 31.583 L 139.250 23.083 139.702 21.750 C 141.119 17.576,144.059 15.466,149.333 14.839 C 151.051 14.635,172.440 14.640,174.278 14.845 M45.961 18.875 L 45.917 22.750 32.958 22.793 L 20.000 22.835 20.000 25.418 L 20.000 28.000 32.337 28.000 L 44.673 28.000 44.628 31.458 L 44.583 34.917 32.287 34.959 L 19.991 35.002 20.037 37.543 L 20.083 40.083 33.375 40.126 L 46.667 40.169 46.667 44.168 L 46.667 48.168 28.208 48.126 L 9.750 48.083 9.707 31.750 C 9.683 22.767,9.700 15.323,9.743 15.208 C 9.806 15.043,13.595 15.000,27.915 15.000 L 46.006 15.000 45.961 18.875 M59.333 25.227 C 59.333 37.803,59.374 38.064,61.542 39.265 L 62.417 39.750 69.601 39.798 C 78.477 39.858,78.849 39.777,79.948 37.538 L 80.417 36.583 80.500 25.833 L 80.583 15.083 85.715 15.039 L 90.848 14.995 90.794 27.206 L 90.740 39.417 90.294 40.833 C 89.036 44.828,86.640 47.008,82.390 48.025 C 80.755 48.416,80.719 48.417,69.833 48.417 L 58.917 48.417 57.222 47.968 C 52.927 46.831,50.637 44.642,49.481 40.568 C 49.111 39.267,49.105 39.096,49.044 27.125 L 48.982 15.000 54.158 15.000 L 59.333 15.000 59.333 25.227 M128.872 15.273 C 132.430 15.977,134.461 17.823,135.281 21.101 C 135.938 23.724,135.651 30.195,134.803 31.883 C 134.118 33.247,131.773 35.000,130.634 35.000 C 130.131 35.000,130.435 35.284,131.065 35.402 C 134.401 36.028,135.496 38.328,135.499 44.708 L 135.500 48.167 130.439 48.167 L 125.379 48.167 125.289 45.292 C 125.105 39.397,125.547 39.621,113.958 39.538 L 105.333 39.476 105.333 43.821 L 105.333 48.167 100.167 48.167 L 95.000 48.167 95.000 31.583 L 95.000 15.000 111.247 15.000 C 125.621 15.000,127.652 15.031,128.872 15.273 M203.583 22.794 C 203.760 22.924,203.949 23.297,205.839 27.250 C 206.496 28.625,207.411 30.537,207.872 31.500 C 208.332 32.462,209.102 34.075,209.583 35.083 C 210.064 36.092,210.879 37.797,211.395 38.874 C 211.911 39.950,212.333 40.869,212.333 40.915 C 212.333 40.962,211.367 41.000,210.186 41.000 L 208.038 41.000 207.190 39.250 L 206.341 37.500 201.496 37.500 L 196.651 37.500 195.833 39.250 L 195.016 41.000 192.841 41.000 C 191.645 41.000,190.667 40.960,190.667 40.912 C 190.667 40.863,191.079 39.955,191.583 38.894 C 192.088 37.834,192.500 36.942,192.500 36.913 C 192.500 36.884,192.940 35.936,193.478 34.805 C 194.779 32.073,195.613 30.298,196.165 29.083 C 196.415 28.533,196.921 27.446,197.289 26.667 C 197.657 25.887,198.229 24.669,198.559 23.958 L 199.161 22.667 201.289 22.669 C 202.459 22.671,203.492 22.727,203.583 22.794 M217.167 29.833 C 217.213 33.729,217.309 37.008,217.381 37.119 C 217.760 37.704,223.257 38.073,225.627 37.673 C 227.603 37.340,227.488 37.824,227.540 29.644 L 227.583 22.750 229.583 22.750 L 231.583 22.750 231.583 29.920 L 231.583 37.091 231.038 38.199 C 229.871 40.569,227.643 41.255,221.518 41.129 C 215.654 41.009,213.672 40.007,213.164 36.908 C 212.981 35.787,212.937 22.952,213.116 22.773 C 213.180 22.709,214.099 22.678,215.158 22.703 L 217.083 22.750 217.167 29.833 M249.551 23.240 C 251.405 24.180,252.093 25.438,252.197 28.083 L 252.250 29.417 250.208 29.463 L 248.167 29.510 248.157 28.547 C 248.133 26.072,247.948 25.977,243.250 26.037 C 237.703 26.109,237.916 25.881,237.919 31.744 C 237.922 37.941,237.853 37.868,243.583 37.791 C 248.297 37.727,248.435 37.645,248.480 34.875 L 248.500 33.667 250.500 33.667 L 252.500 33.667 252.500 35.387 C 252.500 40.079,250.884 41.083,243.333 41.083 C 238.359 41.083,237.492 40.927,235.949 39.749 C 234.032 38.285,233.797 37.332,233.865 31.301 C 233.954 23.479,234.934 22.663,244.167 22.722 L 248.583 22.750 249.551 23.240 M271.131 24.375 L 271.179 26.000 267.756 26.000 L 264.333 26.000 264.333 33.500 L 264.333 41.000 262.250 41.000 L 260.167 41.000 260.167 33.500 L 260.167 26.000 256.750 26.000 L 253.333 26.000 253.333 24.444 C 253.333 23.589,253.384 22.838,253.446 22.776 C 253.508 22.714,257.502 22.683,262.321 22.707 L 271.083 22.750 271.131 24.375 M276.793 31.880 L 276.836 41.010 274.793 40.963 L 272.750 40.917 272.707 32.000 C 272.683 27.096,272.700 22.987,272.745 22.870 C 272.807 22.709,273.312 22.668,274.788 22.703 L 276.750 22.750 276.793 31.880 M292.753 22.848 C 296.501 23.541,297.333 25.181,297.333 31.869 C 297.333 40.010,296.188 41.161,288.083 41.161 C 279.902 41.161,278.917 40.167,278.917 31.917 C 278.917 24.920,279.483 23.719,283.167 22.899 C 284.339 22.638,291.413 22.600,292.753 22.848 M309.747 29.534 L 315.083 36.319 315.167 29.534 L 315.250 22.750 317.204 22.703 C 319.618 22.645,319.353 21.443,319.296 32.167 L 319.250 40.917 316.631 40.963 L 314.011 41.008 310.731 36.879 C 308.926 34.608,306.992 32.176,306.433 31.474 C 305.874 30.773,304.968 29.629,304.419 28.933 C 303.870 28.236,303.364 27.667,303.294 27.667 C 303.224 27.667,303.167 30.667,303.167 34.333 L 303.167 41.000 301.167 41.000 L 299.167 41.000 299.167 31.944 C 299.167 26.964,299.219 22.837,299.282 22.774 C 299.345 22.710,300.525 22.679,301.904 22.704 L 304.410 22.750 309.747 29.534 M334.348 22.836 C 336.911 23.322,338.168 24.766,338.300 27.375 L 338.374 28.833 336.372 28.833 C 334.130 28.833,334.167 28.854,334.167 27.588 C 334.167 26.145,334.029 26.091,330.194 26.032 C 325.424 25.959,325.047 26.118,325.208 28.135 C 325.335 29.723,325.943 29.987,329.500 30.000 C 337.084 30.028,338.846 31.168,338.632 35.905 C 338.447 39.990,336.934 40.991,330.742 41.126 C 323.229 41.290,320.968 40.073,320.984 35.874 C 320.990 34.084,320.909 34.146,323.181 34.203 L 325.083 34.250 325.167 35.620 C 325.294 37.706,325.534 37.823,329.700 37.829 C 334.057 37.836,334.557 37.595,334.574 35.484 C 334.589 33.627,334.096 33.383,330.250 33.345 C 323.047 33.273,321.088 32.148,321.088 28.083 C 321.088 25.099,322.434 23.392,325.224 22.840 C 326.233 22.641,333.300 22.637,334.348 22.836 M154.538 23.339 C 152.238 23.581,151.065 24.307,150.272 25.982 L 149.750 27.083 149.750 31.667 C 149.750 37.449,149.987 38.293,151.890 39.296 L 152.750 39.750 161.479 39.797 C 174.248 39.867,174.000 40.024,174.000 31.849 C 174.000 23.454,173.563 23.148,161.667 23.191 C 158.412 23.202,155.205 23.269,154.538 23.339 M105.333 27.250 L 105.333 31.167 114.272 31.167 C 125.976 31.167,125.815 31.229,125.637 26.796 C 125.499 23.353,125.430 23.333,113.811 23.333 L 105.333 23.333 105.333 27.250 M284.083 26.152 C 283.106 26.568,283.088 26.662,283.030 31.476 C 282.950 38.087,282.678 37.750,288.083 37.750 C 293.356 37.750,293.166 37.964,293.165 32.000 C 293.164 25.710,293.482 26.096,288.275 26.047 C 286.153 26.026,284.267 26.074,284.083 26.152 M199.892 30.401 C 199.053 32.178,198.317 33.789,198.256 33.982 C 198.145 34.331,198.164 34.333,201.489 34.333 C 203.328 34.333,204.833 34.300,204.833 34.258 C 204.833 34.127,201.522 27.166,201.460 27.168 C 201.436 27.169,200.730 28.624,199.892 30.401 " stroke="none" fill="#fbfbfb" fill-rule="evenodd"></path><path id="path3" d="M375.870 3.708 L 375.833 6.333 267.375 6.375 L 158.917 6.417 158.917 7.833 L 158.917 9.250 267.333 9.333 L 375.750 9.417 375.834 31.583 L 375.918 53.750 375.959 31.722 C 375.982 19.607,375.954 9.575,375.899 9.430 C 375.807 9.190,366.091 9.167,267.399 9.167 L 159.000 9.167 159.000 7.833 L 159.000 6.500 267.422 6.500 C 355.969 6.500,375.859 6.460,375.927 6.284 C 375.972 6.166,375.986 4.947,375.958 3.576 L 375.907 1.083 375.870 3.708 M378.704 3.875 L 378.667 6.500 384.458 6.461 L 390.250 6.421 384.546 6.375 L 378.842 6.329 378.791 3.789 L 378.741 1.250 378.704 3.875 M378.744 9.375 C 378.700 9.490,378.684 19.558,378.707 31.750 L 378.750 53.917 384.458 53.920 L 390.167 53.923 384.500 53.876 L 378.833 53.829 378.833 31.583 L 378.833 9.338 384.542 9.292 L 390.250 9.245 384.536 9.206 C 380.090 9.175,378.805 9.213,378.744 9.375 M198.915 23.370 C 198.684 23.847,198.683 23.875,198.909 23.593 C 199.051 23.415,199.167 23.209,199.167 23.135 C 199.167 22.932,203.623 22.967,203.724 23.171 C 203.770 23.265,203.789 23.246,203.766 23.129 C 203.734 22.972,203.129 22.905,201.451 22.870 L 199.180 22.824 198.915 23.370 M214.956 22.958 L 216.829 23.011 216.875 29.380 L 216.921 35.750 216.960 29.292 L 217.000 22.833 215.042 22.869 L 213.083 22.905 214.956 22.958 M229.457 22.958 L 231.330 23.011 231.375 29.964 L 231.420 36.917 231.460 29.875 L 231.500 22.833 229.542 22.869 L 227.583 22.905 229.457 22.958 M239.294 22.951 C 239.501 22.991,239.801 22.990,239.960 22.948 C 240.120 22.906,239.950 22.874,239.583 22.875 C 239.217 22.877,239.086 22.911,239.294 22.951 M253.405 23.055 C 253.357 23.178,253.340 23.873,253.368 24.598 L 253.417 25.917 256.792 25.922 L 260.167 25.927 256.833 25.877 L 253.500 25.826 253.500 24.413 L 253.500 23.000 262.250 23.000 L 271.000 23.000 271.000 24.413 L 271.000 25.826 267.667 25.877 L 264.333 25.927 267.708 25.922 L 271.083 25.917 271.083 24.417 L 271.083 22.917 262.287 22.874 C 255.035 22.838,253.476 22.870,253.405 23.055 M274.625 22.958 L 276.500 23.011 276.500 31.916 L 276.500 40.822 274.750 40.878 L 272.999 40.934 274.791 40.926 L 276.583 40.917 276.626 31.875 L 276.670 22.833 274.710 22.869 L 272.750 22.905 274.625 22.958 M283.542 22.948 C 283.702 22.990,283.965 22.990,284.125 22.948 C 284.285 22.906,284.154 22.872,283.833 22.872 C 283.512 22.872,283.381 22.906,283.542 22.948 M291.847 22.895 C 291.885 22.929,292.292 23.001,292.750 23.054 C 293.312 23.118,293.448 23.104,293.167 23.008 C 292.750 22.867,291.716 22.778,291.847 22.895 M299.207 31.875 L 299.250 40.917 301.167 40.917 L 303.083 40.917 303.086 34.208 L 303.089 27.500 303.043 34.167 L 302.996 40.833 301.165 40.833 L 299.333 40.833 299.333 31.921 L 299.333 23.008 301.958 22.958 L 304.583 22.908 301.874 22.870 L 299.164 22.833 299.207 31.875 M315.243 23.043 C 315.198 23.158,315.183 25.914,315.208 29.168 L 315.254 35.083 315.294 29.042 L 315.333 23.000 317.167 23.000 L 319.000 23.000 319.000 31.912 L 319.000 40.824 316.583 40.877 L 314.166 40.931 316.625 40.924 L 319.083 40.917 319.126 31.875 L 319.170 22.833 317.246 22.833 C 315.857 22.833,315.301 22.891,315.243 23.043 M324.917 23.001 C 324.702 23.094,324.881 23.111,325.417 23.049 C 325.875 22.996,326.281 22.926,326.319 22.893 C 326.464 22.769,325.235 22.863,324.917 23.001 M333.542 22.948 C 333.702 22.990,333.965 22.990,334.125 22.948 C 334.285 22.906,334.154 22.872,333.833 22.872 C 333.512 22.872,333.381 22.906,333.542 22.948 M280.884 23.929 L 280.417 24.358 280.958 23.981 C 281.256 23.774,281.500 23.581,281.500 23.552 C 281.500 23.420,281.316 23.533,280.884 23.929 M336.014 23.548 C 336.052 23.575,336.383 23.805,336.750 24.060 L 337.417 24.524 336.840 24.012 C 336.522 23.730,336.191 23.500,336.104 23.500 C 336.016 23.500,335.976 23.522,336.014 23.548 M294.917 23.773 C 295.008 23.853,295.346 24.144,295.666 24.418 L 296.249 24.917 295.833 24.443 C 295.604 24.183,295.267 23.892,295.083 23.798 C 294.900 23.703,294.825 23.692,294.917 23.773 M235.324 24.625 L 234.750 25.250 235.375 24.676 C 235.957 24.141,236.077 24.000,235.949 24.000 C 235.922 24.000,235.640 24.281,235.324 24.625 M305.667 24.667 C 305.957 25.033,306.232 25.333,306.278 25.333 C 306.324 25.333,306.124 25.033,305.833 24.667 C 305.543 24.300,305.268 24.000,305.222 24.000 C 305.176 24.000,305.376 24.300,305.667 24.667 M251.273 24.917 C 251.658 25.575,251.667 25.585,251.667 25.380 C 251.667 25.283,251.512 25.027,251.323 24.810 L 250.980 24.417 251.273 24.917 M197.949 25.419 C 197.797 25.738,197.706 26.000,197.748 26.000 C 197.862 26.000,198.368 24.980,198.292 24.903 C 198.256 24.867,198.102 25.099,197.949 25.419 M234.232 26.268 C 234.094 26.599,234.011 26.900,234.048 26.936 C 234.084 26.973,234.233 26.703,234.377 26.335 C 234.704 25.504,234.576 25.445,234.232 26.268 M242.792 25.790 C 243.456 25.822,244.544 25.822,245.208 25.790 C 245.873 25.759,245.329 25.733,244.000 25.733 C 242.671 25.733,242.127 25.759,242.792 25.790 M286.708 25.791 C 287.510 25.821,288.823 25.821,289.625 25.791 C 290.427 25.760,289.771 25.735,288.167 25.735 C 286.563 25.735,285.906 25.760,286.708 25.791 M328.701 25.790 C 329.316 25.822,330.366 25.822,331.034 25.791 C 331.703 25.759,331.200 25.733,329.917 25.732 C 328.633 25.732,328.086 25.758,328.701 25.790 M205.014 25.917 C 205.014 26.008,205.158 26.346,205.333 26.667 C 205.509 26.988,205.653 27.175,205.653 27.083 C 205.653 26.992,205.509 26.654,205.333 26.333 C 205.158 26.012,205.014 25.825,205.014 25.917 M283.165 26.708 C 282.983 27.006,282.842 27.438,282.851 27.667 C 282.865 28.025,282.885 28.007,282.995 27.546 C 283.065 27.250,283.247 26.819,283.399 26.588 C 283.550 26.356,283.634 26.167,283.585 26.167 C 283.535 26.167,283.346 26.410,283.165 26.708 M238.287 26.625 C 237.736 27.234,237.666 27.833,237.701 31.636 L 237.736 35.417 237.826 31.417 C 237.919 27.323,237.991 26.883,238.627 26.512 C 238.786 26.419,238.835 26.341,238.734 26.338 C 238.634 26.336,238.433 26.465,238.287 26.625 M201.606 27.250 C 201.992 27.908,202.000 27.918,202.000 27.713 C 202.000 27.616,201.846 27.360,201.657 27.143 L 201.314 26.750 201.606 27.250 M321.224 28.083 C 321.224 28.817,321.254 29.096,321.289 28.704 C 321.324 28.312,321.324 27.712,321.288 27.371 C 321.252 27.029,321.223 27.350,321.224 28.083 M338.209 27.583 C 338.211 27.950,338.245 28.080,338.285 27.873 C 338.324 27.666,338.323 27.366,338.281 27.206 C 338.239 27.047,338.207 27.217,338.209 27.583 M252.032 28.208 L 252.000 29.333 250.175 29.333 L 248.351 29.333 248.286 28.499 L 248.221 27.665 248.236 28.541 L 248.250 29.417 250.128 29.464 C 252.279 29.518,252.217 29.562,252.124 28.065 L 252.063 27.083 252.032 28.208 M303.485 27.639 C 303.575 27.807,303.779 28.050,303.939 28.180 C 304.119 28.327,304.079 28.210,303.834 27.875 C 303.396 27.277,303.232 27.166,303.485 27.639 M233.906 31.750 C 233.905 34.042,233.929 35.002,233.958 33.885 C 233.987 32.767,233.987 30.892,233.958 29.718 C 233.929 28.544,233.906 29.458,233.906 31.750 M334.375 28.250 C 334.377 28.617,334.411 28.747,334.451 28.540 C 334.491 28.332,334.490 28.032,334.448 27.873 C 334.406 27.714,334.374 27.883,334.375 28.250 M202.512 29.083 C 202.512 29.175,202.619 29.438,202.750 29.667 C 202.881 29.896,202.988 30.008,202.988 29.917 C 202.988 29.825,202.881 29.563,202.750 29.333 C 202.619 29.104,202.512 28.992,202.512 29.083 M310.000 30.167 C 310.290 30.533,310.566 30.833,310.611 30.833 C 310.657 30.833,310.457 30.533,310.167 30.167 C 309.876 29.800,309.601 29.500,309.555 29.500 C 309.509 29.500,309.710 29.800,310.000 30.167 M207.116 30.415 C 207.268 30.734,207.423 30.966,207.459 30.930 C 207.535 30.854,207.029 29.833,206.915 29.833 C 206.873 29.833,206.963 30.095,207.116 30.415 M328.128 30.121 C 328.428 30.158,328.878 30.157,329.128 30.119 C 329.378 30.081,329.133 30.051,328.583 30.052 C 328.033 30.053,327.828 30.084,328.128 30.121 M331.796 30.289 C 332.188 30.324,332.788 30.324,333.129 30.288 C 333.471 30.252,333.150 30.223,332.417 30.224 C 331.683 30.224,331.404 30.254,331.796 30.289 M321.500 30.454 C 321.500 30.551,321.654 30.807,321.843 31.023 L 322.186 31.417 321.894 30.917 C 321.508 30.259,321.500 30.249,321.500 30.454 M334.042 30.448 C 334.202 30.490,334.465 30.490,334.625 30.448 C 334.785 30.406,334.654 30.372,334.333 30.372 C 334.012 30.372,333.881 30.406,334.042 30.448 M336.417 31.028 C 336.600 31.130,336.866 31.297,337.008 31.398 C 337.150 31.500,337.090 31.415,336.874 31.208 C 336.658 31.002,336.392 30.836,336.282 30.838 C 336.173 30.841,336.233 30.927,336.417 31.028 M199.027 31.757 C 198.748 32.370,198.801 32.501,199.103 31.944 C 199.244 31.683,199.328 31.439,199.290 31.401 C 199.252 31.363,199.134 31.523,199.027 31.757 M307.580 32.811 C 308.030 33.385,308.476 33.902,308.569 33.959 C 308.663 34.017,308.371 33.596,307.920 33.022 C 307.470 32.448,307.024 31.932,306.931 31.874 C 306.837 31.816,307.129 32.238,307.580 32.811 M337.925 32.584 C 338.149 33.026,338.378 33.432,338.434 33.486 C 338.647 33.691,337.973 32.238,337.751 32.015 C 337.623 31.886,337.702 32.142,337.925 32.584 M324.661 32.844 C 324.888 32.939,325.938 33.045,326.995 33.081 L 328.917 33.145 327.229 33.011 C 326.300 32.938,325.250 32.832,324.895 32.775 C 324.352 32.688,324.315 32.699,324.661 32.844 M329.960 33.285 C 330.168 33.324,330.468 33.323,330.627 33.281 C 330.786 33.239,330.617 33.207,330.250 33.209 C 329.883 33.211,329.753 33.245,329.960 33.285 M208.681 33.583 C 208.681 33.675,208.824 34.012,209.000 34.333 C 209.176 34.654,209.319 34.842,209.319 34.750 C 209.319 34.658,209.176 34.321,209.000 34.000 C 208.824 33.679,208.681 33.492,208.681 33.583 M334.246 33.798 C 334.456 34.050,334.604 34.585,334.684 35.381 L 334.806 36.583 334.772 35.374 C 334.744 34.331,334.683 34.114,334.334 33.791 L 333.929 33.417 334.246 33.798 M248.556 35.000 C 248.556 35.688,248.585 35.969,248.621 35.625 C 248.657 35.281,248.657 34.719,248.621 34.375 C 248.585 34.031,248.556 34.313,248.556 35.000 M252.365 35.167 C 252.346 35.854,252.294 36.717,252.251 37.083 L 252.172 37.750 252.342 37.083 C 252.436 36.717,252.487 35.854,252.456 35.167 L 252.400 33.917 252.365 35.167 M313.663 34.828 C 313.857 35.101,314.101 35.376,314.205 35.440 C 314.309 35.504,314.184 35.282,313.927 34.945 C 313.370 34.215,313.160 34.122,313.663 34.828 M338.553 35.500 C 338.553 36.096,338.584 36.340,338.621 36.042 C 338.658 35.744,338.658 35.256,338.621 34.958 C 338.584 34.660,338.553 34.904,338.553 35.500 M321.052 35.917 C 321.053 36.467,321.084 36.672,321.121 36.372 C 321.158 36.072,321.157 35.622,321.119 35.372 C 321.081 35.122,321.051 35.367,321.052 35.917 M315.212 35.833 C 315.212 36.246,315.245 36.415,315.284 36.208 C 315.324 36.002,315.324 35.665,315.284 35.458 C 315.245 35.252,315.212 35.421,315.212 35.833 M237.836 35.847 C 237.837 36.069,237.912 36.362,238.002 36.500 C 238.118 36.676,238.134 36.577,238.059 36.167 C 237.927 35.448,237.832 35.312,237.836 35.847 M282.920 36.325 C 283.001 36.876,283.563 37.667,283.872 37.667 C 283.952 37.667,283.830 37.498,283.600 37.292 C 283.370 37.085,283.104 36.654,283.008 36.333 L 282.834 35.750 282.920 36.325 M217.023 36.596 C 217.001 36.924,217.615 37.667,217.908 37.667 C 217.983 37.667,217.852 37.515,217.617 37.330 C 217.382 37.145,217.157 36.826,217.117 36.622 C 217.050 36.275,217.044 36.274,217.023 36.596 M293.000 36.646 C 293.000 36.758,292.808 37.040,292.574 37.275 C 292.339 37.509,292.241 37.670,292.355 37.632 C 292.656 37.531,293.248 36.693,293.114 36.558 C 293.051 36.496,293.000 36.535,293.000 36.646 M334.513 36.866 C 334.506 37.021,334.333 37.265,334.130 37.407 C 333.926 37.550,333.839 37.667,333.937 37.667 C 334.220 37.667,334.710 37.041,334.614 36.801 C 334.555 36.656,334.522 36.677,334.513 36.866 M279.238 37.417 C 279.304 37.692,279.429 37.990,279.516 38.080 C 279.604 38.169,279.588 37.982,279.480 37.663 C 279.227 36.917,279.085 36.772,279.238 37.417 M196.326 37.681 C 196.223 37.872,196.176 38.065,196.221 38.110 C 196.266 38.155,196.353 38.034,196.414 37.841 C 196.524 37.494,196.569 37.491,201.580 37.537 C 204.360 37.562,206.600 37.527,206.558 37.458 C 206.342 37.109,196.517 37.323,196.326 37.681 M210.514 37.417 C 210.514 37.508,210.658 37.846,210.833 38.167 C 211.009 38.487,211.153 38.675,211.153 38.583 C 211.153 38.492,211.009 38.154,210.833 37.833 C 210.658 37.512,210.514 37.325,210.514 37.417 M213.346 37.510 C 213.339 37.653,213.450 37.915,213.593 38.093 C 213.848 38.411,213.849 38.411,213.698 38.083 C 213.614 37.900,213.503 37.637,213.452 37.500 C 213.372 37.284,213.358 37.285,213.346 37.510 M337.971 38.341 C 337.817 38.703,337.721 39.000,337.758 39.000 C 337.880 39.000,338.354 37.980,338.302 37.830 C 338.273 37.749,338.124 37.979,337.971 38.341 M219.960 37.951 C 220.168 37.991,220.468 37.990,220.627 37.948 C 220.786 37.906,220.617 37.874,220.250 37.875 C 219.883 37.877,219.753 37.911,219.960 37.951 M224.375 37.948 C 224.535 37.990,224.798 37.990,224.958 37.948 C 225.119 37.906,224.987 37.872,224.667 37.872 C 224.346 37.872,224.215 37.906,224.375 37.948 M245.375 37.948 C 245.535 37.990,245.798 37.990,245.958 37.948 C 246.119 37.906,245.987 37.872,245.667 37.872 C 245.346 37.872,245.215 37.906,245.375 37.948 M327.042 37.948 C 327.202 37.990,327.465 37.990,327.625 37.948 C 327.785 37.906,327.654 37.872,327.333 37.872 C 327.012 37.872,326.881 37.906,327.042 37.948 M331.875 37.948 C 332.035 37.990,332.298 37.990,332.458 37.948 C 332.619 37.906,332.487 37.872,332.167 37.872 C 331.846 37.872,331.715 37.906,331.875 37.948 M191.780 38.591 C 191.388 39.412,191.443 39.552,191.853 38.776 C 192.039 38.424,192.161 38.106,192.125 38.070 C 192.089 38.034,191.934 38.268,191.780 38.591 M235.417 39.167 C 235.775 39.533,236.105 39.833,236.151 39.833 C 236.197 39.833,235.941 39.533,235.583 39.167 C 235.225 38.800,234.895 38.500,234.849 38.500 C 234.803 38.500,235.059 38.800,235.417 39.167 M295.658 39.292 L 295.083 39.917 295.708 39.342 C 296.290 38.808,296.410 38.667,296.283 38.667 C 296.255 38.667,295.974 38.948,295.658 39.292 M214.000 38.885 C 214.000 38.914,214.244 39.158,214.542 39.427 L 215.083 39.917 214.594 39.375 C 214.138 38.870,214.000 38.757,214.000 38.885 M215.167 39.915 C 215.167 40.029,216.187 40.535,216.263 40.459 C 216.300 40.423,216.068 40.268,215.748 40.116 C 215.428 39.963,215.167 39.873,215.167 39.915 M336.167 40.167 C 335.846 40.342,335.643 40.489,335.717 40.493 C 335.893 40.502,336.833 40.013,336.833 39.912 C 336.833 39.803,336.824 39.807,336.167 40.167 M294.167 40.250 C 293.938 40.381,293.825 40.488,293.917 40.488 C 294.008 40.488,294.271 40.381,294.500 40.250 C 294.729 40.119,294.842 40.012,294.750 40.012 C 294.658 40.012,294.396 40.119,294.167 40.250 M323.407 40.241 C 323.585 40.383,323.847 40.494,323.990 40.487 C 324.215 40.475,324.216 40.461,324.000 40.381 C 323.862 40.330,323.600 40.219,323.417 40.135 C 323.089 39.984,323.089 39.986,323.407 40.241 M190.929 40.445 C 190.742 40.932,191.069 41.013,193.014 40.958 L 194.917 40.905 192.947 40.869 C 191.061 40.835,190.982 40.819,191.083 40.500 C 191.211 40.098,191.080 40.051,190.929 40.445 M207.838 40.438 C 207.826 40.904,208.325 41.010,210.274 40.958 L 212.250 40.905 210.217 40.869 C 208.480 40.839,208.158 40.791,208.013 40.542 C 207.920 40.381,207.841 40.335,207.838 40.438 M218.625 40.951 C 218.831 40.991,219.169 40.991,219.375 40.951 C 219.581 40.911,219.412 40.879,219.000 40.879 C 218.588 40.879,218.419 40.911,218.625 40.951 M224.958 40.951 C 225.165 40.991,225.502 40.991,225.708 40.951 C 225.915 40.911,225.746 40.879,225.333 40.879 C 224.921 40.879,224.752 40.911,224.958 40.951 M246.627 40.951 C 246.834 40.991,247.134 40.990,247.294 40.948 C 247.453 40.906,247.283 40.874,246.917 40.875 C 246.550 40.877,246.420 40.911,246.627 40.951 M261.381 40.957 C 261.912 40.990,262.737 40.990,263.214 40.956 C 263.692 40.922,263.258 40.895,262.250 40.896 C 261.242 40.896,260.851 40.924,261.381 40.957 M284.375 40.948 C 284.535 40.990,284.798 40.990,284.958 40.948 C 285.119 40.906,284.987 40.872,284.667 40.872 C 284.346 40.872,284.215 40.906,284.375 40.948 M291.208 40.948 C 291.369 40.990,291.631 40.990,291.792 40.948 C 291.952 40.906,291.821 40.872,291.500 40.872 C 291.179 40.872,291.048 40.906,291.208 40.948 M326.292 40.951 C 326.498 40.991,326.835 40.991,327.042 40.951 C 327.248 40.911,327.079 40.879,326.667 40.879 C 326.254 40.879,326.085 40.911,326.292 40.951 M332.792 40.951 C 332.998 40.991,333.335 40.991,333.542 40.951 C 333.748 40.911,333.579 40.879,333.167 40.879 C 332.754 40.879,332.585 40.911,332.792 40.951 M58.904 54.056 C 58.857 54.178,58.844 54.909,58.876 55.681 L 58.932 57.083 58.966 55.542 L 59.000 54.000 217.458 53.958 L 375.917 53.916 217.453 53.875 C 85.510 53.840,58.975 53.871,58.904 54.056 M378.734 59.500 C 378.734 60.921,378.759 61.502,378.791 60.792 C 378.822 60.081,378.822 58.919,378.791 58.208 C 378.759 57.498,378.734 58.079,378.734 59.500 M375.910 59.750 L 375.917 62.250 377.250 62.260 L 378.583 62.270 377.296 62.212 L 376.009 62.153 375.956 59.702 L 375.902 57.250 375.910 59.750 " stroke="none" fill="#747474" fill-rule="evenodd"></path><path id="path4" d="M375.740 1.216 C 375.695 1.334,375.680 2.553,375.708 3.924 L 375.760 6.417 375.796 3.780 L 375.833 1.143 377.334 1.197 C 378.159 1.226,378.834 1.194,378.834 1.125 C 378.833 0.892,375.831 0.980,375.740 1.216 M390.225 7.833 C 390.225 8.612,390.254 8.931,390.289 8.542 C 390.324 8.152,390.324 7.515,390.289 7.125 C 390.254 6.735,390.225 7.054,390.225 7.833 M158.942 9.375 C 158.985 9.444,207.765 9.500,267.343 9.500 L 375.667 9.500 375.667 31.583 L 375.667 53.667 217.343 53.667 C 130.265 53.667,58.985 53.723,58.942 53.792 C 58.900 53.860,130.183 53.898,217.350 53.875 L 375.835 53.833 375.792 31.625 L 375.750 9.417 267.308 9.333 C 207.664 9.287,158.900 9.306,158.942 9.375 M381.625 9.458 C 383.206 9.485,385.794 9.485,387.375 9.458 C 388.956 9.431,387.662 9.408,384.500 9.408 C 381.337 9.408,380.044 9.431,381.625 9.458 M150.542 14.782 C 150.702 14.823,150.965 14.823,151.125 14.782 C 151.285 14.740,151.154 14.705,150.833 14.705 C 150.512 14.705,150.381 14.740,150.542 14.782 M148.250 15.009 C 147.921 15.098,148.092 15.112,148.750 15.051 C 149.300 15.000,149.781 14.930,149.819 14.896 C 149.943 14.784,148.764 14.869,148.250 15.009 M174.127 14.951 C 174.334 14.991,174.634 14.990,174.794 14.948 C 174.953 14.906,174.783 14.874,174.417 14.875 C 174.050 14.877,173.920 14.911,174.127 14.951 M9.743 15.208 C 9.700 15.323,9.683 22.767,9.707 31.750 L 9.750 48.083 28.208 48.126 L 46.667 48.168 46.628 44.126 L 46.590 40.083 46.542 44.042 L 46.494 48.000 28.164 48.000 L 9.833 48.000 9.833 31.584 L 9.833 15.168 27.958 15.125 L 46.083 15.082 27.953 15.041 C 13.572 15.008,9.806 15.043,9.743 15.208 M49.040 26.542 L 49.081 38.083 49.125 26.625 L 49.169 15.167 54.167 15.167 L 59.164 15.167 59.208 25.208 L 59.253 35.250 59.293 25.125 L 59.333 15.000 54.167 15.000 L 49.000 15.000 49.040 26.542 M80.577 15.208 C 80.533 15.323,80.517 19.879,80.541 25.333 L 80.586 35.250 80.626 25.208 L 80.667 15.167 85.675 15.167 L 90.683 15.167 90.633 27.458 C 90.606 34.219,90.634 39.412,90.696 39.000 C 90.758 38.587,90.814 33.019,90.821 26.625 L 90.833 15.000 85.745 15.000 C 81.828 15.000,80.638 15.048,80.577 15.208 M103.221 15.125 C 107.788 15.150,115.213 15.150,119.721 15.125 C 124.229 15.100,120.492 15.080,111.417 15.080 C 102.342 15.080,98.654 15.100,103.221 15.125 M145.042 15.839 C 144.484 16.063,144.588 16.177,145.167 15.975 C 145.442 15.879,145.667 15.771,145.667 15.734 C 145.667 15.635,145.464 15.669,145.042 15.839 M132.000 16.451 C 132.229 16.615,132.792 17.084,133.250 17.493 L 134.083 18.238 133.376 17.489 C 132.988 17.077,132.425 16.608,132.126 16.446 C 131.602 16.162,131.598 16.162,132.000 16.451 M181.750 18.000 C 182.108 18.367,182.438 18.667,182.484 18.667 C 182.530 18.667,182.275 18.367,181.917 18.000 C 181.559 17.633,181.228 17.333,181.182 17.333 C 181.137 17.333,181.392 17.633,181.750 18.000 M134.762 19.833 C 134.824 20.063,134.943 20.362,135.028 20.500 C 135.135 20.674,135.149 20.623,135.071 20.333 C 135.010 20.104,134.890 19.804,134.805 19.667 C 134.698 19.493,134.685 19.544,134.762 19.833 M139.417 22.833 C 139.353 23.212,139.335 23.557,139.378 23.600 C 139.421 23.643,139.506 23.365,139.567 22.983 C 139.628 22.601,139.645 22.256,139.605 22.217 C 139.566 22.177,139.481 22.454,139.417 22.833 M19.907 22.883 C 19.861 23.001,19.847 24.183,19.875 25.508 L 19.927 27.917 19.963 25.376 L 20.000 22.835 32.958 22.792 L 45.917 22.748 32.953 22.707 C 22.462 22.674,19.974 22.708,19.907 22.883 M199.109 22.792 C 199.066 22.860,199.718 22.897,200.557 22.872 C 203.314 22.792,203.619 22.727,201.385 22.697 C 200.176 22.680,199.151 22.723,199.109 22.792 M213.078 22.870 C 213.033 22.988,213.017 26.084,213.042 29.750 L 213.087 36.417 213.127 29.625 L 213.167 22.833 215.081 22.833 L 216.996 22.833 217.043 29.542 L 217.089 36.250 217.086 29.500 L 217.083 22.750 215.122 22.703 C 213.644 22.668,213.140 22.709,213.078 22.870 M227.578 22.870 C 227.533 22.988,227.517 26.009,227.542 29.584 L 227.587 36.083 227.627 29.458 L 227.667 22.833 229.582 22.833 L 231.496 22.833 231.543 29.708 L 231.589 36.583 231.586 29.667 L 231.583 22.750 229.622 22.703 C 228.144 22.668,227.640 22.709,227.578 22.870 M253.442 22.792 C 253.400 22.860,257.363 22.917,262.250 22.917 C 267.137 22.917,271.100 22.860,271.058 22.792 C 271.015 22.723,267.052 22.667,262.250 22.667 C 257.448 22.667,253.485 22.723,253.442 22.792 M272.783 22.773 C 272.625 22.930,272.634 40.793,272.792 40.891 C 272.860 40.933,272.897 36.888,272.872 31.901 L 272.828 22.833 274.750 22.833 L 276.672 22.833 276.628 31.917 C 276.603 36.913,276.640 41.000,276.710 41.000 C 276.779 41.000,276.817 36.894,276.793 31.875 L 276.750 22.750 274.824 22.703 C 273.765 22.678,272.847 22.709,272.783 22.773 M300.542 22.791 C 301.252 22.822,302.415 22.822,303.125 22.791 C 303.835 22.759,303.254 22.734,301.833 22.734 C 300.412 22.734,299.831 22.759,300.542 22.791 M315.275 22.792 C 315.232 22.860,315.809 22.896,316.557 22.872 C 319.007 22.791,319.284 22.725,317.302 22.696 C 316.230 22.680,315.318 22.723,315.275 22.792 M319.167 31.950 C 319.121 36.918,319.140 40.927,319.210 40.857 C 319.279 40.787,319.317 36.722,319.293 31.824 L 319.250 22.917 319.167 31.950 M135.569 26.000 C 135.569 27.604,135.594 28.260,135.624 27.458 C 135.655 26.656,135.655 25.344,135.624 24.542 C 135.594 23.740,135.569 24.396,135.569 26.000 M154.794 23.285 C 155.001 23.324,155.301 23.323,155.460 23.281 C 155.620 23.239,155.450 23.207,155.083 23.209 C 154.717 23.211,154.586 23.245,154.794 23.285 M168.375 23.282 C 168.535 23.323,168.798 23.323,168.958 23.282 C 169.119 23.240,168.987 23.205,168.667 23.205 C 168.346 23.205,168.215 23.240,168.375 23.282 M105.245 27.292 L 105.250 31.250 114.292 31.252 L 123.333 31.254 114.336 31.209 L 105.339 31.164 105.290 27.248 L 105.241 23.333 105.245 27.292 M184.372 24.167 C 184.372 24.488,184.406 24.619,184.448 24.458 C 184.490 24.298,184.490 24.035,184.448 23.875 C 184.406 23.715,184.372 23.846,184.372 24.167 M250.833 24.250 C 251.144 24.571,251.436 24.833,251.482 24.833 C 251.528 24.833,251.311 24.571,251.000 24.250 C 250.689 23.929,250.397 23.667,250.351 23.667 C 250.305 23.667,250.522 23.929,250.833 24.250 M322.269 24.334 C 321.938 24.701,321.667 25.053,321.667 25.117 C 321.667 25.181,321.723 25.162,321.792 25.075 C 321.861 24.988,322.176 24.635,322.491 24.292 C 322.807 23.948,323.022 23.667,322.969 23.667 C 322.916 23.667,322.601 23.967,322.269 24.334 M280.240 24.375 L 279.750 24.917 280.292 24.427 C 280.797 23.971,280.910 23.833,280.781 23.833 C 280.752 23.833,280.509 24.077,280.240 24.375 M172.167 24.219 C 172.167 24.248,172.410 24.491,172.708 24.760 L 173.250 25.250 172.760 24.708 C 172.304 24.203,172.167 24.090,172.167 24.219 M150.242 25.682 C 150.095 25.966,150.005 26.227,150.041 26.263 C 150.077 26.300,150.232 26.068,150.384 25.748 C 150.727 25.029,150.608 24.974,150.242 25.682 M184.576 31.667 C 184.576 35.196,184.598 36.640,184.625 34.875 C 184.652 33.110,184.652 30.223,184.625 28.458 C 184.598 26.694,184.576 28.137,184.576 31.667 M242.383 25.958 C 243.190 25.988,244.465 25.988,245.217 25.957 C 245.968 25.926,245.308 25.901,243.750 25.902 C 242.192 25.902,241.577 25.927,242.383 25.958 M286.550 25.958 C 287.449 25.988,288.874 25.988,289.717 25.957 C 290.560 25.927,289.825 25.903,288.083 25.903 C 286.342 25.903,285.652 25.928,286.550 25.958 M328.458 25.957 C 329.215 25.988,330.452 25.988,331.208 25.957 C 331.965 25.926,331.346 25.901,329.833 25.901 C 328.321 25.901,327.702 25.926,328.458 25.957 M260.204 33.458 C 260.183 37.606,260.223 41.000,260.292 41.000 C 260.405 41.000,260.403 35.401,260.287 28.583 C 260.262 27.117,260.224 29.310,260.204 33.458 M264.128 33.500 C 264.104 37.625,264.140 41.000,264.208 41.000 C 264.277 41.000,264.333 37.625,264.333 33.500 C 264.333 29.375,264.297 26.000,264.253 26.000 C 264.209 26.000,264.153 29.375,264.128 33.500 M173.771 26.667 C 173.834 26.896,173.936 29.033,173.999 31.417 L 174.114 35.750 174.092 31.417 C 174.076 28.351,174.009 26.961,173.863 26.667 L 173.657 26.250 173.771 26.667 M321.052 28.083 C 321.053 28.633,321.084 28.838,321.121 28.539 C 321.158 28.239,321.157 27.789,321.119 27.539 C 321.081 27.288,321.051 27.533,321.052 28.083 M325.042 27.750 C 325.044 28.117,325.078 28.247,325.118 28.040 C 325.158 27.832,325.156 27.532,325.115 27.373 C 325.073 27.214,325.040 27.383,325.042 27.750 M334.209 27.917 C 334.211 28.283,334.245 28.414,334.285 28.206 C 334.324 27.999,334.323 27.699,334.281 27.540 C 334.239 27.380,334.207 27.550,334.209 27.917 M278.906 31.917 C 278.906 34.300,278.929 35.252,278.958 34.032 C 278.986 32.812,278.986 30.862,278.958 29.698 C 278.929 28.535,278.906 29.533,278.906 31.917 M297.239 31.917 C 297.239 34.300,297.263 35.252,297.291 34.032 C 297.320 32.812,297.320 30.862,297.291 29.698 C 297.263 28.535,297.239 29.533,297.239 31.917 M44.538 31.374 L 44.500 34.831 32.208 34.874 L 19.917 34.917 19.870 37.404 C 19.845 38.772,19.882 39.949,19.954 40.021 C 20.025 40.092,20.061 38.992,20.034 37.575 L 19.984 35.000 32.247 35.000 C 42.048 35.000,44.527 34.957,44.592 34.787 C 44.637 34.670,44.652 33.076,44.625 31.245 L 44.576 27.917 44.538 31.374 M200.694 28.424 C 200.414 29.037,200.468 29.167,200.770 28.610 C 200.911 28.350,200.995 28.106,200.957 28.068 C 200.919 28.030,200.800 28.190,200.694 28.424 M282.905 31.917 C 282.905 34.117,282.929 34.994,282.958 33.865 C 282.987 32.737,282.987 30.937,282.958 29.865 C 282.929 28.794,282.905 29.717,282.905 31.917 M293.239 31.917 C 293.239 34.117,293.262 34.994,293.291 33.865 C 293.320 32.737,293.320 30.937,293.291 29.865 C 293.262 28.794,293.238 29.717,293.239 31.917 M252.159 28.787 C 252.113 29.175,252.139 29.428,252.216 29.350 C 252.294 29.273,252.332 28.956,252.300 28.646 C 252.243 28.097,252.240 28.101,252.159 28.787 M330.213 30.123 C 330.652 30.157,331.327 30.157,331.713 30.122 C 332.100 30.087,331.742 30.059,330.917 30.059 C 330.092 30.060,329.775 30.088,330.213 30.123 M134.860 31.424 C 134.581 32.037,134.634 32.167,134.936 31.610 C 135.077 31.350,135.162 31.106,135.123 31.068 C 135.085 31.030,134.967 31.190,134.860 31.424 M337.333 31.583 C 337.644 31.904,337.936 32.167,337.982 32.167 C 338.028 32.167,337.811 31.904,337.500 31.583 C 337.189 31.262,336.897 31.000,336.851 31.000 C 336.805 31.000,337.022 31.262,337.333 31.583 M133.417 33.448 C 132.958 33.870,132.808 34.061,133.083 33.874 C 133.552 33.554,134.476 32.658,134.321 32.674 C 134.282 32.678,133.875 33.027,133.417 33.448 M328.295 33.287 C 328.594 33.325,329.044 33.324,329.295 33.286 C 329.545 33.248,329.300 33.217,328.750 33.218 C 328.200 33.219,327.995 33.250,328.295 33.287 M193.742 34.182 C 193.595 34.466,193.505 34.727,193.541 34.763 C 193.577 34.800,193.732 34.568,193.884 34.248 C 194.227 33.529,194.108 33.474,193.742 34.182 M249.083 33.776 C 250.683 33.898,252.501 33.907,252.500 33.792 C 252.500 33.723,251.581 33.680,250.458 33.696 C 249.335 33.712,248.717 33.748,249.083 33.776 M321.064 34.406 C 321.012 34.543,321.007 34.752,321.054 34.870 C 321.102 34.987,321.146 34.915,321.154 34.708 C 321.166 34.342,321.211 34.333,323.076 34.333 L 324.985 34.333 325.047 35.458 L 325.110 36.583 325.097 35.417 L 325.083 34.250 323.122 34.203 C 321.503 34.164,321.144 34.200,321.064 34.406 M131.000 34.750 C 130.679 34.874,130.529 34.977,130.667 34.980 C 130.804 34.983,131.142 34.882,131.417 34.756 C 132.060 34.461,131.761 34.457,131.000 34.750 M237.872 35.000 C 237.872 35.321,237.906 35.452,237.948 35.292 C 237.990 35.131,237.990 34.869,237.948 34.708 C 237.906 34.548,237.872 34.679,237.872 35.000 M173.771 36.521 C 173.632 37.216,173.767 37.350,173.917 36.667 C 173.980 36.379,173.997 36.108,173.955 36.066 C 173.912 36.023,173.829 36.228,173.771 36.521 M133.666 36.917 C 133.987 37.283,134.315 37.658,134.395 37.750 C 134.475 37.842,134.463 37.767,134.368 37.583 C 134.273 37.400,133.945 37.025,133.639 36.750 L 133.083 36.251 133.666 36.917 M325.167 36.980 C 325.167 37.143,325.815 37.749,325.884 37.652 C 325.911 37.614,325.761 37.417,325.550 37.214 C 325.339 37.011,325.167 36.906,325.167 36.980 M79.789 37.876 L 79.495 38.417 79.831 38.023 C 80.117 37.688,80.269 37.331,80.125 37.334 C 80.102 37.335,79.951 37.579,79.789 37.876 M239.333 37.659 C 239.471 37.752,239.727 37.829,239.903 37.831 C 240.329 37.834,240.196 37.739,239.583 37.602 C 239.218 37.520,239.151 37.536,239.333 37.659 M218.960 37.785 C 219.168 37.824,219.468 37.823,219.627 37.781 C 219.786 37.739,219.617 37.707,219.250 37.709 C 218.883 37.711,218.753 37.745,218.960 37.785 M221.625 37.956 C 222.106 37.990,222.894 37.990,223.375 37.956 C 223.856 37.923,223.463 37.895,222.500 37.895 C 221.537 37.895,221.144 37.923,221.625 37.956 M241.701 37.957 C 242.316 37.989,243.366 37.989,244.034 37.957 C 244.703 37.926,244.200 37.899,242.917 37.899 C 241.633 37.899,241.086 37.925,241.701 37.957 M286.868 37.957 C 287.482 37.989,288.532 37.989,289.201 37.957 C 289.870 37.926,289.367 37.899,288.083 37.899 C 286.800 37.899,286.253 37.925,286.868 37.957 M328.798 37.957 C 329.375 37.990,330.275 37.989,330.798 37.956 C 331.322 37.923,330.850 37.897,329.750 37.897 C 328.650 37.897,328.222 37.924,328.798 37.957 M49.212 38.833 C 49.212 39.246,49.245 39.415,49.284 39.208 C 49.324 39.002,49.324 38.665,49.284 38.458 C 49.245 38.252,49.212 38.421,49.212 38.833 M184.375 38.917 C 184.377 39.283,184.411 39.414,184.451 39.206 C 184.491 38.999,184.490 38.699,184.448 38.540 C 184.406 38.380,184.374 38.550,184.375 38.917 M60.925 39.014 C 61.040 39.199,62.007 39.716,62.087 39.635 C 62.118 39.604,61.848 39.417,61.486 39.219 C 61.125 39.021,60.873 38.929,60.925 39.014 M78.083 39.342 C 77.717 39.516,77.514 39.660,77.633 39.662 C 77.876 39.667,78.833 39.202,78.833 39.079 C 78.833 38.982,78.883 38.964,78.083 39.342 M151.333 39.082 C 151.333 39.196,152.354 39.702,152.430 39.625 C 152.466 39.589,152.234 39.435,151.915 39.283 C 151.595 39.130,151.333 39.040,151.333 39.082 M251.073 39.542 L 250.583 40.083 251.125 39.594 C 251.630 39.138,251.743 39.000,251.615 39.000 C 251.586 39.000,251.342 39.244,251.073 39.542 M121.542 39.615 C 121.702 39.657,121.965 39.657,122.125 39.615 C 122.285 39.573,122.154 39.539,121.833 39.539 C 121.513 39.539,121.381 39.573,121.542 39.615 M139.370 39.833 C 139.368 40.063,139.427 40.438,139.500 40.667 C 139.679 41.227,139.679 40.622,139.500 39.917 C 139.386 39.468,139.372 39.459,139.370 39.833 M105.167 43.831 L 105.167 47.995 100.042 48.042 L 94.917 48.088 100.125 48.127 L 105.333 48.167 105.333 43.917 C 105.333 41.579,105.296 39.667,105.250 39.667 C 105.204 39.667,105.167 41.541,105.167 43.831 M66.708 39.958 C 68.519 39.985,71.481 39.985,73.292 39.958 C 75.102 39.931,73.621 39.909,70.000 39.909 C 66.379 39.909,64.898 39.931,66.708 39.958 M157.780 39.958 C 159.997 39.984,163.672 39.984,165.947 39.958 C 168.222 39.932,166.408 39.911,161.917 39.911 C 157.425 39.910,155.564 39.932,157.780 39.958 M195.083 40.500 C 194.941 40.775,194.862 41.000,194.908 41.000 C 194.954 41.000,195.108 40.775,195.250 40.500 C 195.392 40.225,195.471 40.000,195.425 40.000 C 195.379 40.000,195.226 40.225,195.083 40.500 M135.333 44.414 L 135.333 47.995 130.292 48.042 L 125.250 48.088 130.375 48.128 L 135.500 48.167 135.500 44.500 C 135.500 42.483,135.462 40.833,135.417 40.833 C 135.371 40.833,135.333 42.445,135.333 44.414 M219.125 41.118 C 219.331 41.157,219.669 41.157,219.875 41.118 C 220.081 41.078,219.912 41.045,219.500 41.045 C 219.088 41.045,218.919 41.078,219.125 41.118 M221.625 41.124 C 222.381 41.155,223.619 41.155,224.375 41.124 C 225.131 41.093,224.512 41.068,223.000 41.068 C 221.487 41.068,220.869 41.093,221.625 41.124 M241.550 41.124 C 242.356 41.155,243.631 41.155,244.383 41.124 C 245.135 41.093,244.475 41.068,242.917 41.068 C 241.358 41.068,240.743 41.094,241.550 41.124 M246.125 41.118 C 246.331 41.157,246.669 41.157,246.875 41.118 C 247.081 41.078,246.912 41.045,246.500 41.045 C 246.088 41.045,245.919 41.078,246.125 41.118 M285.792 41.124 C 286.548 41.155,287.785 41.155,288.542 41.124 C 289.298 41.093,288.679 41.068,287.167 41.068 C 285.654 41.068,285.035 41.093,285.792 41.124 M290.375 41.119 C 290.627 41.158,291.040 41.158,291.292 41.119 C 291.544 41.081,291.337 41.050,290.833 41.050 C 290.329 41.050,290.123 41.081,290.375 41.119 M326.792 41.118 C 326.998 41.157,327.335 41.157,327.542 41.118 C 327.748 41.078,327.579 41.045,327.167 41.045 C 326.754 41.045,326.585 41.078,326.792 41.118 M329.049 41.124 C 329.671 41.156,330.646 41.156,331.215 41.123 C 331.784 41.091,331.275 41.064,330.083 41.065 C 328.892 41.065,328.426 41.092,329.049 41.124 M332.542 41.115 C 332.702 41.157,332.965 41.157,333.125 41.115 C 333.285 41.073,333.154 41.039,332.833 41.039 C 332.512 41.039,332.381 41.073,332.542 41.115 M49.845 41.750 C 49.845 41.842,49.952 42.104,50.083 42.333 C 50.214 42.563,50.322 42.675,50.322 42.583 C 50.322 42.492,50.214 42.229,50.083 42.000 C 49.952 41.771,49.845 41.658,49.845 41.750 M183.631 42.088 C 183.580 42.269,183.487 42.567,183.425 42.750 C 183.363 42.933,183.434 42.873,183.583 42.615 C 183.732 42.357,183.825 42.059,183.790 41.953 C 183.754 41.846,183.683 41.907,183.631 42.088 M125.209 42.917 C 125.211 43.283,125.245 43.414,125.285 43.206 C 125.324 42.999,125.323 42.699,125.281 42.540 C 125.239 42.380,125.207 42.550,125.209 42.917 M141.290 44.583 C 141.479 44.858,141.846 45.271,142.104 45.500 C 142.416 45.777,142.358 45.665,141.930 45.167 C 141.057 44.149,140.881 43.989,141.290 44.583 M87.417 45.453 C 86.867 45.968,86.642 46.234,86.917 46.043 C 87.396 45.710,88.645 44.492,88.491 44.508 C 88.450 44.512,87.967 44.937,87.417 45.453 M52.000 45.250 C 52.311 45.571,52.603 45.833,52.649 45.833 C 52.695 45.833,52.478 45.571,52.167 45.250 C 51.856 44.929,51.564 44.667,51.518 44.667 C 51.472 44.667,51.689 44.929,52.000 45.250 M181.575 45.375 L 180.917 46.083 181.625 45.425 C 182.015 45.062,182.333 44.743,182.333 44.716 C 182.333 44.590,182.188 44.716,181.575 45.375 M55.000 47.236 C 55.229 47.358,55.604 47.505,55.833 47.562 C 56.063 47.619,55.950 47.522,55.583 47.345 C 54.829 46.983,54.362 46.895,55.000 47.236 M84.250 47.345 C 83.883 47.522,83.771 47.619,84.000 47.562 C 84.472 47.445,85.338 47.010,85.083 47.019 C 84.992 47.022,84.617 47.169,84.250 47.345 M59.167 48.343 C 59.917 48.475,62.451 48.553,62.319 48.440 C 62.281 48.407,61.387 48.342,60.333 48.295 C 59.135 48.242,58.698 48.260,59.167 48.343 M80.542 48.282 C 80.702 48.323,80.965 48.323,81.125 48.282 C 81.285 48.240,81.154 48.205,80.833 48.205 C 80.512 48.205,80.381 48.240,80.542 48.282 M149.500 48.346 C 150.252 48.476,153.283 48.553,153.153 48.439 C 153.115 48.406,152.108 48.342,150.917 48.298 C 149.636 48.250,149.057 48.270,149.500 48.346 M174.127 48.285 C 174.334 48.324,174.634 48.323,174.794 48.281 C 174.953 48.239,174.783 48.207,174.417 48.209 C 174.050 48.211,173.920 48.245,174.127 48.285 M78.125 48.455 C 78.515 48.490,79.152 48.490,79.542 48.455 C 79.931 48.420,79.612 48.392,78.833 48.392 C 78.054 48.392,77.735 48.420,78.125 48.455 M171.297 48.456 C 171.782 48.490,172.532 48.490,172.964 48.456 C 173.396 48.421,173.000 48.394,172.083 48.394 C 171.167 48.395,170.813 48.423,171.297 48.456 M381.625 53.791 C 383.206 53.819,385.794 53.819,387.375 53.791 C 388.956 53.764,387.662 53.742,384.500 53.742 C 381.337 53.742,380.044 53.764,381.625 53.791 M390.201 55.456 L 390.167 56.996 384.458 57.042 L 378.750 57.088 384.464 57.127 C 389.099 57.159,390.193 57.125,390.262 56.944 C 390.309 56.822,390.322 56.091,390.291 55.319 L 390.235 53.917 390.201 55.456 M217.292 57.125 L 375.667 57.167 375.667 59.657 C 375.667 61.026,375.723 62.182,375.792 62.225 C 375.860 62.267,375.879 61.128,375.833 59.693 L 375.750 57.083 217.333 57.083 L 58.917 57.083 217.292 57.125 " stroke="none" fill="#aaaaaa" fill-rule="evenodd"></path></g></svg>