<?xml version="1.0" encoding="utf-8"?>
<!-- Generator: Adobe Illustrator 24.0.2, SVG Export Plug-In . SVG Version: 6.00 Build 0)  -->
<svg version="1.1" id="logo" xmlns="http://www.w3.org/2000/svg" xmlns:xlink="http://www.w3.org/1999/xlink" x="0px" y="0px"
	 viewBox="0 0 112 70" style="enable-background:new 0 0 112 70;" xml:space="preserve">
<style type="text/css">
	.st0{fill:#1A4885;}
	.st1{fill:#C7312E;}
</style>
<g>
	<path class="st0" d="M95.6,43.2c0,0.8-0.4,1.5-1.5,1.5c-1.1,0-1.5-0.7-1.5-1.5c0-0.8,0.4-1.5,1.5-1.5
		C95.2,41.7,95.6,42.4,95.6,43.2 M95.3,43.2c0-0.7-0.3-1.3-1.2-1.3c-0.9,0-1.2,0.6-1.2,1.3c0,0.7,0.3,1.3,1.2,1.3
		C95.1,44.5,95.3,43.9,95.3,43.2 M94.6,43.5l0.3,0.6h-0.4l-0.3-0.6h-0.4v0.6h-0.4v-1.7h0.7c0.5,0,0.8,0.1,0.8,0.6
		C94.9,43.2,94.8,43.4,94.6,43.5 M93.9,43.2l0.3,0c0.2,0,0.4,0,0.4-0.3c0-0.3-0.2-0.3-0.4-0.3h-0.3V43.2z"/>
	<polygon class="st0" points="68.6,23.1 73.7,21 73.7,44.3 68.6,44.3 	"/>
	<path class="st0" d="M86.7,39.5c-0.3,0.9-1.1,1.7-3,1.7c-2.1,0-2.9-1.1-3.1-4.1h11.4c0-6.7-2.1-9.9-8.3-9.9c-6.3,0-8.3,3.3-8.3,8.9
		c0,5.6,2,8.8,8.3,8.8c4.5,0,6.8-1.7,7.7-3.7L86.7,39.5z M83.8,30.5c1.8,0,2.7,0.9,3.1,3.4h-6.1C81,31.5,81.9,30.5,83.8,30.5"/>
	<polygon class="st0" points="25.3,26.7 25.3,31.6 32.3,31.6 30.8,35.9 25.3,35.9 25.3,44.3 20.1,44.3 20.1,22.2 35.5,22.2 34,26.7 
			"/>
	<path class="st0" d="M33.5,35.9c0-5.4,2.1-8.9,8.5-8.9c6.3,0,8.5,3.4,8.5,8.9c0,5.4-2.1,8.8-8.5,8.8C35.6,44.7,33.5,41.3,33.5,35.9
		 M45.2,35.9c0-3.5-0.8-5-3.3-5c-2.4,0-3.3,1.4-3.3,5c0,3.6,0.8,4.9,3.3,4.9C44.4,40.9,45.2,39.5,45.2,35.9"/>
	<polygon class="st0" points="62.1,27.5 58.7,38 55.8,27.5 50.4,27.5 56.4,45.3 54.5,51.1 59,51.1 67.2,27.5 	"/>
	<path class="st1" d="M38.7,58.4c-16.6-4-28.6-10.6-34.5-18.1c-0.2,2.8,0.2,5.5,1.1,8.1c3,8.2,11.8,15,25.5,18.3L38.7,58.4z"/>
	<path class="st1" d="M73.4,11.7C90,15.8,102,22.4,107.9,29.9c0.2-2.8-0.2-5.5-1.1-8.1c-3-8.2-11.7-15.1-25.5-18.4L73.4,11.7z"/>
	<path class="st0" d="M42.6,69.1c21.7-0.8,44.2-9.1,56.6-22.2c5.4-5.7,8.2-11.5,8.6-17.1c0.2-2.8-0.1-5.5-1.1-8.1l4.3,13.7
		c2.1,5.8,0.7,12-4.8,17.8C94.7,65.4,66,72.6,42.6,69.1"/>
	<path class="st0" d="M69.3,0.8c-21.7,0.8-44.2,9.2-56.5,22.4c-5.3,5.7-8.1,11.6-8.6,17.1c-0.2,2.8,0.2,5.5,1.1,8.1L0.9,34.7
		c-2.1-5.8-0.7-12,4.7-17.8C17.2,4.7,45.9-2.5,69.3,0.8"/>
</g>
</svg>
