<?xml version="1.0" standalone="no"?>
<!DOCTYPE svg PUBLIC "-//W3C//DTD SVG 20010904//EN"
 "http://www.w3.org/TR/2001/REC-SVG-20010904/DTD/svg10.dtd">
<svg version="1.0" xmlns="http://www.w3.org/2000/svg"
 width="145.000000pt" height="145.000000pt" viewBox="0 0 145.000000 145.000000"
 preserveAspectRatio="xMidYMid meet">

<g transform="translate(0.000000,145.000000) scale(0.100000,-0.100000)"
fill="#e42b2a" stroke="none">
<path d="M0 725 l0 -725 725 0 725 0 0 725 0 725 -725 0 -725 0 0 -725z m898
546 c186 -64 323 -213 372 -407 76 -294 -85 -594 -372 -696 -90 -32 -256 -32
-346 0 -287 102 -448 402 -372 696 55 217 215 373 435 426 64 15 212 5 283
-19z"/>
<path d="M840 1065 c0 -2 21 -38 46 -80 l45 -75 77 0 c79 0 82 4 25 37 -18 10
-68 41 -112 70 -45 29 -81 50 -81 48z" fill="#f19c34" stroke="none"/>
<path d="M565 990 c-111 -16 -189 -70 -234 -162 -27 -52 -31 -72 -31 -137 0
-60 5 -84 23 -116 26 -46 73 -80 131 -96 46 -13 164 -6 212 11 31 11 32 13 53
128 12 64 24 125 27 135 5 15 -5 17 -104 17 l-110 0 -6 -27 c-4 -16 -9 -36
-12 -45 -5 -15 2 -18 43 -18 27 0 55 6 62 13 11 10 13 8 8 -13 -3 -14 -9 -44
-13 -68 -7 -48 -28 -59 -91 -49 -104 17 -141 123 -83 237 43 85 86 100 290
100 88 0 160 2 160 5 0 2 -12 25 -27 50 l-28 45 -110 -1 c-60 -1 -132 -5 -160
-9z"/>
<path d="M893 845 c-51 -26 -91 -72 -112 -128 -19 -49 -14 -146 9 -182 52 -84
199 -87 283 -7 38 35 55 71 67 133 30 159 -101 256 -247 184z m127 -84 c17
-33 11 -104 -12 -151 -28 -55 -64 -72 -102 -46 -22 14 -26 24 -26 66 0 57 13
96 42 128 28 29 83 30 98 3z"/>
</g>
</svg>
