<?xml version="1.0" standalone="no"?>
<!DOCTYPE svg PUBLIC "-//W3C//DTD SVG 20010904//EN"
 "http://www.w3.org/TR/2001/REC-SVG-20010904/DTD/svg10.dtd">
<svg version="1.0" xmlns="http://www.w3.org/2000/svg"
 width="4651.000000pt" height="2710.000000pt" viewBox="0 0 4651.000000 2710.000000"
 preserveAspectRatio="xMidYMid meet">

<g transform="translate(0.000000,2710.000000) scale(0.100000,-0.100000)">
<path fill="#2E59A4" stroke="none" d="M22140 27090 c-1583 -26 -3089 -99 -4560 -220 -6329 -522 -11631
-1907 -14430 -3771 -1114 -742 -1802 -1542 -2025 -2354 -64 -236 -79 -352 -79
-615 0 -201 3 -254 22 -363 106 -591 407 -1129 937 -1675 994 -1025 2738
-1963 5115 -2753 l385 -128 11 27 c6 15 807 2329 1779 5142 972 2813 1771
5118 1775 5123 3 4 708 6 1567 5 l1560 -3 -668 -1930 c-368 -1061 -671 -1938
-675 -1948 -5 -16 64 -17 1402 -15 l1407 3 671 1945 671 1945 1573 3 c1254 2
1572 0 1572 -10 0 -7 -832 -2414 -1848 -5348 l-1848 -5335 -1572 -3 c-865 -1
-1572 1 -1572 4 0 4 331 963 737 2133 405 1169 738 2134 741 2144 4 16 -67 17
-1399 17 l-1404 0 -740 -2140 c-407 -1177 -743 -2146 -747 -2152 -5 -9 -214
-8 -845 4 -461 8 -839 14 -841 13 -4 -3 555 -148 813 -210 3323 -806 7132
-1286 11300 -1425 1387 -46 3176 -46 4585 0 7444 244 13955 1639 17417 3731
592 358 1073 726 1468 1123 451 453 736 892 890 1366 83 257 110 431 109 710
0 222 -12 340 -54 516 -413 1744 -2854 3352 -6924 4559 -261 77 -841 239
-1006 280 -36 9 -74 18 -85 21 -11 3 29 -22 88 -56 569 -320 1029 -801 1343
-1405 248 -477 395 -992 464 -1630 6 -55 14 -241 17 -412 l6 -313 -1577 0
c-867 0 -1576 3 -1576 6 0 3 9 40 19 82 36 143 45 227 46 392 0 119 -5 193
-19 265 -89 479 -381 819 -802 932 -88 24 -117 27 -269 27 -133 1 -188 -3
-250 -18 -233 -54 -442 -158 -626 -312 -431 -359 -1037 -1367 -1429 -2379
-291 -752 -468 -1439 -551 -2150 -19 -155 -16 -399 4 -512 33 -178 99 -347
192 -488 60 -90 199 -230 290 -290 186 -124 367 -177 604 -176 207 0 372 41
576 142 219 107 378 239 569 469 219 263 367 476 533 765 l91 160 1651 3 c908
1 1651 -1 1651 -5 0 -10 -97 -187 -188 -343 -470 -802 -1109 -1567 -1797
-2151 -1045 -887 -2194 -1421 -3360 -1561 -241 -29 -714 -31 -938 -5 -606 72
-1104 250 -1572 562 -320 213 -585 464 -817 772 -841 1118 -1033 2776 -523
4508 292 990 813 1972 1495 2815 332 410 771 843 1198 1184 735 585 1584 1031
2419 1270 448 128 856 193 1293 203 l245 7 -105 23 c-242 53 -1020 207 -1350
267 -2964 539 -6124 845 -9565 926 -599 14 -2083 20 -2665 10z m2868 -1592
c-3 -7 -837 -2415 -1854 -5350 l-1849 -5338 -1512 0 -1512 0 23 63 c13 34 846
2441 1852 5350 l1829 5287 1513 0 c1207 0 1513 -3 1510 -12z m5997 -77 c-50
-48 -1018 -982 -2153 -2075 -1740 -1676 -2061 -1991 -2057 -2009 10 -44 1105
-6495 1105 -6511 0 -15 -133 -16 -1605 -16 l-1604 0 -6 33 c-9 53 -883 6519
-887 6560 l-3 38 2090 2034 2090 2035 1560 0 1560 0 -90 -89z"/>
<path fill="#2B2A2A" d="M10 10388 c0 -868 1 -883 43 -963 22 -44 66 -85 113 -106 41 -19 663
-19 23008 -19 l22966 0 0 -780 0 -780 180 0 180 0 -2 853 -3 852 -30 54 c-33
61 -88 105 -168 136 -52 20 -79 20 -22994 23 l-22943 2 0 780 0 780 -175 0
-175 0 0 -832z"/>
<path fill="#2B2A2A" d="M13115 5900 c-338 -23 -648 -103 -935 -241 -421 -203 -710 -496 -860
-873 -52 -131 -100 -354 -100 -462 0 -26 -2 -45 -4 -43 -2 2 -11 54 -20 114
-120 822 -731 1338 -1756 1482 -181 25 -698 25 -855 0 -475 -77 -843 -231
-1141 -479 -276 -230 -448 -516 -526 -872 -30 -137 -33 -501 -5 -639 55 -274
173 -495 362 -682 124 -123 249 -210 445 -308 283 -143 501 -214 1204 -393
247 -62 516 -136 600 -164 470 -157 674 -345 693 -640 6 -107 -14 -209 -62
-306 -102 -209 -330 -342 -690 -405 -170 -29 -485 -32 -640 -6 -288 50 -512
154 -667 311 -156 157 -247 369 -264 612 l-7 94 -587 0 -586 0 -701 1883 -700
1882 -631 3 c-348 1 -632 1 -632 -1 0 -1 -477 -1269 -1059 -2817 l-1060 -2815
612 -3 c337 -1 617 0 623 2 5 2 109 286 229 630 l219 626 1049 -2 1049 -3 211
-627 211 -628 633 0 c517 0 633 2 633 13 0 7 -38 114 -84 238 -46 123 -87 235
-91 247 -5 18 16 4 82 -53 481 -415 1223 -620 2048 -565 469 32 877 144 1199
329 268 154 495 376 637 621 28 50 53 90 55 90 1 0 17 -25 34 -56 82 -143 253
-339 400 -457 253 -204 615 -372 975 -452 537 -120 1181 -106 1690 37 338 94
627 247 862 457 80 71 100 85 92 64 -40 -104 -189 -504 -189 -508 0 -3 280 -4
621 -3 l622 3 217 625 218 625 1050 3 1050 2 139 -412 c77 -227 173 -511 212
-630 l73 -218 635 0 636 0 -7 28 c-3 15 -473 1283 -1044 2817 l-1037 2790
-634 0 -633 0 -741 -1967 c-408 -1081 -745 -1964 -749 -1962 -5 3 -8 34 -8 69
0 86 -16 200 -45 315 -116 460 -449 813 -977 1034 -164 69 -334 121 -713 217
-1038 266 -1312 358 -1461 493 -101 91 -144 220 -130 388 23 277 206 468 531
555 95 26 111 27 345 27 272 1 361 -10 525 -65 262 -87 434 -263 508 -520 14
-46 28 -111 32 -144 3 -33 9 -72 11 -87 l6 -28 588 0 c381 0 591 4 595 10 10
16 -14 273 -35 382 -163 842 -880 1351 -1995 1418 -186 11 -236 11 -400 0z
m-3937 -970 c491 -53 764 -282 836 -699 9 -52 16 -105 16 -118 l0 -23 594 0
593 0 7 -72 c10 -97 42 -247 73 -333 181 -507 614 -817 1476 -1054 78 -22 288
-76 467 -121 652 -163 881 -246 1073 -391 207 -156 282 -400 201 -647 -33 -99
-76 -164 -164 -245 -201 -186 -585 -281 -1031 -256 -309 18 -568 105 -758 255
-210 166 -318 383 -346 701 l-7 73 -404 0 -404 0 -4 23 c-2 12 -12 63 -21 112
-86 477 -410 855 -935 1091 -190 85 -332 129 -855 265 -585 152 -844 225
-1010 284 -308 108 -434 206 -480 369 -26 89 -17 277 17 367 80 215 286 359
590 414 90 16 345 19 476 5z m9032 -1571 c194 -566 350 -1032 348 -1035 -3 -2
-329 -3 -724 -2 l-720 3 365 1033 c200 567 367 1032 371 1032 4 0 166 -464
360 -1031z m-13179 -5 c192 -560 349 -1025 349 -1031 0 -10 -151 -13 -720 -13
-510 0 -720 3 -720 11 0 6 156 452 346 992 191 540 353 1001 361 1025 9 24 20
41 26 39 5 -1 167 -462 358 -1023z"/>
<path fill="#2B2A2A" d="M37075 5900 c-547 -40 -1036 -220 -1450 -533 -109 -83 -310 -281
-408 -402 -321 -398 -535 -910 -616 -1480 -114 -797 29 -1610 390 -2211 27
-45 49 -85 49 -88 0 -3 -468 -6 -1040 -6 l-1040 0 0 1253 c0 688 -3 1721 -7
2295 l-6 1042 -609 0 -608 0 0 -2820 0 -2820 1783 2 1782 3 3 354 2 354 120
-117 c420 -408 955 -645 1595 -707 180 -17 594 -6 769 21 581 89 1067 329
1456 719 470 470 744 1104 811 1871 15 172 6 622 -16 780 -71 527 -222 956
-469 1335 -422 649 -1075 1047 -1876 1140 -159 19 -460 26 -615 15z m525
-1056 c679 -116 1108 -662 1216 -1545 23 -181 23 -549 0 -720 -53 -411 -175
-744 -366 -998 -74 -97 -224 -241 -315 -302 -266 -177 -600 -257 -953 -228
-539 43 -936 318 -1172 811 -295 619 -291 1578 10 2203 212 440 567 711 1020
780 52 8 113 17 135 19 78 8 331 -4 425 -20z"/>
<path fill="#2B2A2A" d="M23632 5718 c-11 -29 -489 -1297 -1061 -2817 -573 -1520 -1041 -2766
-1041 -2768 0 -1 279 -3 621 -3 l620 0 13 33 c7 17 107 301 221 630 l208 597
1048 0 1047 0 30 -88 c16 -48 107 -316 202 -597 95 -280 178 -525 186 -543
l13 -33 2033 4 c1851 3 2044 5 2151 20 610 88 1055 317 1333 687 73 96 171
286 209 404 60 187 69 261 69 531 0 275 -10 355 -75 550 -131 399 -435 700
-849 842 -44 16 -80 30 -80 33 0 3 32 23 72 45 225 125 401 292 512 485 152
264 198 596 135 969 -45 267 -146 470 -318 641 -251 250 -613 382 -1151 420
-88 6 -689 10 -1537 10 l-1393 0 6 -2607 c4 -2226 3 -2604 -9 -2583 -7 14
-445 1187 -973 2607 l-959 2583 -632 0 -632 0 -19 -52z m5828 -918 c288 -35
473 -142 560 -324 51 -106 64 -176 64 -321 -2 -344 -166 -553 -504 -642 -58
-15 -145 -17 -777 -20 l-713 -4 0 374 c0 206 -3 503 -7 660 l-6 287 649 0
c385 0 684 -4 734 -10z m-4824 -1456 l351 -1029 -720 -3 c-396 -1 -722 0 -725
3 -9 9 721 2066 732 2062 6 -2 169 -467 362 -1033z m5079 -723 c306 -69 486
-228 565 -501 17 -57 23 -111 27 -231 6 -192 -9 -284 -69 -409 -99 -206 -308
-331 -618 -369 -52 -7 -362 -11 -807 -11 l-723 0 0 776 0 775 763 -4 c747 -3
764 -4 862 -26z"/>
<path fill="#2B2A2A" d="M39212 5748 c8 -13 472 -785 1032 -1716 l1016 -1693 0 -1104 0 -1105
615 0 615 0 0 1087 0 1087 1030 1718 c567 945 1033 1724 1036 1733 5 13 -70
15 -677 15 l-684 -1 -640 -1096 c-352 -603 -644 -1102 -650 -1109 -7 -9 -185
283 -664 1097 l-654 1109 -695 0 -694 0 14 -22z"/>
</g>
</svg>
