<?xml version="1.0" standalone="no"?>
<!DOCTYPE svg PUBLIC "-//W3C//DTD SVG 20010904//EN"
 "http://www.w3.org/TR/2001/REC-SVG-20010904/DTD/svg10.dtd">
<svg version="1.0" xmlns="http://www.w3.org/2000/svg"
 width="190.000000pt" height="100.000000pt" viewBox="0 0 190.000000 100.000000"
 preserveAspectRatio="xMidYMid meet">

<g transform="translate(0.000000,100.000000) scale(0.100000,-0.100000)">
<path d="M584 972 c-40 -22 -66 -43 -84 -66 -13 -17 -10 -16 16 3 48 35 102
38 166 9 41 -19 81 -55 182 -161 105 -112 140 -143 192 -168 107 -53 226 -37
295 37 l24 26 -40 -21 c-98 -52 -169 -18 -343 167 -149 158 -204 192 -311 192
-43 -1 -77 -7 -97 -18z" fill="#3DA546" stroke="none"/>
<path d="M1222 913 c-36 -7 -92 -66 -94 -99 -5 -105 42 -164 132 -164 78 0
130 52 130 130 0 59 -24 98 -73 121 -42 19 -53 20 -95 12z" fill="#44B649" stroke="none"/>
<path d="M529 877 c-42 -28 -59 -60 -59 -112 0 -73 62 -135 137 -135 38 0 89
33 113 72 72 118 -75 253 -191 175z" fill="#2F833D" stroke="none"/>
<path d="M112 389 c-50 -25 -90 -79 -103 -140 -18 -79 -18 -79 152 -79 82 0
149 -4 149 -8 0 -14 -43 -50 -74 -62 -34 -13 -84 1 -111 30 -17 18 -18 18 -56
-1 -34 -18 -37 -23 -26 -40 7 -11 30 -32 51 -47 34 -23 49 -27 112 -27 64 0
77 3 115 30 50 36 80 90 87 156 l5 49 -157 0 c-86 0 -156 4 -156 8 0 14 43 50
74 62 32 12 77 1 106 -25 15 -13 20 -11 49 19 l33 34 -42 28 c-59 39 -147 44
-208 13z" fill="#2F833D" stroke="none"/>
<path d="M572 389 c-131 -66 -162 -236 -62 -343 l39 -41 35 34 34 33 -34 34
c-58 59 -51 64 86 64 66 0 120 -3 120 -6 0 -14 -24 -51 -46 -69 l-24 -21 36
-34 36 -35 37 42 c90 101 73 250 -37 327 -58 41 -156 48 -220 15z m158 -91
c60 -41 52 -48 -59 -48 -56 0 -101 4 -101 8 0 11 41 48 60 55 32 12 68 6 100
-15z" fill="#2F833D" stroke="none"/>
<path d="M940 210 l0 -200 45 0 45 0 0 200 0 200 -45 0 -45 0 0 -200z" fill="#2F833D" stroke="none"/>
<path d="M1192 389 c-56 -28 -90 -74 -104 -142 -10 -47 -9 -61 7 -103 21 -58
70 -108 121 -124 57 -19 136 -8 184 25 l41 28 -32 34 c-29 29 -35 31 -48 19
-50 -45 -120 -39 -166 15 -50 61 -20 153 59 179 36 11 76 2 107 -26 13 -12 19
-10 48 20 l33 34 -42 28 c-58 39 -147 44 -208 13z" fill="#2F833D" stroke="none"/>
<path d="M1595 397 c-52 -21 -85 -48 -112 -95 -49 -84 -31 -204 41 -271 l26
-25 35 34 34 33 -34 39 c-19 21 -35 43 -35 48 0 6 47 10 120 10 137 0 147 -7
86 -65 l-35 -32 34 -33 c32 -31 34 -31 58 -15 66 43 96 178 58 260 -47 102
-172 152 -276 112z m155 -107 c17 -12 30 -26 30 -31 0 -5 -47 -9 -105 -9 -58
0 -105 4 -105 8 0 5 8 16 18 25 46 41 110 44 162 7z" fill="#2F833D" stroke="none"/>
</g>
</svg>
