<?xml version="1.0" encoding="UTF-8"?>
<svg xmlns="http://www.w3.org/2000/svg" xmlns:xlink="http://www.w3.org/1999/xlink" width="433.9pt" height="251.02pt" viewBox="0 0 433.9 251.02" version="1.1">
<defs>
<clipPath id="clip1">
  <path d="M 169 220 L 189 220 L 189 251.019531 L 169 251.019531 Z M 169 220 "/>
</clipPath>
<clipPath id="clip2">
  <path d="M 191 219 L 217 219 L 217 251.019531 L 191 251.019531 Z M 191 219 "/>
</clipPath>
<clipPath id="clip3">
  <path d="M 329 220 L 349 220 L 349 251.019531 L 329 251.019531 Z M 329 220 "/>
</clipPath>
<clipPath id="clip4">
  <path d="M 374 219 L 400 219 L 400 251.019531 L 374 251.019531 Z M 374 219 "/>
</clipPath>
<clipPath id="clip5">
  <path d="M 355 78 L 433.898438 78 L 433.898438 129 L 355 129 Z M 355 78 "/>
</clipPath>
</defs>
<g id="surface1">
<path style=" stroke:none;fill-rule:evenodd;fill:rgb(0%,0%,0%);fill-opacity:1;" d="M 185.996094 180.085938 C 185.996094 178.457031 185.507813 177.96875 183.84375 177.96875 L 180.699219 177.96875 C 179.078125 177.96875 178.546875 178.457031 178.546875 180.085938 L 178.546875 184.886719 L 185.996094 184.886719 Z M 193.410156 201.460938 L 186.773438 201.460938 C 186.328125 201.460938 185.996094 201.09375 185.996094 200.652344 L 185.996094 191.605469 L 178.546875 191.605469 L 178.546875 200.652344 C 178.546875 201.09375 178.214844 201.460938 177.769531 201.460938 L 171.097656 201.460938 C 170.648438 201.460938 170.277344 201.09375 170.277344 200.652344 L 170.277344 180.085938 C 170.277344 172.261719 175.40625 170.84375 180.699219 170.84375 L 183.84375 170.84375 C 189.136719 170.84375 194.265625 172.214844 194.265625 180.085938 L 194.265625 200.652344 C 194.265625 201.09375 193.855469 201.460938 193.410156 201.460938 "/>
<path style=" stroke:none;fill-rule:evenodd;fill:rgb(0%,0%,0%);fill-opacity:1;" d="M 214.863281 181.027344 C 214.863281 178.664063 213.234375 177.722656 210.507813 177.722656 C 210.222656 177.722656 207.863281 177.773438 207.617188 177.773438 L 207.617188 184.691406 C 207.824219 184.726563 210.261719 184.726563 210.507813 184.726563 C 213.359375 184.726563 214.863281 183.636719 214.863281 181.347656 Z M 210.507813 191.605469 C 209.613281 191.605469 208.71875 191.519531 207.617188 191.496094 L 207.617188 200.652344 C 207.617188 201.09375 207.25 201.460938 206.800781 201.460938 L 200.289063 201.460938 C 199.84375 201.460938 199.433594 201.167969 199.433594 200.726563 L 199.433594 174.011719 C 199.433594 172.054688 200.085938 171.613281 201.796875 171.320313 C 203.835938 171 207.492188 170.804688 210.390625 170.804688 C 216.457031 170.804688 223.09375 172.925781 223.09375 181.027344 L 223.09375 181.347656 C 223.09375 189.378906 216.371094 191.605469 210.507813 191.605469 "/>
<path style=" stroke:none;fill-rule:evenodd;fill:rgb(0%,0%,0%);fill-opacity:1;" d="M 240.78125 181.027344 C 240.78125 178.664063 239.140625 177.722656 236.425781 177.722656 C 236.132813 177.722656 233.777344 177.773438 233.535156 177.773438 L 233.535156 184.691406 C 233.734375 184.726563 236.179688 184.726563 236.425781 184.726563 C 239.277344 184.726563 240.78125 183.636719 240.78125 181.347656 Z M 236.425781 191.605469 C 235.519531 191.605469 234.628906 191.519531 233.535156 191.496094 L 233.535156 200.652344 C 233.535156 201.09375 233.167969 201.460938 232.722656 201.460938 L 226.199219 201.460938 C 225.753906 201.460938 225.34375 201.167969 225.34375 200.726563 L 225.34375 174.011719 C 225.34375 172.054688 226 171.613281 227.707031 171.320313 C 229.746094 171 233.410156 170.804688 236.304688 170.804688 C 242.375 170.804688 249.011719 172.925781 249.011719 181.027344 L 249.011719 181.347656 C 249.011719 189.378906 242.289063 191.605469 236.425781 191.605469 "/>
<path style=" stroke:none;fill-rule:evenodd;fill:rgb(0%,0%,0%);fill-opacity:1;" d="M 268.058594 180.648438 C 268.058594 178.738281 266.710938 177.773438 263.996094 177.773438 C 263.699219 177.773438 261.09375 177.84375 260.859375 177.84375 L 260.859375 184.320313 C 261.058594 184.359375 263.578125 184.359375 263.824219 184.359375 C 266.957031 184.359375 268.058594 183.257813 268.058594 181.347656 Z M 276.652344 201.460938 L 269.160156 201.460938 C 268.71875 201.460938 268.546875 201.058594 268.351563 200.652344 L 263.257813 190.882813 L 262.964844 190.710938 C 262.5625 190.710938 261.265625 190.675781 260.859375 190.675781 L 260.859375 200.652344 C 260.859375 201.09375 260.492188 201.460938 260.039063 201.460938 L 253.441406 201.460938 C 253 201.460938 252.585938 201.09375 252.585938 200.652344 L 252.585938 174.011719 C 252.585938 172.054688 253.246094 171.613281 254.949219 171.320313 C 256.574219 171.085938 260.640625 170.804688 263.542969 170.804688 C 271.121094 170.804688 276.285156 173.207031 276.285156 180.648438 L 276.285156 181.308594 C 276.285156 185.65625 273.886719 188.226563 271.316406 189.328125 L 277.226563 200.410156 C 277.316406 200.566406 277.339844 200.726563 277.339844 200.863281 C 277.339844 201.214844 277.070313 201.460938 276.652344 201.460938 "/>
<path style=" stroke:none;fill-rule:evenodd;fill:rgb(0%,0%,0%);fill-opacity:1;" d="M 296.351563 184.234375 C 296.351563 179.890625 295.089844 178.089844 292.25 178.089844 C 289.386719 178.089844 288.136719 179.890625 288.136719 184.234375 L 288.136719 188.433594 C 288.136719 192.792969 289.386719 194.53125 292.25 194.53125 C 295.089844 194.53125 296.351563 192.792969 296.351563 188.433594 Z M 292.25 201.828125 C 285.480469 201.828125 279.738281 198.363281 279.738281 188.433594 L 279.738281 184.234375 C 279.738281 174.308594 285.480469 170.804688 292.25 170.804688 C 299.007813 170.804688 304.738281 174.308594 304.738281 184.234375 L 304.738281 188.433594 C 304.738281 198.363281 299.007813 201.828125 292.25 201.828125 "/>
<path style=" stroke:none;fill-rule:evenodd;fill:rgb(0%,0%,0%);fill-opacity:1;" d="M 333.605469 172.03125 L 328.144531 196.945313 C 327.253906 200.972656 324.226563 201.828125 320.335938 201.828125 C 316.417969 201.828125 313.40625 200.972656 312.511719 196.945313 L 307.050781 172.03125 C 307.050781 171.945313 307.015625 171.894531 307.015625 171.820313 C 307.015625 171.441406 307.296875 171.210938 307.703125 171.210938 L 314.753906 171.210938 C 315.191406 171.210938 315.523438 171.578125 315.609375 171.980469 L 319.882813 194.507813 C 319.96875 194.863281 320.003906 195.070313 320.335938 195.070313 C 320.652344 195.070313 320.726563 194.863281 320.824219 194.507813 L 325.085938 171.980469 C 325.183594 171.578125 325.453125 171.210938 325.90625 171.210938 L 332.992188 171.210938 C 333.398438 171.210938 333.640625 171.441406 333.640625 171.820313 C 333.640625 171.859375 333.605469 171.945313 333.605469 172.03125 "/>
<path style=" stroke:none;fill-rule:evenodd;fill:rgb(0%,0%,0%);fill-opacity:1;" d="M 354.699219 201.339844 C 353.144531 201.546875 350.625 201.828125 346.679688 201.828125 C 341.464844 201.828125 336.25 200.605469 336.25 192.707031 L 336.25 179.914063 C 336.25 172.054688 341.464844 170.804688 346.679688 170.804688 C 350.625 170.804688 353.144531 171.085938 354.699219 171.296875 C 355.226563 171.371094 355.507813 171.613281 355.507813 172.105469 L 355.507813 177.074219 C 355.507813 177.515625 355.152344 177.882813 354.699219 177.882813 L 346.472656 177.882813 C 345.007813 177.882813 344.515625 178.335938 344.515625 179.914063 L 344.515625 182.902344 L 354.539063 182.902344 C 354.980469 182.902344 355.347656 183.257813 355.347656 183.710938 L 355.347656 188.507813 C 355.347656 188.960938 354.980469 189.328125 354.539063 189.328125 L 344.515625 189.328125 L 344.515625 192.707031 C 344.515625 194.300781 345.007813 194.742188 346.472656 194.742188 L 354.699219 194.742188 C 355.152344 194.742188 355.507813 195.121094 355.507813 195.558594 L 355.507813 200.53125 C 355.507813 201.007813 355.226563 201.265625 354.699219 201.339844 "/>
<path style=" stroke:none;fill-rule:evenodd;fill:rgb(0%,0%,0%);fill-opacity:1;" d="M 375.820313 184.078125 C 375.820313 179.191406 374.203125 177.882813 370.945313 177.882813 C 370.457031 177.882813 368.902344 177.929688 368.621094 177.929688 L 368.621094 194.742188 C 368.902344 194.789063 370.40625 194.789063 370.945313 194.789063 C 374.203125 194.789063 375.820313 193.480469 375.820313 188.558594 Z M 370.945313 201.828125 C 367.078125 201.828125 363.734375 201.5 361.617188 201.144531 C 360.722656 200.972656 360.320313 200.652344 360.320313 199.550781 L 360.320313 173.082031 C 360.320313 171.980469 360.722656 171.652344 361.617188 171.492188 C 363.734375 171.125 367.03125 170.804688 370.945313 170.804688 C 379.003906 170.804688 384.167969 174.90625 384.167969 184.078125 L 384.167969 188.558594 C 384.167969 197.714844 379.050781 201.828125 370.945313 201.828125 "/>
<g clip-path="url(#clip1)" clip-rule="nonzero">
<path style=" stroke:none;fill-rule:evenodd;fill:rgb(0%,0%,0%);fill-opacity:1;" d="M 187.914063 250.296875 C 186.855469 250.652344 184.769531 251.019531 182.207031 251.019531 C 174.722656 251.019531 169.671875 246.957031 169.671875 237.625 L 169.671875 233.441406 C 169.671875 224.109375 174.722656 220.035156 182.207031 220.035156 C 184.769531 220.035156 186.855469 220.402344 187.914063 220.769531 C 188.5625 220.976563 188.8125 221.085938 188.8125 221.675781 L 188.8125 226.878906 C 188.8125 227.414063 188.5625 227.648438 188.078125 227.648438 L 187.949219 227.648438 C 186.285156 227.488281 184.570313 227.28125 182.25 227.28125 C 180.054688 227.28125 178.058594 228.261719 178.058594 233.441406 L 178.058594 237.625 C 178.058594 242.769531 180.007813 243.773438 182.25 243.773438 C 184.570313 243.773438 186.285156 243.5625 187.949219 243.40625 L 188.078125 243.40625 C 188.5625 243.40625 188.8125 243.660156 188.8125 244.175781 L 188.8125 249.402344 C 188.8125 249.917969 188.5625 250.089844 187.914063 250.296875 "/>
</g>
<g clip-path="url(#clip2)" clip-rule="nonzero">
<path style=" stroke:none;fill-rule:evenodd;fill:rgb(0%,0%,0%);fill-opacity:1;" d="M 208.1875 233.441406 C 208.1875 229.070313 206.925781 227.28125 204.066406 227.28125 C 201.222656 227.28125 199.960938 229.070313 199.960938 233.441406 L 199.960938 237.628906 C 199.960938 241.984375 201.222656 243.734375 204.066406 243.734375 C 206.925781 243.734375 208.1875 241.984375 208.1875 237.628906 Z M 204.066406 251.019531 C 197.316406 251.019531 191.566406 247.566406 191.566406 237.628906 L 191.566406 233.441406 C 191.566406 223.5 197.316406 219.996094 204.066406 219.996094 C 210.828125 219.996094 216.570313 223.5 216.570313 233.441406 L 216.570313 237.628906 C 216.570313 247.566406 210.828125 251.019531 204.066406 251.019531 "/>
</g>
<path style=" stroke:none;fill-rule:evenodd;fill:rgb(0%,0%,0%);fill-opacity:1;" d="M 243.597656 250.652344 L 238.148438 250.652344 C 237.414063 250.652344 236.890625 250.335938 236.4375 249.5625 L 228.421875 235.914063 C 228.257813 235.632813 228.128906 235.59375 228.015625 235.59375 C 227.890625 235.59375 227.8125 235.679688 227.8125 235.960938 L 227.8125 249.84375 C 227.8125 250.296875 227.445313 250.652344 226.996094 250.652344 L 220.886719 250.652344 C 220.4375 250.652344 220.03125 250.296875 220.03125 249.84375 L 220.03125 221.90625 C 220.03125 221.085938 220.722656 220.402344 221.535156 220.402344 L 226.910156 220.402344 C 227.683594 220.402344 228.128906 220.855469 228.539063 221.589844 L 236.804688 235.632813 C 236.960938 235.914063 237.046875 236 237.183594 236 C 237.304688 236 237.378906 235.960938 237.378906 235.632813 L 237.378906 221.222656 C 237.378906 220.769531 237.746094 220.402344 238.1875 220.402344 L 244.296875 220.402344 C 244.75 220.402344 245.117188 220.769531 245.117188 221.222656 L 245.117188 249.148438 C 245.117188 249.96875 244.429688 250.652344 243.597656 250.652344 "/>
<path style=" stroke:none;fill-rule:evenodd;fill:rgb(0%,0%,0%);fill-opacity:1;" d="M 269.550781 227.160156 L 263.503906 227.160156 L 263.503906 249.847656 C 263.503906 250.296875 263.136719 250.652344 262.671875 250.652344 L 256.035156 250.652344 C 255.597656 250.652344 255.230469 250.296875 255.230469 249.847656 L 255.230469 227.160156 L 249.035156 227.160156 C 248.59375 227.160156 248.226563 226.84375 248.226563 226.386719 L 248.226563 221.171875 C 248.226563 220.730469 248.59375 220.402344 249.035156 220.402344 L 269.550781 220.402344 C 270.003906 220.402344 270.421875 220.730469 270.421875 221.171875 L 270.421875 226.386719 C 270.421875 226.84375 270.003906 227.160156 269.550781 227.160156 "/>
<path style=" stroke:none;fill-rule:evenodd;fill:rgb(0%,0%,0%);fill-opacity:1;" d="M 289.507813 229.851563 C 289.507813 227.941406 288.171875 226.964844 285.445313 226.964844 C 285.152344 226.964844 282.554688 227.050781 282.308594 227.050781 L 282.308594 233.511719 C 282.515625 233.5625 285.027344 233.5625 285.269531 233.5625 C 288.40625 233.5625 289.507813 232.460938 289.507813 230.550781 Z M 298.101563 250.652344 L 290.609375 250.652344 C 290.167969 250.652344 289.996094 250.25 289.800781 249.84375 L 284.710938 240.074219 L 284.429688 239.917969 C 284.023438 239.917969 282.726563 239.867188 282.308594 239.867188 L 282.308594 249.84375 C 282.308594 250.296875 281.941406 250.652344 281.488281 250.652344 L 274.890625 250.652344 C 274.449219 250.652344 274.03125 250.296875 274.03125 249.84375 L 274.03125 223.214844 C 274.03125 221.257813 274.695313 220.804688 276.40625 220.523438 C 278.023438 220.277344 282.113281 220 285.003906 220 C 292.570313 220 297.734375 222.410156 297.734375 229.851563 L 297.734375 230.5 C 297.734375 234.859375 295.335938 237.417969 292.765625 238.519531 L 298.679688 249.601563 C 298.765625 249.757813 298.800781 249.917969 298.800781 250.042969 C 298.800781 250.417969 298.519531 250.652344 298.101563 250.652344 "/>
<path style=" stroke:none;fill-rule:evenodd;fill:rgb(0%,0%,0%);fill-opacity:1;" d="M 318.476563 229.277344 C 318.476563 227.648438 317.984375 227.160156 316.308594 227.160156 L 313.171875 227.160156 C 311.546875 227.160156 311.019531 227.648438 311.019531 229.277344 L 311.019531 234.089844 L 318.476563 234.089844 Z M 325.871094 250.652344 L 319.246094 250.652344 C 318.792969 250.652344 318.476563 250.296875 318.476563 249.84375 L 318.476563 240.808594 L 311.019531 240.808594 L 311.019531 249.84375 C 311.019531 250.296875 310.6875 250.652344 310.246094 250.652344 L 303.5625 250.652344 C 303.109375 250.652344 302.753906 250.296875 302.753906 249.84375 L 302.753906 229.277344 C 302.753906 221.464844 307.871094 220.035156 313.171875 220.035156 L 316.308594 220.035156 C 321.609375 220.035156 326.726563 221.417969 326.726563 229.277344 L 326.726563 249.84375 C 326.726563 250.296875 326.335938 250.652344 325.871094 250.652344 "/>
<g clip-path="url(#clip3)" clip-rule="nonzero">
<path style=" stroke:none;fill-rule:evenodd;fill:rgb(0%,0%,0%);fill-opacity:1;" d="M 347.636719 250.296875 C 346.582031 250.652344 344.503906 251.019531 341.941406 251.019531 C 334.4375 251.019531 329.394531 246.957031 329.394531 237.625 L 329.394531 233.441406 C 329.394531 224.109375 334.4375 220.035156 341.941406 220.035156 C 344.503906 220.035156 346.582031 220.402344 347.636719 220.769531 C 348.285156 220.976563 348.542969 221.085938 348.542969 221.675781 L 348.542969 226.878906 C 348.542969 227.414063 348.285156 227.648438 347.808594 227.648438 L 347.683594 227.648438 C 346.019531 227.488281 344.304688 227.28125 341.980469 227.28125 C 339.777344 227.28125 337.792969 228.261719 337.792969 233.441406 L 337.792969 237.625 C 337.792969 242.769531 339.75 243.773438 341.980469 243.773438 C 344.304688 243.773438 346.019531 243.5625 347.683594 243.40625 L 347.808594 243.40625 C 348.285156 243.40625 348.542969 243.660156 348.542969 244.175781 L 348.542969 249.402344 C 348.542969 249.917969 348.285156 250.089844 347.636719 250.296875 "/>
</g>
<path style=" stroke:none;fill-rule:evenodd;fill:rgb(0%,0%,0%);fill-opacity:1;" d="M 372.390625 227.160156 L 366.328125 227.160156 L 366.328125 249.847656 C 366.328125 250.296875 365.964844 250.652344 365.511719 250.652344 L 358.875 250.652344 C 358.433594 250.652344 358.066406 250.296875 358.066406 249.847656 L 358.066406 227.160156 L 351.871094 227.160156 C 351.429688 227.160156 351.0625 226.84375 351.0625 226.386719 L 351.0625 221.171875 C 351.0625 220.730469 351.429688 220.402344 351.871094 220.402344 L 372.390625 220.402344 C 372.855469 220.402344 373.246094 220.730469 373.246094 221.171875 L 373.246094 226.386719 C 373.246094 226.84375 372.855469 227.160156 372.390625 227.160156 "/>
<g clip-path="url(#clip4)" clip-rule="nonzero">
<path style=" stroke:none;fill-rule:evenodd;fill:rgb(0%,0%,0%);fill-opacity:1;" d="M 391.414063 233.441406 C 391.414063 229.070313 390.144531 227.28125 387.300781 227.28125 C 384.449219 227.28125 383.1875 229.070313 383.1875 233.441406 L 383.1875 237.628906 C 383.1875 241.984375 384.449219 243.734375 387.300781 243.734375 C 390.144531 243.734375 391.414063 241.984375 391.414063 237.628906 Z M 387.300781 251.019531 C 380.546875 251.019531 374.789063 247.566406 374.789063 237.628906 L 374.789063 233.441406 C 374.789063 223.5 380.546875 219.996094 387.300781 219.996094 C 394.0625 219.996094 399.800781 223.5 399.800781 233.441406 L 399.800781 237.628906 C 399.800781 247.566406 394.0625 251.019531 387.300781 251.019531 "/>
</g>
<path style=" stroke:none;fill-rule:evenodd;fill:rgb(0%,0%,0%);fill-opacity:1;" d="M 419.84375 229.851563 C 419.84375 227.941406 418.496094 226.964844 415.765625 226.964844 C 415.484375 226.964844 412.863281 227.050781 412.621094 227.050781 L 412.621094 233.511719 C 412.839844 233.5625 415.363281 233.5625 415.59375 233.5625 C 418.742188 233.5625 419.84375 232.460938 419.84375 230.550781 Z M 428.425781 250.652344 L 420.933594 250.652344 C 420.480469 250.652344 420.320313 250.25 420.125 249.84375 L 415.03125 240.074219 L 414.75 239.917969 C 414.335938 239.917969 413.035156 239.867188 412.621094 239.867188 L 412.621094 249.84375 C 412.621094 250.296875 412.253906 250.652344 411.8125 250.652344 L 405.226563 250.652344 C 404.773438 250.652344 404.367188 250.296875 404.367188 249.84375 L 404.367188 223.214844 C 404.367188 221.257813 405.003906 220.804688 406.71875 220.523438 C 408.347656 220.277344 412.425781 220 415.3125 220 C 422.878906 220 428.058594 222.410156 428.058594 229.851563 L 428.058594 230.5 C 428.058594 234.859375 425.65625 237.417969 423.097656 238.519531 L 429 249.601563 C 429.074219 249.757813 429.121094 249.917969 429.121094 250.042969 C 429.121094 250.417969 428.839844 250.652344 428.425781 250.652344 "/>
<g clip-path="url(#clip5)" clip-rule="nonzero">
<path style=" stroke:none;fill-rule:evenodd;fill:rgb(0%,0%,0%);fill-opacity:1;" d="M 397.171875 106.03125 L 397.171875 122.289063 C 397.171875 123.328125 396.3125 124.1875 395.285156 124.1875 L 394.867188 124.1875 C 393.816406 124.1875 392.96875 123.328125 392.96875 122.289063 L 392.96875 84.1875 C 392.96875 83.160156 393.816406 82.328125 394.867188 82.328125 L 395.285156 82.328125 C 396.3125 82.328125 397.171875 83.160156 397.171875 84.1875 L 397.171875 100.914063 L 433.898438 100.914063 L 433.898438 80.027344 C 433.898438 78.972656 433.066406 78.140625 432.011719 78.140625 L 357.515625 78.140625 C 356.476563 78.140625 355.644531 78.972656 355.644531 80.027344 L 355.644531 126.488281 C 355.644531 127.539063 356.476563 128.371094 357.515625 128.371094 L 432.011719 128.371094 C 433.066406 128.371094 433.898438 127.539063 433.898438 126.488281 L 433.898438 106.03125 "/>
</g>
<path style=" stroke:none;fill-rule:evenodd;fill:rgb(0%,0%,0%);fill-opacity:1;" d="M 305.804688 114.96875 L 260.898438 114.96875 C 259.867188 114.96875 259.023438 114.121094 259.023438 113.09375 L 259.023438 112.617188 C 259.023438 111.5625 259.867188 110.71875 260.898438 110.71875 L 305.804688 110.71875 L 305.804688 96.394531 L 260.898438 96.394531 C 259.867188 96.394531 259.023438 95.539063 259.023438 94.496094 L 259.023438 94.046875 C 259.023438 92.992188 259.867188 92.148438 260.898438 92.148438 L 305.804688 92.148438 L 305.804688 78.140625 L 232.101563 78.140625 C 231.054688 78.140625 230.210938 78.972656 230.210938 80.027344 L 230.210938 126.488281 C 230.210938 127.539063 231.054688 128.371094 232.101563 128.371094 L 305.804688 128.371094 "/>
<path style=" stroke:none;fill-rule:evenodd;fill:rgb(0%,0%,0%);fill-opacity:1;" d="M 311.546875 128.335938 L 349.890625 128.335938 L 349.890625 78.140625 L 311.546875 78.140625 Z M 311.546875 128.335938 "/>
<path style=" stroke:none;fill-rule:evenodd;fill:rgb(73.699951%,21.998596%,18.798828%);fill-opacity:1;" d="M 126.152344 33.96875 L 126.152344 1.882813 C 126.152344 0.828125 125.316406 -0.00390625 124.269531 -0.00390625 L 82.925781 -0.00390625 C 81.886719 -0.00390625 81.035156 0.828125 81.035156 1.882813 L 81.035156 33.96875 "/>
<path style=" stroke:none;fill-rule:evenodd;fill:rgb(73.699951%,21.998596%,18.798828%);fill-opacity:1;" d="M 81.035156 38.121094 L 81.035156 199.503906 C 81.035156 200.554688 81.886719 201.386719 82.925781 201.386719 L 124.269531 201.386719 C 125.316406 201.386719 126.15625 200.554688 126.15625 199.503906 L 126.15625 38.121094 "/>
<path style=" stroke:none;fill-rule:evenodd;fill:rgb(73.699951%,21.998596%,18.798828%);fill-opacity:1;" d="M 174.523438 106.03125 L 174.523438 122.289063 C 174.523438 123.328125 173.679688 124.1875 172.652344 124.1875 L 172.222656 124.1875 C 171.175781 124.1875 170.339844 123.328125 170.339844 122.289063 L 170.339844 84.1875 C 170.339844 83.160156 171.175781 82.328125 172.222656 82.328125 L 172.652344 82.328125 C 173.679688 82.328125 174.523438 83.160156 174.523438 84.1875 L 174.523438 100.914063 L 211.277344 100.914063 L 211.277344 80.027344 C 211.277344 78.972656 210.425781 78.140625 209.386719 78.140625 L 134.890625 78.140625 C 133.835938 78.140625 133.015625 78.972656 133.015625 80.027344 L 133.015625 126.488281 C 133.015625 127.539063 133.835938 128.371094 134.890625 128.371094 L 209.386719 128.371094 C 210.425781 128.371094 211.277344 127.539063 211.277344 126.488281 L 211.277344 106.03125 "/>
<path style=" stroke:none;fill-rule:evenodd;fill:rgb(73.699951%,21.998596%,18.798828%);fill-opacity:1;" d="M 53.859375 78.140625 L 53.371094 93.222656 L 40.609375 78.140625 L 1.847656 78.140625 C 0.8125 78.140625 0 78.984375 0 80.003906 L 0 126.523438 C 0 127.539063 0.8125 128.386719 1.847656 128.386719 L 21.316406 128.386719 L 21.816406 113.09375 L 34.757813 128.386719 L 74.324219 128.386719 L 74.324219 78.140625 "/>
</g>
</svg>
