<?xml version="1.0" encoding="UTF-8" standalone="no"?>
<svg
   xmlns:dc="http://purl.org/dc/elements/1.1/"
   xmlns:cc="http://creativecommons.org/ns#"
   xmlns:rdf="http://www.w3.org/1999/02/22-rdf-syntax-ns#"
   xmlns:svg="http://www.w3.org/2000/svg"
   xmlns="http://www.w3.org/2000/svg"
   viewBox="0 0 793.70135 550.52"
   height="550.52"
   width="793.70135"
   xml:space="preserve"
   id="svg2"
   version="1.1"><metadata
     id="metadata8"><rdf:RDF><cc:Work
         rdf:about=""><dc:format>image/svg+xml</dc:format><dc:type
           rdf:resource="http://purl.org/dc/dcmitype/StillImage" /></cc:Work></rdf:RDF></metadata><defs
     id="defs6"><radialGradient
       id="radialGradient30"
       spreadMethod="pad"
       gradientTransform="matrix(241.69905,0,0,-241.69905,208.53906,678.64453)"
       gradientUnits="userSpaceOnUse"
       r="1"
       cy="0"
       cx="0"
       fy="0"
       fx="0"><stop
         id="stop24"
         offset="0"
         style="stop-opacity:1;stop-color:#d6e08c" /><stop
         id="stop26"
         offset="0.5"
         style="stop-opacity:1;stop-color:#89bb40" /><stop
         id="stop28"
         offset="1"
         style="stop-opacity:1;stop-color:#4e722f" /></radialGradient><clipPath
       id="clipPath40"
       clipPathUnits="userSpaceOnUse"><path
         id="path38"
         d="M 0,841.89 H 595.276 V 0 H 0 Z" /></clipPath></defs><g
     transform="matrix(1.3333333,0,0,-1.3333333,0,900)"
     id="g10"><g
       id="g12"><g
         id="g14"><g
           id="g20"><g
             id="g22"><path
               id="path32"
               style="fill:url(#radialGradient30);stroke:none"
               d="M 305.785,382.335 231.954,510.217 158.127,638.091 H 305.785 453.441 L 379.614,510.217 Z" /></g></g></g></g><g
       id="g34"><g
         clip-path="url(#clipPath40)"
         id="g36"><g
           transform="translate(109.3667,340.7891)"
           id="g42"><path
             id="path44"
             style="fill:#2d2c2e;fill-opacity:1;fill-rule:nonzero;stroke:none"
             d="m 0,0 c 2.901,-0.763 6.565,-1.069 10.994,-1.069 16.031,0 25.803,7.788 25.803,21.987 0,13.587 -9.619,20.154 -24.276,20.154 C 6.719,41.072 2.291,40.614 0,40.003 Z m -13.283,49.622 c 6.413,1.068 14.81,1.984 25.497,1.984 13.131,0 22.75,-3.053 28.858,-8.55 5.649,-4.887 9.008,-12.367 9.008,-21.529 0,-9.312 -2.748,-16.64 -7.94,-21.984 -7.022,-7.481 -18.474,-11.299 -31.452,-11.299 -3.969,0 -7.634,0.153 -10.688,0.917 v -41.225 h -13.283 z" /></g><g
           transform="translate(211.8154,326.4375)"
           id="g46"><path
             id="path48"
             style="fill:#2d2c2e;fill-opacity:1;fill-rule:nonzero;stroke:none"
             d="m 0,0 c -14.658,0.306 -31.301,-2.291 -31.301,-16.642 0,-8.703 5.802,-12.827 12.674,-12.827 9.619,0 15.725,6.108 17.864,12.367 0.458,1.374 0.763,2.903 0.763,4.277 z m 12.978,-20.002 c 0,-6.412 0.305,-12.673 1.222,-17.711 H 1.984 l -1.068,9.316 H 0.458 c -4.123,-5.804 -12.063,-10.995 -22.597,-10.995 -14.964,0 -22.597,10.535 -22.597,21.222 0,17.864 15.879,27.638 44.431,27.484 v 1.527 c 0,6.105 -1.68,17.099 -16.796,17.099 -6.871,0 -14.046,-2.136 -19.238,-5.496 l -3.053,8.855 c 6.106,3.971 14.962,6.566 24.277,6.566 22.596,0 28.093,-15.421 28.093,-30.231 z" /></g><g
           transform="translate(252.7305,362.624)"
           id="g50"><path
             id="path52"
             style="fill:#2d2c2e;fill-opacity:1;fill-rule:nonzero;stroke:none"
             d="m 0,0 10.533,-15.88 c 2.751,-4.122 5.04,-7.94 7.483,-12.061 h 0.457 c 2.443,4.426 4.885,8.245 7.329,12.212 L 36.186,0 H 50.69 L 25.498,-35.729 51.452,-73.899 H 36.186 l -10.841,16.644 c -2.901,4.274 -5.344,8.396 -7.941,12.824 H 17.1 c -2.443,-4.581 -5.038,-8.397 -7.787,-12.824 L -1.374,-73.899 H -16.186 L 10.077,-36.187 -14.964,0 Z" /></g><g
           transform="translate(335.3242,380.334)"
           id="g54"><path
             id="path56"
             style="fill:#2d2c2e;fill-opacity:1;fill-rule:nonzero;stroke:none"
             d="M 0,0 V -17.71 H 19.24 V -27.939 H 0 v -39.852 c 0,-9.16 2.598,-14.353 10.079,-14.353 3.664,0 5.801,0.307 7.787,0.917 l 0.611,-10.076 c -2.597,-1.069 -6.72,-1.985 -11.91,-1.985 -6.259,0 -11.298,2.137 -14.505,5.8 -3.819,3.972 -5.192,10.537 -5.192,19.24 v 40.309 h -11.45 v 10.229 h 11.45 v 12.77 z" /></g><g
           transform="translate(377.0039,325.5215)"
           id="g58"><path
             id="path60"
             style="fill:#2d2c2e;fill-opacity:1;fill-rule:nonzero;stroke:none"
             d="m 0,0 c 0,-16.186 9.313,-28.4 22.444,-28.4 12.828,0 22.449,12.061 22.449,28.706 0,12.519 -6.264,28.399 -22.143,28.399 C 6.869,28.705 0,14.048 0,0 m 58.631,0.763 c 0,-27.33 -18.933,-39.239 -36.796,-39.239 -20.002,0 -35.422,14.659 -35.422,38.018 0,24.734 16.183,39.239 36.644,39.239 21.222,0 35.574,-15.421 35.574,-38.018" /></g><g
           transform="translate(452.5801,342.6221)"
           id="g62"><path
             id="path64"
             style="fill:#2d2c2e;fill-opacity:1;fill-rule:nonzero;stroke:none"
             d="M 0,0 C 0,7.633 -0.156,13.895 -0.613,20.002 H 11.295 L 12.06,7.786 h 0.305 c 3.664,7.026 12.215,13.895 24.431,13.895 10.228,0 26.109,-6.109 26.109,-31.452 V -53.897 H 49.468 V -11.3 c 0,11.91 -4.429,21.834 -17.102,21.834 -8.855,0 -15.724,-6.261 -18.015,-13.74 -0.613,-1.68 -0.914,-3.971 -0.914,-6.262 v -44.429 l -13.437,0 z" /></g></g></g></g></svg>