<?xml version="1.0" encoding="UTF-8"?>
<svg xmlns="http://www.w3.org/2000/svg" xmlns:xlink="http://www.w3.org/1999/xlink" width="216.15pt" height="30.94pt" viewBox="0 0 216.15 30.94" version="1.1">
<defs>
<clipPath id="clip1">
  <path d="M 0 0 L 32 0 L 32 30.941406 L 0 30.941406 Z M 0 0 "/>
</clipPath>
<clipPath id="clip2">
  <path d="M 209 6 L 216.148438 6 L 216.148438 17 L 209 17 Z M 209 6 "/>
</clipPath>
</defs>
<g id="surface1">
<g clip-path="url(#clip1)" clip-rule="nonzero">
<path style=" stroke:none;fill-rule:nonzero;fill:rgb(95.684814%,49.01886%,18.823242%);fill-opacity:1;" d="M 15.886719 3.636719 C 21.652344 3.636719 26.242188 5.394531 28.125 6.246094 C 28.125 6.417969 28.125 6.679688 28.125 6.679688 L 28.125 7.171875 C 28.109375 21.890625 18.210938 26.304688 15.886719 27.140625 C 13.566406 26.304688 3.667969 21.890625 3.65625 7.167969 L 3.65625 6.644531 C 3.65625 6.644531 3.65625 6.394531 3.652344 6.246094 C 5.539063 5.394531 10.128906 3.636719 15.886719 3.636719 Z M 0.941406 3.527344 L 0 4.050781 L 0.0195313 6.628906 L 0.0195313 7.171875 C 0.0390625 26.324219 15.25 30.761719 15.402344 30.804688 L 15.886719 30.941406 L 16.375 30.804688 C 16.527344 30.761719 31.738281 26.324219 31.757813 7.171875 C 31.757813 7.171875 31.757813 6.664063 31.757813 6.664063 L 31.777344 4.09375 L 30.839844 3.527344 C 30.582031 3.382813 24.425781 0.00390625 15.886719 0.00390625 C 7.351563 0.00390625 1.199219 3.382813 0.941406 3.527344 "/>
</g>
<path style=" stroke:none;fill-rule:nonzero;fill:rgb(1.960754%,20.783997%,47.842407%);fill-opacity:1;" d="M 19.710938 13.921875 C 19.710938 16.078125 17.957031 17.828125 15.804688 17.828125 C 13.648438 17.828125 11.898438 16.078125 11.898438 13.921875 C 11.898438 11.765625 13.648438 10.019531 15.804688 10.019531 C 17.957031 10.019531 19.710938 11.765625 19.710938 13.921875 "/>
<path style=" stroke:none;fill-rule:nonzero;fill:rgb(1.960754%,20.783997%,47.842407%);fill-opacity:1;" d="M 41.257813 13.242188 C 41.257813 13.492188 41.203125 13.535156 40.964844 13.535156 L 39.671875 13.535156 C 39.433594 13.535156 39.378906 13.492188 39.378906 13.242188 L 39.378906 5.671875 L 37.554688 5.671875 C 37.359375 5.671875 37.320313 5.628906 37.320313 5.433594 L 37.320313 4.238281 C 37.320313 4.042969 37.359375 4 37.554688 4 L 43.289063 4 C 43.570313 4 43.640625 4.03125 43.640625 4.152344 C 43.640625 4.222656 43.625 4.253906 43.597656 4.347656 L 43.304688 5.449219 C 43.25 5.671875 43.09375 5.671875 42.984375 5.671875 L 41.257813 5.671875 L 41.257813 13.242188 "/>
<path style=" stroke:none;fill-rule:nonzero;fill:rgb(1.960754%,20.783997%,47.842407%);fill-opacity:1;" d="M 49.96875 13.339844 C 49.96875 13.492188 49.945313 13.535156 49.777344 13.535156 L 48.398438 13.535156 C 48.230469 13.535156 48.203125 13.492188 48.203125 13.339844 L 48.203125 9.054688 C 48.203125 8.523438 48.132813 7.882813 47.425781 7.882813 C 46.839844 7.882813 46.421875 8.300781 46.242188 8.46875 L 46.242188 13.339844 C 46.242188 13.492188 46.214844 13.535156 46.046875 13.535156 L 44.667969 13.535156 C 44.5 13.535156 44.472656 13.492188 44.472656 13.339844 L 44.472656 3.988281 C 44.472656 3.777344 44.570313 3.777344 44.738281 3.738281 L 45.90625 3.5 C 45.949219 3.5 46.074219 3.457031 46.101563 3.457031 C 46.214844 3.457031 46.242188 3.515625 46.242188 3.75 L 46.242188 7.214844 C 46.617188 6.910156 47.175781 6.421875 48.160156 6.421875 C 49.636719 6.421875 49.96875 7.410156 49.96875 8.621094 L 49.96875 13.339844 "/>
<path style=" stroke:none;fill-rule:nonzero;fill:rgb(1.960754%,20.783997%,47.842407%);fill-opacity:1;" d="M 55.46875 9.277344 C 55.46875 8.707031 55.425781 7.71875 54.464844 7.71875 C 53.382813 7.71875 53.324219 8.886719 53.28125 9.277344 Z M 57.082031 12.796875 C 57.109375 12.839844 57.125 12.894531 57.125 12.949219 C 57.125 13.3125 55.730469 13.769531 54.632813 13.769531 C 52.796875 13.769531 51.515625 12.726563 51.515625 10.167969 C 51.515625 7.953125 52.699219 6.421875 54.566406 6.421875 C 56.929688 6.421875 57.347656 8.539063 57.347656 10.222656 C 57.347656 10.488281 57.292969 10.570313 57.027344 10.570313 L 53.28125 10.570313 C 53.28125 11.351563 53.507813 12.308594 54.816406 12.308594 C 55.816406 12.308594 56.386719 11.851563 56.582031 11.851563 C 56.652344 11.851563 56.707031 11.90625 56.734375 11.960938 L 57.082031 12.796875 "/>
<path style=" stroke:none;fill-rule:nonzero;fill:rgb(1.960754%,20.783997%,47.842407%);fill-opacity:1;" d="M 65.390625 8.257813 C 66.210938 8.257813 66.992188 8.121094 66.992188 6.714844 C 66.992188 5.503906 66.253906 5.460938 65.53125 5.460938 L 64.960938 5.460938 L 64.960938 8.257813 Z M 64.960938 13.242188 C 64.960938 13.492188 64.90625 13.535156 64.667969 13.535156 L 63.371094 13.535156 C 63.136719 13.535156 63.082031 13.492188 63.082031 13.242188 L 63.082031 4.292969 C 63.082031 4.042969 63.136719 4 63.371094 4 L 65.628906 4 C 66.753906 4 68.871094 4 68.871094 6.617188 C 68.871094 8.914063 67.160156 9.722656 65.699219 9.722656 L 64.960938 9.722656 L 64.960938 13.242188 "/>
<path style=" stroke:none;fill-rule:nonzero;fill:rgb(1.960754%,20.783997%,47.842407%);fill-opacity:1;" d="M 71.988281 13.339844 C 71.988281 13.492188 71.960938 13.535156 71.792969 13.535156 L 70.414063 13.535156 C 70.25 13.535156 70.222656 13.492188 70.222656 13.339844 L 70.222656 9.136719 C 70.222656 7.605469 69.859375 7.355469 69.859375 7.035156 C 69.859375 6.980469 69.914063 6.9375 69.984375 6.910156 L 71.042969 6.476563 C 71.097656 6.464844 71.167969 6.421875 71.222656 6.421875 C 71.390625 6.421875 71.667969 7.050781 71.738281 7.523438 C 72.003906 7.203125 72.515625 6.421875 73.464844 6.421875 C 73.867188 6.421875 74.269531 6.5625 74.269531 6.742188 C 74.269531 6.796875 74.257813 6.855469 74.242188 6.882813 L 73.8125 8.050781 C 73.796875 8.09375 73.757813 8.175781 73.699219 8.175781 C 73.617188 8.175781 73.367188 8.023438 73.046875 8.023438 C 72.613281 8.023438 72.167969 8.496094 71.988281 8.691406 L 71.988281 13.339844 "/>
<path style=" stroke:none;fill-rule:nonzero;fill:rgb(1.960754%,20.783997%,47.842407%);fill-opacity:1;" d="M 76.511719 5.753906 C 75.871094 5.753906 75.355469 5.238281 75.355469 4.601563 C 75.355469 3.960938 75.871094 3.457031 76.511719 3.457031 C 77.136719 3.457031 77.652344 3.960938 77.652344 4.601563 C 77.652344 5.238281 77.136719 5.753906 76.511719 5.753906 Z M 77.402344 13.339844 C 77.402344 13.492188 77.375 13.535156 77.207031 13.535156 L 75.832031 13.535156 C 75.664063 13.535156 75.636719 13.492188 75.636719 13.339844 L 75.636719 7.953125 L 74.5625 7.953125 C 74.394531 7.953125 74.367188 7.910156 74.367188 7.757813 L 74.367188 6.855469 C 74.367188 6.699219 74.394531 6.660156 74.5625 6.660156 L 77.207031 6.660156 C 77.375 6.660156 77.402344 6.699219 77.402344 6.855469 L 77.402344 13.339844 "/>
<path style=" stroke:none;fill-rule:nonzero;fill:rgb(1.960754%,20.783997%,47.842407%);fill-opacity:1;" d="M 82.550781 13.480469 C 82.496094 13.632813 82.480469 13.660156 82.289063 13.660156 L 81.148438 13.660156 C 80.949219 13.660156 80.9375 13.632813 80.882813 13.480469 L 78.667969 7.0625 C 78.65625 7.035156 78.613281 6.925781 78.597656 6.828125 C 78.597656 6.714844 78.695313 6.699219 78.90625 6.671875 L 80.058594 6.546875 C 80.101563 6.546875 80.257813 6.535156 80.28125 6.535156 C 80.394531 6.535156 80.4375 6.671875 80.476563 6.8125 L 81.328125 9.945313 C 81.480469 10.5 81.6875 11.445313 81.773438 11.960938 L 81.800781 11.960938 C 81.882813 11.460938 82.105469 10.488281 82.273438 9.945313 L 83.21875 6.8125 C 83.261719 6.660156 83.304688 6.535156 83.414063 6.535156 C 83.441406 6.535156 83.59375 6.546875 83.636719 6.546875 L 84.582031 6.671875 C 84.792969 6.699219 84.890625 6.714844 84.890625 6.828125 C 84.875 6.925781 84.835938 7.035156 84.820313 7.0625 L 82.550781 13.480469 "/>
<path style=" stroke:none;fill-rule:nonzero;fill:rgb(1.960754%,20.783997%,47.842407%);fill-opacity:1;" d="M 88.84375 10.417969 C 88.496094 10.417969 86.882813 10.304688 86.882813 11.53125 C 86.882813 12.074219 87.273438 12.476563 87.800781 12.476563 C 88.316406 12.476563 88.675781 12.117188 88.84375 11.949219 Z M 89.695313 13.714844 C 89.640625 13.730469 89.570313 13.769531 89.511719 13.769531 C 89.386719 13.769531 89.179688 13.285156 89.109375 12.9375 C 88.832031 13.214844 88.34375 13.769531 87.300781 13.769531 C 86.019531 13.769531 85.210938 12.9375 85.210938 11.628906 C 85.210938 9.277344 87.746094 9.277344 88.84375 9.277344 L 88.84375 8.84375 C 88.84375 8.21875 88.734375 7.816406 87.855469 7.816406 C 87.078125 7.816406 86.3125 8.234375 86.132813 8.234375 C 86.0625 8.234375 86.007813 8.148438 85.992188 8.09375 L 85.714844 7.246094 C 85.6875 7.1875 85.671875 7.132813 85.671875 7.078125 C 85.671875 6.757813 87.050781 6.421875 88.121094 6.421875 C 89.859375 6.421875 90.515625 7.214844 90.515625 8.664063 L 90.515625 11.351563 C 90.515625 12.699219 90.875 12.882813 90.875 13.160156 C 90.875 13.214844 90.820313 13.257813 90.753906 13.285156 L 89.695313 13.714844 "/>
<path style=" stroke:none;fill-rule:nonzero;fill:rgb(1.960754%,20.783997%,47.842407%);fill-opacity:1;" d="M 96.515625 13.132813 C 96.527344 13.199219 96.539063 13.199219 96.539063 13.242188 C 96.539063 13.507813 95.527344 13.769531 94.578125 13.769531 C 92.785156 13.769531 92.785156 12.367188 92.785156 11.085938 L 92.785156 7.953125 L 91.792969 7.953125 C 91.628906 7.953125 91.601563 7.910156 91.601563 7.757813 L 91.601563 6.855469 C 91.601563 6.699219 91.628906 6.660156 91.792969 6.660156 L 92.785156 6.660156 L 92.785156 4.90625 C 92.785156 4.726563 92.8125 4.683594 93.007813 4.65625 L 94.230469 4.488281 C 94.273438 4.488281 94.328125 4.472656 94.410156 4.472656 C 94.535156 4.472656 94.550781 4.542969 94.550781 4.710938 L 94.550781 6.660156 L 96.136719 6.660156 C 96.261719 6.660156 96.375 6.660156 96.375 6.8125 C 96.375 6.839844 96.375 6.867188 96.359375 6.925781 L 96.179688 7.746094 C 96.136719 7.941406 96.097656 7.953125 95.929688 7.953125 L 94.550781 7.953125 L 94.550781 11.324219 C 94.550781 11.765625 94.550781 12.171875 95.023438 12.171875 C 95.582031 12.171875 95.929688 11.90625 96.125 11.90625 C 96.179688 11.90625 96.222656 11.933594 96.234375 11.988281 L 96.515625 13.132813 "/>
<path style=" stroke:none;fill-rule:nonzero;fill:rgb(1.960754%,20.783997%,47.842407%);fill-opacity:1;" d="M 101.09375 9.277344 C 101.09375 8.707031 101.050781 7.71875 100.089844 7.71875 C 99.003906 7.71875 98.949219 8.886719 98.90625 9.277344 Z M 102.707031 12.796875 C 102.734375 12.839844 102.75 12.894531 102.75 12.949219 C 102.75 13.3125 101.355469 13.769531 100.257813 13.769531 C 98.417969 13.769531 97.140625 12.726563 97.140625 10.167969 C 97.140625 7.953125 98.324219 6.421875 100.1875 6.421875 C 102.554688 6.421875 102.972656 8.539063 102.972656 10.222656 C 102.972656 10.488281 102.914063 10.570313 102.652344 10.570313 L 98.90625 10.570313 C 98.90625 11.351563 99.128906 12.308594 100.4375 12.308594 C 101.441406 12.308594 102.011719 11.851563 102.207031 11.851563 C 102.273438 11.851563 102.332031 11.90625 102.359375 11.960938 L 102.707031 12.796875 "/>
<path style=" stroke:none;fill-rule:nonzero;fill:rgb(1.960754%,20.783997%,47.842407%);fill-opacity:1;" d="M 113.269531 5.742188 C 113.230469 5.824219 113.171875 5.878906 113.117188 5.878906 C 113.035156 5.878906 112.171875 5.269531 111.167969 5.269531 C 110.527344 5.269531 109.859375 5.519531 109.859375 6.355469 C 109.859375 7.410156 111.488281 7.605469 112.714844 8.511719 C 113.425781 9.039063 113.910156 9.777344 113.910156 10.835938 C 113.910156 12.601563 112.65625 13.769531 110.90625 13.769531 C 109.484375 13.769531 107.996094 13.160156 107.996094 12.9375 C 107.996094 12.894531 108.039063 12.796875 108.066406 12.714844 L 108.386719 11.796875 C 108.414063 11.710938 108.484375 11.65625 108.539063 11.65625 C 108.621094 11.65625 109.652344 12.269531 110.847656 12.269531 C 111.628906 12.269531 112.101563 11.851563 112.101563 10.988281 C 112.101563 9.75 110.683594 9.625 109.261719 8.761719 C 108.523438 8.316406 108.050781 7.757813 108.050781 6.605469 C 108.050781 4.601563 109.5 3.765625 111.113281 3.765625 C 112.4375 3.765625 113.800781 4.375 113.800781 4.613281 C 113.800781 4.65625 113.785156 4.710938 113.730469 4.824219 L 113.269531 5.742188 "/>
<path style=" stroke:none;fill-rule:nonzero;fill:rgb(1.960754%,20.783997%,47.842407%);fill-opacity:1;" d="M 118.867188 9.277344 C 118.867188 8.707031 118.824219 7.71875 117.863281 7.71875 C 116.777344 7.71875 116.722656 8.886719 116.679688 9.277344 Z M 120.480469 12.796875 C 120.507813 12.839844 120.523438 12.894531 120.523438 12.949219 C 120.523438 13.3125 119.128906 13.769531 118.03125 13.769531 C 116.191406 13.769531 114.914063 12.726563 114.914063 10.167969 C 114.914063 7.953125 116.097656 6.421875 117.960938 6.421875 C 120.328125 6.421875 120.746094 8.539063 120.746094 10.222656 C 120.746094 10.488281 120.6875 10.570313 120.425781 10.570313 L 116.679688 10.570313 C 116.679688 11.351563 116.902344 12.308594 118.210938 12.308594 C 119.214844 12.308594 119.78125 11.851563 119.980469 11.851563 C 120.046875 11.851563 120.105469 11.90625 120.132813 11.960938 L 120.480469 12.796875 "/>
<path style=" stroke:none;fill-rule:nonzero;fill:rgb(1.960754%,20.783997%,47.842407%);fill-opacity:1;" d="M 126.882813 12.894531 C 126.894531 12.9375 126.925781 12.992188 126.925781 13.035156 C 126.925781 13.367188 125.796875 13.769531 124.960938 13.769531 C 123.027344 13.769531 121.871094 12.589844 121.871094 10.234375 C 121.871094 7.882813 123.054688 6.421875 125.113281 6.421875 C 125.867188 6.421875 127.089844 6.839844 127.089844 7.273438 C 127.089844 7.3125 127.0625 7.355469 127.046875 7.398438 L 126.535156 8.300781 C 126.507813 8.328125 126.476563 8.371094 126.4375 8.371094 C 126.296875 8.371094 125.835938 7.816406 125.113281 7.816406 C 124.167969 7.816406 123.75 8.539063 123.75 10.140625 C 123.75 11.667969 124.113281 12.378906 125.183594 12.378906 C 125.894531 12.378906 126.171875 11.90625 126.421875 11.90625 C 126.464844 11.90625 126.492188 11.933594 126.519531 11.976563 L 126.882813 12.894531 "/>
<path style=" stroke:none;fill-rule:nonzero;fill:rgb(1.960754%,20.783997%,47.842407%);fill-opacity:1;" d="M 132.753906 13.730469 C 132.671875 13.757813 132.601563 13.769531 132.546875 13.769531 C 132.367188 13.769531 132.253906 13.507813 132.101563 12.949219 C 131.722656 13.285156 131.070313 13.769531 129.972656 13.769531 C 129.207031 13.769531 128.160156 13.421875 128.160156 11.738281 L 128.160156 6.953125 C 128.160156 6.757813 128.257813 6.742188 128.425781 6.699219 L 129.59375 6.464844 C 129.636719 6.464844 129.777344 6.421875 129.820313 6.421875 C 129.902344 6.421875 129.929688 6.476563 129.929688 6.714844 L 129.929688 11.140625 C 129.929688 11.667969 130 12.308594 130.707031 12.308594 C 131.292969 12.308594 131.753906 12.003906 131.933594 11.878906 L 131.933594 6.953125 C 131.933594 6.757813 132.03125 6.742188 132.199219 6.699219 L 133.367188 6.464844 C 133.410156 6.464844 133.546875 6.421875 133.601563 6.421875 C 133.671875 6.421875 133.703125 6.476563 133.703125 6.714844 L 133.703125 11.058594 C 133.703125 13.019531 133.964844 12.910156 133.964844 13.230469 C 133.964844 13.296875 133.910156 13.355469 133.8125 13.382813 L 132.753906 13.730469 "/>
<path style=" stroke:none;fill-rule:nonzero;fill:rgb(1.960754%,20.783997%,47.842407%);fill-opacity:1;" d="M 137.445313 13.339844 C 137.445313 13.492188 137.417969 13.535156 137.25 13.535156 L 135.871094 13.535156 C 135.707031 13.535156 135.675781 13.492188 135.675781 13.339844 L 135.675781 9.136719 C 135.675781 7.605469 135.316406 7.355469 135.316406 7.035156 C 135.316406 6.980469 135.371094 6.9375 135.441406 6.910156 L 136.5 6.476563 C 136.554688 6.464844 136.625 6.421875 136.679688 6.421875 C 136.847656 6.421875 137.125 7.050781 137.195313 7.523438 C 137.460938 7.203125 137.972656 6.421875 138.921875 6.421875 C 139.324219 6.421875 139.726563 6.5625 139.726563 6.742188 C 139.726563 6.796875 139.714844 6.855469 139.699219 6.882813 L 139.269531 8.050781 C 139.253906 8.09375 139.210938 8.175781 139.15625 8.175781 C 139.074219 8.175781 138.824219 8.023438 138.503906 8.023438 C 138.070313 8.023438 137.625 8.496094 137.445313 8.691406 L 137.445313 13.339844 "/>
<path style=" stroke:none;fill-rule:nonzero;fill:rgb(1.960754%,20.783997%,47.842407%);fill-opacity:1;" d="M 141.96875 5.753906 C 141.328125 5.753906 140.8125 5.238281 140.8125 4.601563 C 140.8125 3.960938 141.328125 3.457031 141.96875 3.457031 C 142.59375 3.457031 143.109375 3.960938 143.109375 4.601563 C 143.109375 5.238281 142.59375 5.753906 141.96875 5.753906 Z M 142.859375 13.339844 C 142.859375 13.492188 142.832031 13.535156 142.664063 13.535156 L 141.285156 13.535156 C 141.121094 13.535156 141.089844 13.492188 141.089844 13.339844 L 141.089844 7.953125 L 140.019531 7.953125 C 139.855469 7.953125 139.824219 7.910156 139.824219 7.757813 L 139.824219 6.855469 C 139.824219 6.699219 139.855469 6.660156 140.019531 6.660156 L 142.664063 6.660156 C 142.832031 6.660156 142.859375 6.699219 142.859375 6.855469 L 142.859375 13.339844 "/>
<path style=" stroke:none;fill-rule:nonzero;fill:rgb(1.960754%,20.783997%,47.842407%);fill-opacity:1;" d="M 149.082031 13.132813 C 149.09375 13.199219 149.109375 13.199219 149.109375 13.242188 C 149.109375 13.507813 148.09375 13.769531 147.144531 13.769531 C 145.351563 13.769531 145.351563 12.367188 145.351563 11.085938 L 145.351563 7.953125 L 144.363281 7.953125 C 144.195313 7.953125 144.167969 7.910156 144.167969 7.757813 L 144.167969 6.855469 C 144.167969 6.699219 144.195313 6.660156 144.363281 6.660156 L 145.351563 6.660156 L 145.351563 4.90625 C 145.351563 4.726563 145.378906 4.683594 145.574219 4.65625 L 146.796875 4.488281 C 146.839844 4.488281 146.894531 4.472656 146.980469 4.472656 C 147.105469 4.472656 147.117188 4.542969 147.117188 4.710938 L 147.117188 6.660156 L 148.707031 6.660156 C 148.832031 6.660156 148.941406 6.660156 148.941406 6.8125 C 148.941406 6.839844 148.941406 6.867188 148.925781 6.925781 L 148.746094 7.746094 C 148.707031 7.941406 148.664063 7.953125 148.496094 7.953125 L 147.117188 7.953125 L 147.117188 11.324219 C 147.117188 11.765625 147.117188 12.171875 147.589844 12.171875 C 148.148438 12.171875 148.496094 11.90625 148.691406 11.90625 C 148.746094 11.90625 148.789063 11.933594 148.800781 11.988281 L 149.082031 13.132813 "/>
<path style=" stroke:none;fill-rule:nonzero;fill:rgb(1.960754%,20.783997%,47.842407%);fill-opacity:1;" d="M 153.8125 6.828125 C 153.855469 6.671875 153.925781 6.535156 154.050781 6.535156 C 154.105469 6.535156 154.257813 6.546875 154.300781 6.546875 L 155.273438 6.671875 C 155.480469 6.699219 155.582031 6.714844 155.582031 6.8125 C 155.582031 6.867188 155.539063 6.953125 155.511719 7.0625 L 154.148438 12.089844 C 153.894531 12.992188 153.519531 14.410156 153.214844 15.175781 C 152.808594 16.191406 151.949219 16.484375 151.167969 16.484375 C 150.402344 16.484375 149.277344 16.109375 149.277344 15.84375 C 149.277344 15.789063 149.304688 15.734375 149.332031 15.679688 L 149.75 14.773438 C 149.777344 14.703125 149.832031 14.675781 149.875 14.675781 C 150.011719 14.675781 150.445313 15.023438 151.058594 15.023438 C 151.78125 15.023438 151.988281 14.59375 152.171875 13.996094 L 152.308594 13.535156 L 151.726563 13.535156 C 151.542969 13.535156 151.515625 13.480469 151.472656 13.355469 L 149.34375 7.0625 C 149.332031 7.035156 149.289063 6.925781 149.277344 6.828125 C 149.277344 6.714844 149.371094 6.699219 149.582031 6.671875 L 150.738281 6.546875 C 150.777344 6.546875 150.933594 6.535156 150.960938 6.535156 C 151.070313 6.535156 151.113281 6.671875 151.152344 6.8125 L 152.058594 10.179688 C 152.226563 10.804688 152.503906 12.117188 152.585938 12.589844 L 152.617188 12.589844 C 152.683594 12.046875 153.019531 10.429688 153.074219 10.179688 L 153.8125 6.828125 "/>
<path style=" stroke:none;fill-rule:nonzero;fill:rgb(1.960754%,20.783997%,47.842407%);fill-opacity:1;" d="M 164.277344 7.339844 C 164.152344 6.796875 164.042969 5.976563 163.972656 5.394531 L 163.945313 5.394531 C 163.886719 5.976563 163.765625 6.785156 163.625 7.339844 L 163.011719 9.734375 L 164.847656 9.734375 Z M 162.230469 13.242188 C 162.175781 13.492188 162.148438 13.535156 161.941406 13.535156 L 160.535156 13.535156 C 160.351563 13.535156 160.269531 13.507813 160.257813 13.410156 C 160.257813 13.339844 160.296875 13.230469 160.3125 13.171875 L 163.054688 4.210938 C 163.109375 4.03125 163.125 4 163.359375 4 L 164.808594 4 C 165.015625 4 165.042969 4.058594 165.101563 4.222656 L 167.828125 13.199219 C 167.839844 13.257813 167.882813 13.367188 167.882813 13.421875 C 167.882813 13.507813 167.742188 13.535156 167.605469 13.535156 L 166.046875 13.535156 C 165.90625 13.535156 165.878906 13.492188 165.808594 13.242188 L 165.199219 10.988281 L 162.804688 10.988281 L 162.230469 13.242188 "/>
<path style=" stroke:none;fill-rule:nonzero;fill:rgb(1.960754%,20.783997%,47.842407%);fill-opacity:1;" d="M 173.480469 13.730469 C 173.398438 13.757813 173.328125 13.769531 173.273438 13.769531 C 173.089844 13.769531 172.980469 13.507813 172.824219 12.949219 C 172.449219 13.285156 171.796875 13.769531 170.695313 13.769531 C 169.929688 13.769531 168.886719 13.421875 168.886719 11.738281 L 168.886719 6.953125 C 168.886719 6.757813 168.984375 6.742188 169.152344 6.699219 L 170.320313 6.464844 C 170.363281 6.464844 170.5 6.421875 170.542969 6.421875 C 170.628906 6.421875 170.65625 6.476563 170.65625 6.714844 L 170.65625 11.140625 C 170.65625 11.667969 170.722656 12.308594 171.433594 12.308594 C 172.019531 12.308594 172.476563 12.003906 172.660156 11.878906 L 172.660156 6.953125 C 172.660156 6.757813 172.757813 6.742188 172.925781 6.699219 L 174.09375 6.464844 C 174.132813 6.464844 174.273438 6.421875 174.328125 6.421875 C 174.398438 6.421875 174.425781 6.476563 174.425781 6.714844 L 174.425781 11.058594 C 174.425781 13.019531 174.691406 12.910156 174.691406 13.230469 C 174.691406 13.296875 174.636719 13.355469 174.539063 13.382813 L 173.480469 13.730469 "/>
<path style=" stroke:none;fill-rule:nonzero;fill:rgb(1.960754%,20.783997%,47.842407%);fill-opacity:1;" d="M 180.523438 13.132813 C 180.535156 13.199219 180.550781 13.199219 180.550781 13.242188 C 180.550781 13.507813 179.535156 13.769531 178.589844 13.769531 C 176.792969 13.769531 176.792969 12.367188 176.792969 11.085938 L 176.792969 7.953125 L 175.804688 7.953125 C 175.636719 7.953125 175.609375 7.910156 175.609375 7.757813 L 175.609375 6.855469 C 175.609375 6.699219 175.636719 6.660156 175.804688 6.660156 L 176.792969 6.660156 L 176.792969 4.90625 C 176.792969 4.726563 176.820313 4.683594 177.015625 4.65625 L 178.242188 4.488281 C 178.28125 4.488281 178.335938 4.472656 178.421875 4.472656 C 178.546875 4.472656 178.5625 4.542969 178.5625 4.710938 L 178.5625 6.660156 L 180.148438 6.660156 C 180.273438 6.660156 180.382813 6.660156 180.382813 6.8125 C 180.382813 6.839844 180.382813 6.867188 180.371094 6.925781 L 180.1875 7.746094 C 180.148438 7.941406 180.105469 7.953125 179.9375 7.953125 L 178.5625 7.953125 L 178.5625 11.324219 C 178.5625 11.765625 178.5625 12.171875 179.03125 12.171875 C 179.589844 12.171875 179.9375 11.90625 180.132813 11.90625 C 180.1875 11.90625 180.230469 11.933594 180.246094 11.988281 L 180.523438 13.132813 "/>
<path style=" stroke:none;fill-rule:nonzero;fill:rgb(1.960754%,20.783997%,47.842407%);fill-opacity:1;" d="M 187.078125 13.339844 C 187.078125 13.492188 187.050781 13.535156 186.882813 13.535156 L 185.503906 13.535156 C 185.339844 13.535156 185.308594 13.492188 185.308594 13.339844 L 185.308594 9.054688 C 185.308594 8.523438 185.242188 7.882813 184.53125 7.882813 C 183.945313 7.882813 183.527344 8.300781 183.347656 8.46875 L 183.347656 13.339844 C 183.347656 13.492188 183.320313 13.535156 183.152344 13.535156 L 181.773438 13.535156 C 181.609375 13.535156 181.582031 13.492188 181.582031 13.339844 L 181.582031 3.988281 C 181.582031 3.777344 181.675781 3.777344 181.84375 3.738281 L 183.011719 3.5 C 183.054688 3.5 183.179688 3.457031 183.207031 3.457031 C 183.320313 3.457031 183.347656 3.515625 183.347656 3.75 L 183.347656 7.214844 C 183.722656 6.910156 184.28125 6.421875 185.269531 6.421875 C 186.742188 6.421875 187.078125 7.410156 187.078125 8.621094 L 187.078125 13.339844 "/>
<path style=" stroke:none;fill-rule:nonzero;fill:rgb(1.960754%,20.783997%,47.842407%);fill-opacity:1;" d="M 192.796875 10.097656 C 192.796875 8.800781 192.617188 7.816406 191.65625 7.816406 C 190.695313 7.816406 190.515625 8.800781 190.515625 10.097656 C 190.515625 11.390625 190.683594 12.378906 191.65625 12.378906 C 192.628906 12.378906 192.796875 11.40625 192.796875 10.097656 Z M 191.65625 13.769531 C 189.777344 13.769531 188.636719 12.335938 188.636719 10.097656 C 188.636719 7.855469 189.777344 6.421875 191.65625 6.421875 C 193.523438 6.421875 194.675781 7.855469 194.675781 10.097656 C 194.675781 12.335938 193.535156 13.769531 191.65625 13.769531 "/>
<path style=" stroke:none;fill-rule:nonzero;fill:rgb(1.960754%,20.783997%,47.842407%);fill-opacity:1;" d="M 198.015625 13.339844 C 198.015625 13.492188 197.988281 13.535156 197.820313 13.535156 L 196.445313 13.535156 C 196.277344 13.535156 196.25 13.492188 196.25 13.339844 L 196.25 9.136719 C 196.25 7.605469 195.886719 7.355469 195.886719 7.035156 C 195.886719 6.980469 195.941406 6.9375 196.011719 6.910156 L 197.070313 6.476563 C 197.125 6.464844 197.195313 6.421875 197.25 6.421875 C 197.417969 6.421875 197.695313 7.050781 197.765625 7.523438 C 198.03125 7.203125 198.546875 6.421875 199.492188 6.421875 C 199.894531 6.421875 200.296875 6.5625 200.296875 6.742188 C 200.296875 6.796875 200.285156 6.855469 200.269531 6.882813 L 199.839844 8.050781 C 199.824219 8.09375 199.785156 8.175781 199.726563 8.175781 C 199.644531 8.175781 199.394531 8.023438 199.074219 8.023438 C 198.644531 8.023438 198.199219 8.496094 198.015625 8.691406 L 198.015625 13.339844 "/>
<path style=" stroke:none;fill-rule:nonzero;fill:rgb(1.960754%,20.783997%,47.842407%);fill-opacity:1;" d="M 202.539063 5.753906 C 201.898438 5.753906 201.386719 5.238281 201.386719 4.601563 C 201.386719 3.960938 201.898438 3.457031 202.539063 3.457031 C 203.164063 3.457031 203.683594 3.960938 203.683594 4.601563 C 203.683594 5.238281 203.164063 5.753906 202.539063 5.753906 Z M 203.429688 13.339844 C 203.429688 13.492188 203.402344 13.535156 203.238281 13.535156 L 201.859375 13.535156 C 201.691406 13.535156 201.664063 13.492188 201.664063 13.339844 L 201.664063 7.953125 L 200.589844 7.953125 C 200.425781 7.953125 200.394531 7.910156 200.394531 7.757813 L 200.394531 6.855469 C 200.394531 6.699219 200.425781 6.660156 200.589844 6.660156 L 203.238281 6.660156 C 203.402344 6.660156 203.429688 6.699219 203.429688 6.855469 L 203.429688 13.339844 "/>
<path style=" stroke:none;fill-rule:nonzero;fill:rgb(1.960754%,20.783997%,47.842407%);fill-opacity:1;" d="M 209.652344 13.132813 C 209.664063 13.199219 209.679688 13.199219 209.679688 13.242188 C 209.679688 13.507813 208.664063 13.769531 207.71875 13.769531 C 205.921875 13.769531 205.921875 12.367188 205.921875 11.085938 L 205.921875 7.953125 L 204.933594 7.953125 C 204.765625 7.953125 204.738281 7.910156 204.738281 7.757813 L 204.738281 6.855469 C 204.738281 6.699219 204.765625 6.660156 204.933594 6.660156 L 205.921875 6.660156 L 205.921875 4.90625 C 205.921875 4.726563 205.949219 4.683594 206.144531 4.65625 L 207.371094 4.488281 C 207.410156 4.488281 207.46875 4.472656 207.550781 4.472656 C 207.675781 4.472656 207.691406 4.542969 207.691406 4.710938 L 207.691406 6.660156 L 209.277344 6.660156 C 209.402344 6.660156 209.511719 6.660156 209.511719 6.8125 C 209.511719 6.839844 209.511719 6.867188 209.5 6.925781 L 209.316406 7.746094 C 209.277344 7.941406 209.234375 7.953125 209.066406 7.953125 L 207.691406 7.953125 L 207.691406 11.324219 C 207.691406 11.765625 207.691406 12.171875 208.164063 12.171875 C 208.71875 12.171875 209.066406 11.90625 209.261719 11.90625 C 209.316406 11.90625 209.359375 11.933594 209.375 11.988281 L 209.652344 13.132813 "/>
<g clip-path="url(#clip2)" clip-rule="nonzero">
<path style=" stroke:none;fill-rule:nonzero;fill:rgb(1.960754%,20.783997%,47.842407%);fill-opacity:1;" d="M 214.382813 6.828125 C 214.425781 6.671875 214.496094 6.535156 214.621094 6.535156 C 214.675781 6.535156 214.828125 6.546875 214.871094 6.546875 L 215.84375 6.671875 C 216.054688 6.699219 216.152344 6.714844 216.152344 6.8125 C 216.152344 6.867188 216.109375 6.953125 216.082031 7.0625 L 214.71875 12.089844 C 214.46875 12.992188 214.089844 14.410156 213.785156 15.175781 C 213.382813 16.191406 212.519531 16.484375 211.742188 16.484375 C 210.972656 16.484375 209.847656 16.109375 209.847656 15.84375 C 209.847656 15.789063 209.875 15.734375 209.902344 15.679688 L 210.320313 14.773438 C 210.347656 14.703125 210.402344 14.675781 210.445313 14.675781 C 210.585938 14.675781 211.015625 15.023438 211.628906 15.023438 C 212.351563 15.023438 212.558594 14.59375 212.742188 13.996094 L 212.878906 13.535156 L 212.296875 13.535156 C 212.117188 13.535156 212.085938 13.480469 212.046875 13.355469 L 209.914063 7.0625 C 209.902344 7.035156 209.859375 6.925781 209.847656 6.828125 C 209.847656 6.714844 209.945313 6.699219 210.152344 6.671875 L 211.308594 6.546875 C 211.351563 6.546875 211.503906 6.535156 211.53125 6.535156 C 211.640625 6.535156 211.683594 6.671875 211.726563 6.8125 L 212.628906 10.179688 C 212.796875 10.804688 213.074219 12.117188 213.160156 12.589844 L 213.1875 12.589844 C 213.257813 12.046875 213.589844 10.429688 213.644531 10.179688 L 214.382813 6.828125 "/>
</g>
<path style=" stroke:none;fill-rule:nonzero;fill:rgb(35.68573%,43.528748%,48.626709%);fill-opacity:1;" d="M 41.222656 22.804688 C 41.117188 22.398438 40.984375 21.921875 40.921875 21.554688 L 40.894531 21.554688 C 40.839844 21.871094 40.710938 22.449219 40.617188 22.804688 L 39.816406 25.710938 L 42.011719 25.710938 Z M 44.167969 29.011719 C 44.195313 29.101563 44.222656 29.167969 44.234375 29.234375 C 44.234375 29.300781 44.179688 29.3125 44.050781 29.3125 L 43.234375 29.3125 C 43.078125 29.3125 43.023438 29.261719 43 29.167969 L 42.261719 26.632813 L 39.566406 26.632813 L 38.894531 29.167969 C 38.871094 29.261719 38.816406 29.3125 38.660156 29.3125 L 37.84375 29.3125 C 37.710938 29.3125 37.660156 29.300781 37.660156 29.234375 C 37.671875 29.167969 37.6875 29.101563 37.726563 29.011719 L 40.355469 20.449219 C 40.394531 20.320313 40.40625 20.304688 40.554688 20.304688 L 41.328125 20.304688 C 41.433594 20.304688 41.472656 20.304688 41.527344 20.449219 L 44.167969 29.011719 "/>
<path style=" stroke:none;fill-rule:nonzero;fill:rgb(35.68573%,43.528748%,48.626709%);fill-opacity:1;" d="M 50.335938 29.15625 C 50.335938 29.261719 50.28125 29.3125 50.175781 29.3125 L 49.492188 29.3125 C 49.390625 29.3125 49.335938 29.261719 49.335938 29.15625 L 49.335938 24.765625 C 49.335938 24.199219 49.191406 23.699219 48.480469 23.699219 C 47.628906 23.699219 47.074219 24.210938 46.746094 24.5 L 46.746094 29.15625 C 46.746094 29.261719 46.695313 29.3125 46.589844 29.3125 L 45.90625 29.3125 C 45.800781 29.3125 45.746094 29.261719 45.746094 29.15625 L 45.746094 24.617188 C 45.746094 24.183594 45.746094 24.039063 45.695313 23.84375 C 45.589844 23.449219 45.484375 23.355469 45.484375 23.289063 C 45.484375 23.265625 45.496094 23.238281 45.550781 23.199219 L 46.140625 22.871094 C 46.167969 22.855469 46.207031 22.816406 46.246094 22.816406 C 46.480469 22.816406 46.640625 23.605469 46.652344 23.710938 C 47.085938 23.371094 47.769531 22.816406 48.769531 22.816406 C 50.230469 22.816406 50.335938 23.84375 50.335938 24.789063 L 50.335938 29.15625 "/>
<path style=" stroke:none;fill-rule:nonzero;fill:rgb(35.68573%,43.528748%,48.626709%);fill-opacity:1;" d="M 59.90625 28.828125 C 59.917969 28.878906 59.933594 28.917969 59.933594 28.957031 C 59.933594 29.128906 58.949219 29.496094 58.238281 29.496094 C 57.671875 29.496094 57.199219 29.285156 57 29.035156 C 56.621094 28.628906 56.621094 28.039063 56.621094 27.550781 L 56.621094 23.816406 L 55.632813 23.816406 C 55.542969 23.816406 55.542969 23.722656 55.542969 23.660156 L 55.542969 23.160156 C 55.542969 23.066406 55.542969 23.003906 55.632813 23.003906 L 56.621094 23.003906 L 56.621094 21.199219 C 56.621094 21.121094 56.671875 21.070313 56.765625 21.042969 L 57.460938 20.84375 C 57.5 20.84375 57.527344 20.832031 57.554688 20.832031 C 57.617188 20.832031 57.617188 20.898438 57.617188 20.976563 L 57.617188 23.003906 L 59.566406 23.003906 C 59.644531 23.003906 59.710938 23.015625 59.710938 23.09375 C 59.710938 23.121094 59.695313 23.148438 59.695313 23.1875 L 59.527344 23.699219 C 59.5 23.765625 59.433594 23.816406 59.355469 23.816406 L 57.617188 23.816406 L 57.617188 27.550781 C 57.617188 28.078125 57.617188 28.617188 58.40625 28.617188 C 59.027344 28.617188 59.550781 28.261719 59.671875 28.261719 C 59.722656 28.261719 59.761719 28.300781 59.761719 28.339844 L 59.90625 28.828125 "/>
<path style=" stroke:none;fill-rule:nonzero;fill:rgb(35.68573%,43.528748%,48.626709%);fill-opacity:1;" d="M 63.0625 19.347656 C 63.023438 19.371094 62.984375 19.386719 62.929688 19.386719 C 62.894531 19.386719 62.851563 19.347656 62.8125 19.28125 L 62.695313 19.097656 C 62.667969 19.058594 62.628906 19.003906 62.628906 18.964844 C 62.628906 18.925781 62.679688 18.898438 62.734375 18.847656 L 64.640625 17.375 C 64.667969 17.359375 64.71875 17.308594 64.773438 17.308594 C 64.824219 17.308594 64.863281 17.375 64.902344 17.414063 L 65.285156 17.980469 C 65.3125 18.019531 65.335938 18.058594 65.335938 18.109375 C 65.335938 18.164063 65.285156 18.203125 65.21875 18.230469 Z M 66.652344 26.894531 C 66.652344 28.472656 65.773438 29.496094 63.761719 29.496094 C 61.773438 29.496094 61.039063 28.484375 61.039063 26.894531 L 61.039063 20.464844 C 61.039063 20.359375 61.089844 20.304688 61.195313 20.304688 L 61.957031 20.304688 C 62.0625 20.304688 62.117188 20.359375 62.117188 20.464844 L 62.117188 26.867188 C 62.117188 27.945313 62.535156 28.617188 63.773438 28.617188 C 64.984375 28.617188 65.574219 28.0625 65.574219 26.867188 L 65.574219 20.464844 C 65.574219 20.359375 65.628906 20.304688 65.730469 20.304688 L 66.496094 20.304688 C 66.601563 20.304688 66.652344 20.359375 66.652344 20.464844 L 66.652344 26.894531 "/>
<path style=" stroke:none;fill-rule:nonzero;fill:rgb(35.68573%,43.528748%,48.626709%);fill-opacity:1;" d="M 72.226563 24.132813 C 71.804688 23.910156 71.386719 23.699219 70.726563 23.699219 C 69.597656 23.699219 69.492188 24.988281 69.492188 26.261719 C 69.492188 27.367188 69.585938 28.617188 70.648438 28.617188 C 71.332031 28.617188 71.910156 28.039063 72.226563 27.839844 Z M 73.226563 27.234375 C 73.226563 27.828125 73.226563 28.222656 73.371094 28.550781 C 73.4375 28.707031 73.605469 28.957031 73.605469 29.035156 C 73.605469 29.089844 73.542969 29.117188 73.488281 29.140625 L 72.976563 29.457031 C 72.925781 29.484375 72.898438 29.496094 72.871094 29.496094 C 72.6875 29.496094 72.449219 28.929688 72.398438 28.722656 C 72.082031 28.945313 71.4375 29.496094 70.464844 29.496094 C 69.058594 29.496094 68.414063 27.917969 68.414063 26.289063 C 68.414063 24.394531 69.085938 22.816406 70.609375 22.816406 C 71.425781 22.816406 71.871094 23.039063 72.226563 23.265625 L 72.226563 20.136719 C 72.226563 20.042969 72.265625 19.992188 72.320313 19.976563 L 72.964844 19.820313 C 73.070313 19.792969 73.03125 19.804688 73.121094 19.792969 C 73.226563 19.792969 73.226563 19.898438 73.226563 19.964844 L 73.226563 27.234375 "/>
<path style=" stroke:none;fill-rule:nonzero;fill:rgb(35.68573%,43.528748%,48.626709%);fill-opacity:1;" d="M 78.132813 26.171875 C 77.554688 26.183594 75.675781 26.183594 75.675781 27.5625 C 75.675781 28.089844 75.964844 28.679688 76.632813 28.679688 C 77.316406 28.679688 77.921875 28.050781 78.132813 27.867188 Z M 79.132813 27.234375 C 79.132813 28.0625 79.171875 28.183594 79.289063 28.550781 C 79.34375 28.707031 79.527344 28.957031 79.527344 29.035156 C 79.527344 29.089844 79.460938 29.117188 79.410156 29.140625 L 78.894531 29.457031 C 78.84375 29.484375 78.816406 29.496094 78.792969 29.496094 C 78.59375 29.496094 78.355469 28.800781 78.292969 28.617188 C 78.132813 28.761719 77.488281 29.496094 76.398438 29.496094 C 75.359375 29.496094 74.6875 28.8125 74.6875 27.644531 C 74.6875 25.421875 77.316406 25.382813 78.132813 25.355469 L 78.132813 24.882813 C 78.132813 24.121094 77.898438 23.699219 76.964844 23.699219 C 76.082031 23.699219 75.476563 24.121094 75.359375 24.121094 C 75.320313 24.121094 75.28125 24.09375 75.265625 24.054688 L 75.097656 23.59375 C 75.070313 23.527344 75.058594 23.488281 75.058594 23.421875 C 75.058594 23.199219 76.265625 22.816406 77.105469 22.816406 C 78.621094 22.816406 79.132813 23.554688 79.132813 24.65625 L 79.132813 27.234375 "/>
<path style=" stroke:none;fill-rule:nonzero;fill:rgb(35.68573%,43.528748%,48.626709%);fill-opacity:1;" d="M 82.289063 29.15625 C 82.289063 29.261719 82.234375 29.3125 82.132813 29.3125 L 81.445313 29.3125 C 81.339844 29.3125 81.289063 29.261719 81.289063 29.15625 L 81.289063 24.644531 C 81.289063 24.410156 81.25 23.972656 81.066406 23.644531 C 80.960938 23.460938 80.921875 23.355469 80.921875 23.316406 C 80.933594 23.238281 80.988281 23.199219 81.011719 23.1875 L 81.5 22.882813 C 81.550781 22.84375 81.605469 22.816406 81.628906 22.816406 C 81.867188 22.816406 82.089844 23.632813 82.144531 23.921875 C 82.484375 23.554688 82.957031 22.816406 83.71875 22.816406 C 84.023438 22.816406 84.363281 22.921875 84.363281 23.039063 C 84.363281 23.066406 84.339844 23.105469 84.328125 23.148438 L 84.035156 23.816406 C 84.023438 23.84375 84.011719 23.910156 83.957031 23.910156 C 83.890625 23.910156 83.773438 23.792969 83.523438 23.792969 C 83.066406 23.792969 82.605469 24.472656 82.289063 24.816406 L 82.289063 29.15625 "/>
<path style=" stroke:none;fill-rule:nonzero;fill:rgb(35.68573%,43.528748%,48.626709%);fill-opacity:1;" d="M 86.445313 22.042969 C 86.402344 22.070313 86.363281 22.082031 86.3125 22.082031 C 86.273438 22.082031 86.230469 22.042969 86.191406 21.976563 L 86.074219 21.792969 C 86.046875 21.753906 86.007813 21.699219 86.007813 21.660156 C 86.007813 21.621094 86.0625 21.59375 86.113281 21.542969 L 88.019531 20.070313 C 88.046875 20.058594 88.097656 20.003906 88.152344 20.003906 C 88.207031 20.003906 88.246094 20.070313 88.285156 20.109375 L 88.664063 20.675781 C 88.691406 20.714844 88.71875 20.753906 88.71875 20.804688 C 88.71875 20.859375 88.664063 20.898438 88.601563 20.925781 Z M 88.363281 26.171875 C 87.785156 26.183594 85.902344 26.183594 85.902344 27.5625 C 85.902344 28.089844 86.191406 28.679688 86.863281 28.679688 C 87.546875 28.679688 88.152344 28.050781 88.363281 27.867188 Z M 89.359375 27.234375 C 89.359375 28.0625 89.402344 28.183594 89.519531 28.550781 C 89.574219 28.707031 89.757813 28.957031 89.757813 29.035156 C 89.757813 29.089844 89.691406 29.117188 89.636719 29.140625 L 89.125 29.457031 C 89.074219 29.484375 89.046875 29.496094 89.019531 29.496094 C 88.824219 29.496094 88.585938 28.800781 88.519531 28.617188 C 88.363281 28.761719 87.71875 29.496094 86.625 29.496094 C 85.589844 29.496094 84.917969 28.8125 84.917969 27.644531 C 84.917969 25.421875 87.546875 25.382813 88.363281 25.355469 L 88.363281 24.882813 C 88.363281 24.121094 88.125 23.699219 87.191406 23.699219 C 86.3125 23.699219 85.707031 24.121094 85.589844 24.121094 C 85.546875 24.121094 85.507813 24.09375 85.496094 24.054688 L 85.324219 23.59375 C 85.296875 23.527344 85.285156 23.488281 85.285156 23.421875 C 85.285156 23.199219 86.496094 22.816406 87.335938 22.816406 C 88.847656 22.816406 89.359375 23.554688 89.359375 24.65625 L 89.359375 27.234375 "/>
<path style=" stroke:none;fill-rule:nonzero;fill:rgb(35.68573%,43.528748%,48.626709%);fill-opacity:1;" d="M 94.503906 23.871094 C 94.449219 23.972656 94.425781 24.027344 94.34375 24.027344 C 94.253906 24.027344 93.703125 23.671875 93.019531 23.671875 C 92.492188 23.671875 92.042969 23.9375 92.042969 24.539063 C 92.042969 25.988281 94.964844 25.578125 94.964844 27.628906 C 94.964844 28.867188 93.988281 29.496094 92.859375 29.496094 C 92.226563 29.496094 90.859375 29.128906 90.859375 28.867188 C 90.859375 28.800781 90.886719 28.761719 90.914063 28.707031 L 91.097656 28.300781 C 91.136719 28.207031 91.175781 28.183594 91.21875 28.183594 C 91.335938 28.183594 92.019531 28.644531 92.910156 28.644531 C 93.476563 28.644531 93.964844 28.328125 93.964844 27.695313 C 93.964844 26.328125 91.046875 26.632813 91.046875 24.644531 C 91.046875 23.582031 91.871094 22.816406 93.03125 22.816406 C 93.476563 22.816406 94.238281 23.027344 94.582031 23.210938 C 94.6875 23.265625 94.726563 23.316406 94.726563 23.382813 C 94.726563 23.421875 94.6875 23.460938 94.671875 23.515625 L 94.503906 23.871094 "/>
<path style=" stroke:none;fill-rule:nonzero;fill:rgb(35.68573%,43.528748%,48.626709%);fill-opacity:1;" d="M 104.5625 21.425781 C 104.507813 21.527344 104.507813 21.59375 104.417969 21.59375 C 104.363281 21.59375 104.300781 21.570313 104.234375 21.527344 C 103.980469 21.398438 103.3125 21.070313 102.5625 21.070313 C 101.773438 21.070313 101.167969 21.476563 101.167969 22.359375 C 101.167969 23.738281 102.894531 23.988281 103.945313 24.855469 C 104.652344 25.433594 105.007813 26.050781 105.007813 26.921875 C 105.007813 28.523438 103.824219 29.496094 102.222656 29.496094 C 101 29.496094 100.023438 28.929688 99.828125 28.839844 C 99.761719 28.8125 99.722656 28.761719 99.722656 28.695313 C 99.722656 28.65625 99.761719 28.589844 99.773438 28.539063 L 99.949219 28.101563 C 99.984375 28 100.011719 27.933594 100.089844 27.933594 C 100.144531 27.933594 100.210938 27.960938 100.273438 28 C 100.539063 28.117188 101.339844 28.550781 102.261719 28.550781 C 103.246094 28.550781 103.824219 27.933594 103.824219 27.050781 C 103.824219 24.867188 99.984375 25.199219 99.984375 22.476563 C 99.984375 20.964844 101.234375 20.121094 102.601563 20.121094 C 103.652344 20.121094 104.496094 20.59375 104.679688 20.6875 C 104.746094 20.726563 104.785156 20.792969 104.785156 20.832031 C 104.785156 20.871094 104.746094 20.9375 104.730469 20.992188 L 104.5625 21.425781 "/>
<path style=" stroke:none;fill-rule:nonzero;fill:rgb(35.68573%,43.528748%,48.626709%);fill-opacity:1;" d="M 108.992188 29.078125 C 109.007813 29.101563 109.019531 29.140625 109.019531 29.167969 C 109.019531 29.3125 108.386719 29.496094 107.902344 29.496094 C 107.257813 29.496094 106.824219 29.234375 106.664063 28.867188 C 106.480469 28.433594 106.480469 27.417969 106.480469 26.960938 L 106.480469 20.136719 C 106.480469 20.042969 106.519531 19.992188 106.574219 19.976563 L 107.230469 19.820313 C 107.335938 19.792969 107.296875 19.804688 107.386719 19.792969 C 107.480469 19.792969 107.480469 19.898438 107.480469 19.964844 L 107.480469 26.984375 C 107.480469 27.394531 107.492188 28.0625 107.519531 28.222656 C 107.546875 28.367188 107.664063 28.679688 108.046875 28.679688 C 108.386719 28.679688 108.636719 28.511719 108.730469 28.511719 C 108.808594 28.511719 108.808594 28.550781 108.824219 28.589844 L 108.992188 29.078125 "/>
<path style=" stroke:none;fill-rule:nonzero;fill:rgb(35.68573%,43.528748%,48.626709%);fill-opacity:1;" d="M 111.03125 22.042969 C 110.992188 22.070313 110.953125 22.082031 110.898438 22.082031 C 110.859375 22.082031 110.820313 22.042969 110.78125 21.976563 L 110.664063 21.792969 C 110.636719 21.753906 110.597656 21.699219 110.597656 21.660156 C 110.597656 21.621094 110.648438 21.59375 110.703125 21.542969 L 112.609375 20.070313 C 112.632813 20.058594 112.6875 20.003906 112.738281 20.003906 C 112.792969 20.003906 112.832031 20.070313 112.871094 20.109375 L 113.253906 20.675781 C 113.28125 20.714844 113.304688 20.753906 113.304688 20.804688 C 113.304688 20.859375 113.253906 20.898438 113.1875 20.925781 Z M 112.949219 26.171875 C 112.371094 26.183594 110.492188 26.183594 110.492188 27.5625 C 110.492188 28.089844 110.78125 28.679688 111.449219 28.679688 C 112.136719 28.679688 112.738281 28.050781 112.949219 27.867188 Z M 113.949219 27.234375 C 113.949219 28.0625 113.988281 28.183594 114.109375 28.550781 C 114.160156 28.707031 114.34375 28.957031 114.34375 29.035156 C 114.34375 29.089844 114.277344 29.117188 114.226563 29.140625 L 113.710938 29.457031 C 113.660156 29.484375 113.632813 29.496094 113.605469 29.496094 C 113.410156 29.496094 113.175781 28.800781 113.109375 28.617188 C 112.949219 28.761719 112.304688 29.496094 111.214844 29.496094 C 110.175781 29.496094 109.503906 28.8125 109.503906 27.644531 C 109.503906 25.421875 112.136719 25.382813 112.949219 25.355469 L 112.949219 24.882813 C 112.949219 24.121094 112.714844 23.699219 111.78125 23.699219 C 110.898438 23.699219 110.292969 24.121094 110.175781 24.121094 C 110.136719 24.121094 110.097656 24.09375 110.085938 24.054688 L 109.914063 23.59375 C 109.886719 23.527344 109.875 23.488281 109.875 23.421875 C 109.875 23.199219 111.082031 22.816406 111.925781 22.816406 C 113.4375 22.816406 113.949219 23.554688 113.949219 24.65625 L 113.949219 27.234375 "/>
<path style=" stroke:none;fill-rule:nonzero;fill:rgb(35.68573%,43.528748%,48.626709%);fill-opacity:1;" d="M 120.722656 29.15625 C 120.722656 29.261719 120.667969 29.3125 120.5625 29.3125 L 119.878906 29.3125 C 119.773438 29.3125 119.722656 29.261719 119.722656 29.15625 L 119.722656 24.765625 C 119.722656 24.199219 119.578125 23.699219 118.867188 23.699219 C 118.011719 23.699219 117.460938 24.210938 117.132813 24.5 L 117.132813 29.15625 C 117.132813 29.261719 117.078125 29.3125 116.972656 29.3125 L 116.289063 29.3125 C 116.183594 29.3125 116.132813 29.261719 116.132813 29.15625 L 116.132813 24.617188 C 116.132813 24.183594 116.132813 24.039063 116.082031 23.84375 C 115.976563 23.449219 115.867188 23.355469 115.867188 23.289063 C 115.867188 23.265625 115.882813 23.238281 115.933594 23.199219 L 116.527344 22.871094 C 116.554688 22.855469 116.59375 22.816406 116.632813 22.816406 C 116.867188 22.816406 117.027344 23.605469 117.039063 23.710938 C 117.472656 23.371094 118.15625 22.816406 119.15625 22.816406 C 120.617188 22.816406 120.722656 23.84375 120.722656 24.789063 L 120.722656 29.15625 "/>
<path style=" stroke:none;fill-rule:nonzero;fill:rgb(35.68573%,43.528748%,48.626709%);fill-opacity:1;" d="M 126.0625 24.132813 C 125.640625 23.910156 125.21875 23.699219 124.5625 23.699219 C 123.433594 23.699219 123.328125 24.988281 123.328125 26.261719 C 123.328125 27.367188 123.417969 28.617188 124.484375 28.617188 C 125.167969 28.617188 125.746094 28.039063 126.0625 27.839844 Z M 127.0625 27.234375 C 127.0625 27.828125 127.0625 28.222656 127.203125 28.550781 C 127.269531 28.707031 127.441406 28.957031 127.441406 29.035156 C 127.441406 29.089844 127.378906 29.117188 127.324219 29.140625 L 126.8125 29.457031 C 126.757813 29.484375 126.734375 29.496094 126.707031 29.496094 C 126.523438 29.496094 126.285156 28.929688 126.234375 28.722656 C 125.917969 28.945313 125.273438 29.496094 124.300781 29.496094 C 122.894531 29.496094 122.25 27.917969 122.25 26.289063 C 122.25 24.394531 122.917969 22.816406 124.445313 22.816406 C 125.261719 22.816406 125.707031 23.039063 126.0625 23.265625 L 126.0625 20.136719 C 126.0625 20.042969 126.101563 19.992188 126.152344 19.976563 L 126.796875 19.820313 C 126.902344 19.792969 126.863281 19.804688 126.953125 19.792969 C 127.0625 19.792969 127.0625 19.898438 127.0625 19.964844 L 127.0625 27.234375 "/>
<path style=" stroke:none;fill-rule:nonzero;fill:rgb(35.68573%,43.528748%,48.626709%);fill-opacity:1;" d="M 130.285156 22.042969 C 130.242188 22.070313 130.203125 22.082031 130.152344 22.082031 C 130.113281 22.082031 130.070313 22.042969 130.03125 21.976563 L 129.914063 21.792969 C 129.886719 21.753906 129.847656 21.699219 129.847656 21.660156 C 129.847656 21.621094 129.902344 21.59375 129.953125 21.542969 L 131.859375 20.070313 C 131.886719 20.058594 131.9375 20.003906 131.992188 20.003906 C 132.042969 20.003906 132.082031 20.070313 132.125 20.109375 L 132.503906 20.675781 C 132.53125 20.714844 132.558594 20.753906 132.558594 20.804688 C 132.558594 20.859375 132.503906 20.898438 132.4375 20.925781 Z M 132.203125 26.171875 C 131.625 26.183594 129.742188 26.183594 129.742188 27.5625 C 129.742188 28.089844 130.03125 28.679688 130.703125 28.679688 C 131.386719 28.679688 131.992188 28.050781 132.203125 27.867188 Z M 133.199219 27.234375 C 133.199219 28.0625 133.242188 28.183594 133.359375 28.550781 C 133.410156 28.707031 133.597656 28.957031 133.597656 29.035156 C 133.597656 29.089844 133.53125 29.117188 133.476563 29.140625 L 132.964844 29.457031 C 132.910156 29.484375 132.886719 29.496094 132.859375 29.496094 C 132.664063 29.496094 132.425781 28.800781 132.359375 28.617188 C 132.203125 28.761719 131.558594 29.496094 130.464844 29.496094 C 129.425781 29.496094 128.757813 28.8125 128.757813 27.644531 C 128.757813 25.421875 131.386719 25.382813 132.203125 25.355469 L 132.203125 24.882813 C 132.203125 24.121094 131.964844 23.699219 131.03125 23.699219 C 130.152344 23.699219 129.546875 24.121094 129.425781 24.121094 C 129.386719 24.121094 129.347656 24.09375 129.335938 24.054688 L 129.164063 23.59375 C 129.136719 23.527344 129.125 23.488281 129.125 23.421875 C 129.125 23.199219 130.335938 22.816406 131.175781 22.816406 C 132.6875 22.816406 133.199219 23.554688 133.199219 24.65625 L 133.199219 27.234375 "/>
<path style=" stroke:none;fill-rule:nonzero;fill:rgb(35.68573%,43.528748%,48.626709%);fill-opacity:1;" d="M 137.738281 29.078125 C 137.75 29.101563 137.765625 29.140625 137.765625 29.167969 C 137.765625 29.3125 137.132813 29.496094 136.644531 29.496094 C 136 29.496094 135.566406 29.234375 135.410156 28.867188 C 135.226563 28.433594 135.226563 27.417969 135.226563 26.960938 L 135.226563 20.136719 C 135.226563 20.042969 135.265625 19.992188 135.316406 19.976563 L 135.976563 19.820313 C 136.082031 19.792969 136.042969 19.804688 136.132813 19.792969 C 136.226563 19.792969 136.226563 19.898438 136.226563 19.964844 L 136.226563 26.984375 C 136.226563 27.394531 136.238281 28.0625 136.265625 28.222656 C 136.289063 28.367188 136.410156 28.679688 136.792969 28.679688 C 137.132813 28.679688 137.382813 28.511719 137.476563 28.511719 C 137.554688 28.511719 137.554688 28.550781 137.566406 28.589844 L 137.738281 29.078125 "/>
<path style=" stroke:none;fill-rule:nonzero;fill:rgb(35.68573%,43.528748%,48.626709%);fill-opacity:1;" d="M 141.695313 26.171875 C 141.117188 26.183594 139.238281 26.183594 139.238281 27.5625 C 139.238281 28.089844 139.527344 28.679688 140.195313 28.679688 C 140.878906 28.679688 141.484375 28.050781 141.695313 27.867188 Z M 142.695313 27.234375 C 142.695313 28.0625 142.734375 28.183594 142.851563 28.550781 C 142.902344 28.707031 143.089844 28.957031 143.089844 29.035156 C 143.089844 29.089844 143.023438 29.117188 142.96875 29.140625 L 142.457031 29.457031 C 142.40625 29.484375 142.378906 29.496094 142.351563 29.496094 C 142.15625 29.496094 141.917969 28.800781 141.851563 28.617188 C 141.695313 28.761719 141.050781 29.496094 139.960938 29.496094 C 138.921875 29.496094 138.25 28.8125 138.25 27.644531 C 138.25 25.421875 140.878906 25.382813 141.695313 25.355469 L 141.695313 24.882813 C 141.695313 24.121094 141.460938 23.699219 140.523438 23.699219 C 139.644531 23.699219 139.039063 24.121094 138.921875 24.121094 C 138.882813 24.121094 138.839844 24.09375 138.828125 24.054688 L 138.65625 23.59375 C 138.632813 23.527344 138.617188 23.488281 138.617188 23.421875 C 138.617188 23.199219 139.828125 22.816406 140.667969 22.816406 C 142.183594 22.816406 142.695313 23.554688 142.695313 24.65625 L 142.695313 27.234375 "/>
<path style=" stroke:none;fill-rule:nonzero;fill:rgb(35.68573%,43.528748%,48.626709%);fill-opacity:1;" d="M 150.820313 24.59375 C 151.792969 24.59375 152.675781 24.34375 152.675781 22.726563 C 152.675781 21.265625 151.726563 21.226563 150.976563 21.226563 L 149.964844 21.226563 L 149.964844 24.59375 Z M 149.964844 29.15625 C 149.964844 29.261719 149.914063 29.3125 149.808594 29.3125 L 149.046875 29.3125 C 148.941406 29.3125 148.886719 29.261719 148.886719 29.15625 L 148.886719 20.464844 C 148.886719 20.359375 148.941406 20.304688 149.046875 20.304688 L 151.082031 20.304688 C 152.097656 20.304688 153.753906 20.371094 153.753906 22.699219 C 153.753906 24.921875 152.292969 25.511719 150.914063 25.511719 L 149.964844 25.511719 L 149.964844 29.15625 "/>
<path style=" stroke:none;fill-rule:nonzero;fill:rgb(35.68573%,43.528748%,48.626709%);fill-opacity:1;" d="M 156.316406 29.15625 C 156.316406 29.261719 156.265625 29.3125 156.160156 29.3125 L 155.472656 29.3125 C 155.371094 29.3125 155.316406 29.261719 155.316406 29.15625 L 155.316406 24.644531 C 155.316406 24.410156 155.277344 23.972656 155.09375 23.644531 C 154.988281 23.460938 154.949219 23.355469 154.949219 23.316406 C 154.960938 23.238281 155.015625 23.199219 155.039063 23.1875 L 155.527344 22.882813 C 155.582031 22.84375 155.632813 22.816406 155.660156 22.816406 C 155.894531 22.816406 156.117188 23.632813 156.171875 23.921875 C 156.515625 23.554688 156.984375 22.816406 157.75 22.816406 C 158.050781 22.816406 158.394531 22.921875 158.394531 23.039063 C 158.394531 23.066406 158.367188 23.105469 158.355469 23.148438 L 158.066406 23.816406 C 158.050781 23.84375 158.039063 23.910156 157.984375 23.910156 C 157.921875 23.910156 157.800781 23.792969 157.550781 23.792969 C 157.09375 23.792969 156.632813 24.472656 156.316406 24.816406 L 156.316406 29.15625 "/>
<path style=" stroke:none;fill-rule:nonzero;fill:rgb(35.68573%,43.528748%,48.626709%);fill-opacity:1;" d="M 159.25 22.042969 C 159.207031 22.070313 159.167969 22.082031 159.117188 22.082031 C 159.078125 22.082031 159.039063 22.042969 159 21.976563 L 158.878906 21.792969 C 158.855469 21.753906 158.816406 21.699219 158.816406 21.660156 C 158.816406 21.621094 158.867188 21.59375 158.917969 21.542969 L 160.828125 20.070313 C 160.851563 20.058594 160.90625 20.003906 160.957031 20.003906 C 161.011719 20.003906 161.050781 20.070313 161.089844 20.109375 L 161.472656 20.675781 C 161.496094 20.714844 161.523438 20.753906 161.523438 20.804688 C 161.523438 20.859375 161.472656 20.898438 161.40625 20.925781 Z M 160.839844 29.15625 C 160.839844 29.261719 160.785156 29.3125 160.679688 29.3125 L 159.996094 29.3125 C 159.894531 29.3125 159.839844 29.261719 159.839844 29.15625 L 159.839844 23.816406 L 158.800781 23.816406 C 158.695313 23.816406 158.644531 23.765625 158.644531 23.660156 L 158.644531 23.160156 C 158.644531 23.054688 158.695313 23.003906 158.800781 23.003906 L 160.667969 23.003906 C 160.8125 23.003906 160.839844 23.082031 160.839844 23.199219 L 160.839844 29.15625 "/>
<path style=" stroke:none;fill-rule:nonzero;fill:rgb(35.68573%,43.528748%,48.626709%);fill-opacity:1;" d="M 166.820313 26.105469 C 166.820313 24.816406 166.46875 23.632813 165.285156 23.632813 C 164.101563 23.632813 163.746094 24.765625 163.746094 26.066406 C 163.746094 27.5625 164.085938 28.679688 165.296875 28.679688 C 166.46875 28.679688 166.820313 27.617188 166.820313 26.105469 Z M 165.203125 29.496094 C 163.429688 29.496094 162.667969 28.0625 162.667969 26.183594 C 162.667969 24.367188 163.429688 22.816406 165.335938 22.816406 C 167.136719 22.816406 167.898438 24.265625 167.898438 26.117188 C 167.898438 27.960938 167.125 29.496094 165.203125 29.496094 "/>
<path style=" stroke:none;fill-rule:nonzero;fill:rgb(35.68573%,43.528748%,48.626709%);fill-opacity:1;" d="M 170.675781 28.117188 C 170.976563 28.328125 171.464844 28.617188 172.042969 28.617188 C 173.277344 28.617188 173.398438 27.105469 173.398438 25.738281 C 173.398438 24.722656 173.289063 23.699219 172.226563 23.699219 C 171.464844 23.699219 171.214844 23.988281 170.675781 24.355469 Z M 170.675781 23.488281 C 171.03125 23.121094 171.738281 22.816406 172.34375 22.816406 C 173.933594 22.816406 174.472656 24.144531 174.472656 25.761719 C 174.472656 27.65625 173.976563 29.496094 172.226563 29.496094 C 171.304688 29.496094 170.820313 29.261719 170.398438 28.851563 C 170.332031 29.035156 170.121094 29.496094 169.976563 29.496094 C 169.925781 29.496094 169.84375 29.445313 169.792969 29.40625 L 169.464844 29.195313 C 169.359375 29.128906 169.269531 29.089844 169.269531 29.023438 C 169.269531 28.957031 169.371094 28.867188 169.464844 28.644531 C 169.582031 28.433594 169.675781 28.128906 169.675781 27.707031 L 169.675781 20.136719 C 169.675781 20.042969 169.714844 19.992188 169.765625 19.976563 L 170.425781 19.820313 C 170.53125 19.792969 170.488281 19.804688 170.582031 19.792969 C 170.675781 19.792969 170.675781 19.898438 170.675781 19.964844 L 170.675781 23.488281 "/>
<path style=" stroke:none;fill-rule:nonzero;fill:rgb(35.68573%,43.528748%,48.626709%);fill-opacity:1;" d="M 176.25 20.136719 C 176.25 20.042969 176.289063 19.992188 176.339844 19.976563 L 177 19.820313 C 177.105469 19.792969 177.0625 19.804688 177.15625 19.792969 C 177.25 19.792969 177.25 19.898438 177.25 19.964844 L 177.25 23.710938 C 177.671875 23.371094 178.351563 22.816406 179.3125 22.816406 C 180.773438 22.816406 180.878906 23.84375 180.878906 24.789063 L 180.878906 29.15625 C 180.878906 29.261719 180.824219 29.3125 180.71875 29.3125 L 180.035156 29.3125 C 179.929688 29.3125 179.878906 29.261719 179.878906 29.15625 L 179.878906 24.765625 C 179.878906 24.199219 179.734375 23.699219 179.023438 23.699219 C 178.167969 23.699219 177.578125 24.210938 177.25 24.5 L 177.25 29.15625 C 177.25 29.261719 177.195313 29.3125 177.089844 29.3125 L 176.40625 29.3125 C 176.304688 29.3125 176.25 29.261719 176.25 29.15625 L 176.25 20.136719 "/>
<path style=" stroke:none;fill-rule:nonzero;fill:rgb(35.68573%,43.528748%,48.626709%);fill-opacity:1;" d="M 184.097656 22.042969 C 184.0625 22.070313 184.019531 22.082031 183.96875 22.082031 C 183.929688 22.082031 183.886719 22.042969 183.847656 21.976563 L 183.730469 21.792969 C 183.703125 21.753906 183.664063 21.699219 183.664063 21.660156 C 183.664063 21.621094 183.71875 21.59375 183.769531 21.542969 L 185.675781 20.070313 C 185.703125 20.058594 185.757813 20.003906 185.808594 20.003906 C 185.859375 20.003906 185.902344 20.070313 185.941406 20.109375 L 186.320313 20.675781 C 186.347656 20.714844 186.375 20.753906 186.375 20.804688 C 186.375 20.859375 186.320313 20.898438 186.257813 20.925781 Z M 186.019531 26.171875 C 185.441406 26.183594 183.5625 26.183594 183.5625 27.5625 C 183.5625 28.089844 183.847656 28.679688 184.519531 28.679688 C 185.203125 28.679688 185.808594 28.050781 186.019531 27.867188 Z M 187.019531 27.234375 C 187.019531 28.0625 187.058594 28.183594 187.175781 28.550781 C 187.230469 28.707031 187.414063 28.957031 187.414063 29.035156 C 187.414063 29.089844 187.347656 29.117188 187.292969 29.140625 L 186.78125 29.457031 C 186.726563 29.484375 186.703125 29.496094 186.675781 29.496094 C 186.480469 29.496094 186.242188 28.800781 186.175781 28.617188 C 186.019531 28.761719 185.375 29.496094 184.28125 29.496094 C 183.246094 29.496094 182.574219 28.8125 182.574219 27.644531 C 182.574219 25.421875 185.203125 25.382813 186.019531 25.355469 L 186.019531 24.882813 C 186.019531 24.121094 185.78125 23.699219 184.847656 23.699219 C 183.96875 23.699219 183.363281 24.121094 183.246094 24.121094 C 183.207031 24.121094 183.167969 24.09375 183.152344 24.054688 L 182.980469 23.59375 C 182.953125 23.527344 182.941406 23.488281 182.941406 23.421875 C 182.941406 23.199219 184.152344 22.816406 184.992188 22.816406 C 186.503906 22.816406 187.019531 23.554688 187.019531 24.65625 L 187.019531 27.234375 "/>
<path style=" stroke:none;fill-rule:nonzero;fill:rgb(35.68573%,43.528748%,48.626709%);fill-opacity:1;" d="M 189.988281 21.488281 C 189.542969 21.488281 189.1875 21.132813 189.1875 20.6875 C 189.1875 20.242188 189.542969 19.886719 189.988281 19.886719 C 190.4375 19.886719 190.792969 20.253906 190.792969 20.6875 C 190.792969 21.121094 190.4375 21.488281 189.988281 21.488281 Z M 190.554688 29.15625 C 190.554688 29.261719 190.503906 29.3125 190.398438 29.3125 L 189.714844 29.3125 C 189.609375 29.3125 189.554688 29.261719 189.554688 29.15625 L 189.554688 23.816406 L 188.53125 23.816406 C 188.425781 23.816406 188.371094 23.765625 188.371094 23.660156 L 188.371094 23.160156 C 188.371094 23.054688 188.425781 23.003906 188.53125 23.003906 L 190.382813 23.003906 C 190.527344 23.003906 190.554688 23.082031 190.554688 23.199219 L 190.554688 29.15625 "/>
<path style=" stroke:none;fill-rule:nonzero;fill:rgb(35.68573%,43.528748%,48.626709%);fill-opacity:1;" d="M 195.960938 24.132813 C 195.539063 23.910156 195.121094 23.699219 194.460938 23.699219 C 193.332031 23.699219 193.226563 24.988281 193.226563 26.261719 C 193.226563 27.367188 193.320313 28.617188 194.382813 28.617188 C 195.066406 28.617188 195.644531 28.039063 195.960938 27.839844 Z M 196.960938 27.234375 C 196.960938 27.828125 196.960938 28.222656 197.105469 28.550781 C 197.171875 28.707031 197.34375 28.957031 197.34375 29.035156 C 197.34375 29.089844 197.277344 29.117188 197.222656 29.140625 L 196.710938 29.457031 C 196.660156 29.484375 196.632813 29.496094 196.605469 29.496094 C 196.421875 29.496094 196.183594 28.929688 196.132813 28.722656 C 195.816406 28.945313 195.171875 29.496094 194.199219 29.496094 C 192.792969 29.496094 192.148438 27.917969 192.148438 26.289063 C 192.148438 24.394531 192.816406 22.816406 194.34375 22.816406 C 195.160156 22.816406 195.605469 23.039063 195.960938 23.265625 L 195.960938 20.136719 C 195.960938 20.042969 196 19.992188 196.054688 19.976563 L 196.699219 19.820313 C 196.800781 19.792969 196.765625 19.804688 196.855469 19.792969 C 196.960938 19.792969 196.960938 19.898438 196.960938 19.964844 L 196.960938 27.234375 "/>
<path style=" stroke:none;fill-rule:nonzero;fill:rgb(35.68573%,43.528748%,48.626709%);fill-opacity:1;" d="M 198.960938 22.042969 C 198.921875 22.070313 198.878906 22.082031 198.828125 22.082031 C 198.789063 22.082031 198.75 22.042969 198.710938 21.976563 L 198.59375 21.792969 C 198.566406 21.753906 198.527344 21.699219 198.527344 21.660156 C 198.527344 21.621094 198.578125 21.59375 198.628906 21.542969 L 200.539063 20.070313 C 200.5625 20.058594 200.617188 20.003906 200.667969 20.003906 C 200.722656 20.003906 200.761719 20.070313 200.800781 20.109375 L 201.179688 20.675781 C 201.207031 20.714844 201.234375 20.753906 201.234375 20.804688 C 201.234375 20.859375 201.179688 20.898438 201.117188 20.925781 Z M 200.550781 29.15625 C 200.550781 29.261719 200.496094 29.3125 200.390625 29.3125 L 199.707031 29.3125 C 199.601563 29.3125 199.550781 29.261719 199.550781 29.15625 L 199.550781 23.816406 L 198.511719 23.816406 C 198.40625 23.816406 198.355469 23.765625 198.355469 23.660156 L 198.355469 23.160156 C 198.355469 23.054688 198.40625 23.003906 198.511719 23.003906 L 200.378906 23.003906 C 200.523438 23.003906 200.550781 23.082031 200.550781 23.199219 L 200.550781 29.15625 "/>
</g>
</svg>
